{
.appVersion = "1352";
copyright = "Copyright 2020 The Noto Sans Khmer UI Project Authors (https://github.com/danhhong/NotoSansKhmerUI)";
customParameters = (
{
name = "Use Typo Metrics";
value = 1;
},
{
name = license;
value = "This Font Software is licensed under the SIL Open Font License, Version 1.1. This license is available with a FAQ at: https://scripts.sil.org/OFL";
},
{
name = licenseURL;
value = "https://scripts.sil.org/OFL";
},
{
name = fsType;
value = (
);
}
);
date = "2021-05-28 12:56:18 +0000";
designer = "Danh Hong";
designerURL = "http://www.nextspell.com";
disablesAutomaticAlignment = 1;
disablesNiceNames = 1;
familyName = "Noto Sans Khmer UI";
featurePrefixes = (
{
code = "lookup lookup_0 {\012sub uni17B7 by uni17B7.r;\012sub uni17B8 by uni17B8.r;\012sub uni17B9 by uni17B9.r;\012sub uni17BA by uni17BA.r;\012sub uni17C6 by uni17C6.r;\012sub uni17C9 by uni17C9.r;\012sub uni17CD by uni17CD.r;\012sub uni17B717CD by uni17B717CD.r;\012} lookup_0;\012";
name = lookup_0;
},
{
code = "lookup lookup_1 {\012sub uni17BB by uni17BB.b;\012sub uni17BC by uni17BC.b;\012sub uni17BD by uni17BD.b;\012} lookup_1;\012";
name = lookup_1;
},
{
code = "lookup lookup_21 {\012sub uni17BB by uni17BB.left;\012sub uni17BC by uni17BC.left;\012sub uni17BD by uni17BD.left;\012} lookup_21;\012";
name = lookup_21;
},
{
code = "lookup lookup_10 {\012sub uni17D21798 by uni17D21798.b;\012sub uni17D217A0 by uni17D217A0.b;\012} lookup_10;\012";
name = lookup_10;
},
{

glyphs = (
{
glyphname = uni1780;
lastChange = "2021-05-28 12:58:34 +0000";
layers = (
{
layerId = "372009DC-CA12-41C8-98C7-C44FC6D5F55D";
paths = (
{
closed = 1;
nodes = (
"1190 1160 LINE",
"110 1160 LINE",
"110 932 LINE",
"1190 932 LINE"
);
},
{
closed = 1;
nodes = (
"110 0 LINE",
"478 0 LINE",
"478 487 LINE SMOOTH",
"478 557 OFFCURVE",
"535 592 OFFCURVE",
"650 592 CURVE SMOOTH",
"765 592 OFFCURVE",
"822 557 OFFCURVE",
"822 487 CURVE SMOOTH",
"822 0 LINE",
"1190 0 LINE",
"1190 487 LINE SMOOTH",
"1190 702 OFFCURVE",
"1010 810 OFFCURVE",
"650 810 CURVE SMOOTH",
"290 810 OFFCURVE",
"110 702 OFFCURVE",
"110 487 CURVE SMOOTH"
);
}
);
width = 1300;
},
{
layerId = "A36153DC-C9CC-437F-8D19-86D84E7E38EA";
paths = (
{
closed = 1;
nodes = (
"140 932 LINE",
"1160 932 LINE",
"1160 1130 LINE",
"140 1130 LINE"
);
},
{
closed = 1;
nodes = (
"140 0 LINE",
"448 0 LINE",
"448 487 LINE SMOOTH",
"448 577 OFFCURVE",
"515 622 OFFCURVE",
"650 622 CURVE SMOOTH",
"785 622 OFFCURVE",
"852 577 OFFCURVE",
"852 487 CURVE SMOOTH",
"852 0 LINE",
"1160 0 LINE",
"1160 487 LINE SMOOTH",
"1160 702 OFFCURVE",
"990 810 OFFCURVE",
"650 810 CURVE SMOOTH",
"310 810 OFFCURVE",
"140 702 OFFCURVE",
"140 487 CURVE SMOOTH"
);
}
);
width = 1300;
},
{
layerId = "607A0539-44D7-4182-901A-4BFA5CCC01F8";
paths = (
{
closed = 1;
nodes = (
"200 1130 LINE",
"200 992 LINE",
"1100 992 LINE",
"1100 1130 LINE"
);
},
{
closed = 1;
nodes = (
"200 0 LINE",
"388 0 LINE",
"388 517 LINE SMOOTH",
"388 640 OFFCURVE",
"475 702 OFFCURVE",
"650 702 CURVE SMOOTH",
"825 702 OFFCURVE",
"912 640 OFFCURVE",
"912 517 CURVE SMOOTH",
"912 0 LINE",
"1100 0 LINE",
"1100 517 LINE SMOOTH",
"1100 732 OFFCURVE",
"950 840 OFFCURVE",
"650 840 CURVE SMOOTH",
"350 840 OFFCURVE",
"200 732 OFFCURVE",
"200 517 CURVE SMOOTH"
);
}
);
userData = {
assembly = "NPUSHB[ ]	/* 34 values pushed */\0120 2 0 4 3 2 4 105 0 0 0 1 95 0 1 1 17 77 5 1 3 3 19 3 78 18 34 18 33 17 16 6 7 28 \012CALL[ ]	/* CallFunction */";
};
width = 1300;
},
{
layerId = "DF847F4E-D23C-40FA-8597-1D02BA148938";
paths = (
{
closed = 1;
nodes = (
"230 1032 LINE",
"1070 1032 LINE",
"1070 1130 LINE",
"230 1130 LINE"
);
},
{
closed = 1;
nodes = (
"230 0 LINE",
"348 0 LINE",
"348 517 LINE SMOOTH",
"348 667 OFFCURVE",
"449 742 OFFCURVE",
"650 742 CURVE SMOOTH",
"851 742 OFFCURVE",
"952 667 OFFCURVE",
"952 517 CURVE SMOOTH",
"952 0 LINE",
"1070 0 LINE",
"1070 517 LINE SMOOTH",
"1070 732 OFFCURVE",
"930 840 OFFCURVE",
"650 840 CURVE SMOOTH",
"370 840 OFFCURVE",
"230 732 OFFCURVE",
"230 517 CURVE SMOOTH"
);
}
);
width = 1300;
},
{
layerId = "3BE6379C-89A1-45B5-97C8-F079248A4F49";
paths = (
{
closed = 1;
nodes = (
"260 1072 LINE",
"1040 1072 LINE",
"1040 1130 LINE",
"260 1130 LINE"
);
},
{
closed = 1;
nodes = (
"260 0 LINE",
"318 0 LINE",
"318 517 LINE SMOOTH",
"318 694 OFFCURVE",
"429 782 OFFCURVE",
"650 782 CURVE SMOOTH",
"871 782 OFFCURVE",
"982 694 OFFCURVE",
"982 517 CURVE SMOOTH",
"982 0 LINE",
"1040 0 LINE",
"1040 517 LINE SMOOTH",
"1040 732 OFFCURVE",
"910 840 OFFCURVE",
"650 840 CURVE SMOOTH",
"390 840 OFFCURVE",
"260 732 OFFCURVE",
"260 517 CURVE SMOOTH"
);
}
);
width = 1300;
}
);
note = uni1780;
unicode = 1780;
},
{
glyphname = uni1781;
lastChange = "2021-05-28 12:58:34 +0000";
layers = (
{
layerId = "372009DC-CA12-41C8-98C7-C44FC6D5F55D";
paths = (
{
closed = 1;
nodes = (
"110 726 OFFCURVE",
"233 672 OFFCURVE",
"478 672 CURVE SMOOTH",
"564 672 LINE",
"564 835 LINE",
"478 835 LINE",
"478 916 OFFCURVE",
"535 957 OFFCURVE",
"650 957 CURVE SMOOTH",
"765 957 OFFCURVE",
"822 916 OFFCURVE",
"822 835 CURVE SMOOTH",
"822 662 OFFCURVE",
"732 589 OFFCURVE",
"540 589 CURVE SMOOTH",
"259 589 OFFCURVE",
"110 492 OFFCURVE",
"110 325 CURVE SMOOTH",
"110 108 OFFCURVE",
"290 0 OFFCURVE",
"650 0 CURVE SMOOTH",
"1011 0 OFFCURVE",
"1190 116 OFFCURVE",
"1190 356 CURVE",
"822 356 LINE",
"822 288 OFFCURVE",
"797 253 OFFCURVE",
"748 239 CURVE SMOOTH",
"723 232 OFFCURVE",
"691 228 OFFCURVE",
"650 228 CURVE SMOOTH",
"567 228 OFFCURVE",
"521 236 OFFCURVE",
"497 264 CURVE SMOOTH",
"484 278 OFFCURVE",
"478 298 OFFCURVE",
"478 325 CURVE SMOOTH",
"478 369 OFFCURVE",
"501 406 OFFCURVE",
"540 406 CURVE SMOOTH",
"979 406 OFFCURVE",
"1190 539 OFFCURVE",
"1190 835 CURVE SMOOTH",
"1190 1052 OFFCURVE",
"1010 1160 OFFCURVE",
"650 1160 CURVE SMOOTH",
"290 1160 OFFCURVE",
"110 1052 OFFCURVE",
"110 835 CURVE SMOOTH"
);
}
);
width = 1300;
},
{
layerId = "A36153DC-C9CC-437F-8D19-86D84E7E38EA";
paths = (
{
closed = 1;
nodes = (
"140 708 OFFCURVE",
"243 655 OFFCURVE",
"448 655 CURVE SMOOTH",
"534 655 LINE",
"534 813 LINE",
"448 813 LINE",
"448 892 OFFCURVE",
"515 932 OFFCURVE",
"650 932 CURVE SMOOTH",
"785 932 OFFCURVE",
"852 892 OFFCURVE",
"852 813 CURVE SMOOTH",
"852 644 OFFCURVE",
"743 574 OFFCURVE",
"510 574 CURVE SMOOTH",
"261 574 OFFCURVE",
"140 493 OFFCURVE",
"140 317 CURVE SMOOTH",
"140 106 OFFCURVE",
"310 0 OFFCURVE",
"650 0 CURVE SMOOTH",
"990 0 OFFCURVE",
"1160 112 OFFCURVE",
"1160 337 CURVE",
"852 337 LINE",
"852 244 OFFCURVE",
"785 198 OFFCURVE",
"650 198 CURVE SMOOTH",
"515 198 OFFCURVE",
"448 238 OFFCURVE",
"448 317 CURVE SMOOTH",
"448 366 OFFCURVE",
"470 396 OFFCURVE",
"510 396 CURVE SMOOTH",
"949 396 OFFCURVE",
"1160 525 OFFCURVE",
"1160 813 CURVE SMOOTH",
"1160 1024 OFFCURVE",
"990 1130 OFFCURVE",
"650 1130 CURVE SMOOTH",
"310 1130 OFFCURVE",
"140 1024 OFFCURVE",
"140 813 CURVE SMOOTH"
);
}
);
width = 1300;
},
{
layerId = "607A0539-44D7-4182-901A-4BFA5CCC01F8";
paths = (
{
closed = 1;
nodes = (
"200 721 OFFCURVE",
"263 675 OFFCURVE",
"388 675 CURVE SMOOTH",
"500 675 LINE",
"500 813 LINE",
"388 813 LINE",
"388 932 OFFCURVE",
"475 992 OFFCURVE",
"650 992 CURVE SMOOTH",
"825 992 OFFCURVE",
"912 932 OFFCURVE",
"912 813 CURVE SMOOTH",
"912 630 OFFCURVE",
"765 554 OFFCURVE",
"450 554 CURVE SMOOTH",
"286 554 OFFCURVE",
"200 465 OFFCURVE",
"200 317 CURVE SMOOTH",
"200 106 OFFCURVE",
"350 0 OFFCURVE",
"650 0 CURVE SMOOTH",
"950 0 OFFCURVE",
"1100 106 OFFCURVE",
"1100 317 CURVE",
"912 317 LINE",
"912 198 OFFCURVE",
"825 138 OFFCURVE",
"650 138 CURVE SMOOTH",
"475 138 OFFCURVE",
"388 198 OFFCURVE",
"388 317 CURVE SMOOTH",
"388 373 OFFCURVE",
"411 416 OFFCURVE",
"450 416 CURVE SMOOTH",
"889 416 OFFCURVE",
"1100 538 OFFCURVE",
"1100 813 CURVE SMOOTH",
"1100 1024 OFFCURVE",
"950 1130 OFFCURVE",
"650 1130 CURVE SMOOTH",
"350 1130 OFFCURVE",
"200 1024 OFFCURVE",
"200 813 CURVE SMOOTH"
);
}
);
width = 1300;
},
{
layerId = "DF847F4E-D23C-40FA-8597-1D02BA148938";
paths = (
{
closed = 1;
nodes = (
"230 721 OFFCURVE",
"295 675 OFFCURVE",
"424 675 CURVE SMOOTH",
"500 675 LINE",
"500 773 LINE",
"424 773 LINE SMOOTH",
"373 773 OFFCURVE",
"348 786 OFFCURVE",
"348 813 CURVE SMOOTH",
"348 959 OFFCURVE",
"449 1032 OFFCURVE",
"650 1032 CURVE SMOOTH",
"851 1032 OFFCURVE",
"952 959 OFFCURVE",
"952 813 CURVE SMOOTH",
"952 614 OFFCURVE",
"785 514 OFFCURVE",
"450 514 CURVE SMOOTH",
"303 514 OFFCURVE",
"230 448 OFFCURVE",
"230 317 CURVE SMOOTH",
"230 106 OFFCURVE",
"370 0 OFFCURVE",
"650 0 CURVE SMOOTH",
"930 0 OFFCURVE",
"1070 106 OFFCURVE",
"1070 317 CURVE",
"952 317 LINE",
"952 171 OFFCURVE",
"851 98 OFFCURVE",
"650 98 CURVE SMOOTH",
"449 98 OFFCURVE",
"348 171 OFFCURVE",
"348 317 CURVE SMOOTH",
"348 383 OFFCURVE",
"382 416 OFFCURVE",
"450 416 CURVE SMOOTH",
"863 416 OFFCURVE",
"1070 548 OFFCURVE",
"1070 813 CURVE SMOOTH",
"1070 1024 OFFCURVE",
"930 1130 OFFCURVE",
"650 1130 CURVE SMOOTH",
"370 1130 OFFCURVE",
"230 1024 OFFCURVE",
"230 813 CURVE SMOOTH"
);
}
);
width = 1300;
},
{
layerId = "3BE6379C-89A1-45B5-97C8-F079248A4F49";
paths = (
{
closed = 1;
nodes = (
"260 721 OFFCURVE",
"315 675 OFFCURVE",
"424 675 CURVE SMOOTH",
"500 675 LINE",
"500 733 LINE",
"424 733 LINE SMOOTH",
"353 733 OFFCURVE",
"318 760 OFFCURVE",
"318 813 CURVE SMOOTH",
"318 986 OFFCURVE",
"429 1072 OFFCURVE",
"650 1072 CURVE SMOOTH",
"871 1072 OFFCURVE",
"982 986 OFFCURVE",
"982 813 CURVE SMOOTH",
"982 600 OFFCURVE",
"805 494 OFFCURVE",
"450 494 CURVE SMOOTH",
"323 494 OFFCURVE",
"260 435 OFFCURVE",
"260 317 CURVE SMOOTH",
"260 106 OFFCURVE",
"390 0 OFFCURVE",
"650 0 CURVE SMOOTH",
"910 0 OFFCURVE",
"1040 106 OFFCURVE",
"1040 317 CURVE",
"982 317 LINE",
"982 144 OFFCURVE",
"871 58 OFFCURVE",
"650 58 CURVE SMOOTH",
"429 58 OFFCURVE",
"318 144 OFFCURVE",
"318 317 CURVE SMOOTH",
"318 396 OFFCURVE",
"362 436 OFFCURVE",
"450 436 CURVE SMOOTH",
"843 436 OFFCURVE",
"1040 562 OFFCURVE",
"1040 813 CURVE SMOOTH",
"1040 1024 OFFCURVE",
"910 1130 OFFCURVE",
"650 1130 CURVE SMOOTH",
"390 1130 OFFCURVE",
"260 1024 OFFCURVE",
"260 813 CURVE SMOOTH"
);
}
);
width = 1300;
}
);
note = uni1781;
unicode = 1781;
},
{
glyphname = uni1782;
lastChange = "2021-05-28 12:58:34 +0000";
layers = (
{
layerId = "372009DC-CA12-41C8-98C7-C44FC6D5F55D";
paths = (
{
closed = 1;
nodes = (
"110 1160 LINE",
"110 932 LINE",
"1190 932 LINE",
"1190 1160 LINE"
);
},
{
closed = 1;
nodes = (
"290 810 OFFCURVE",
"110 702 OFFCURVE",
"110 487 CURVE SMOOTH",
"110 0 LINE",
"478 0 LINE",
"478 80 LINE",
"487 93 OFFCURVE",
"492 100 OFFCURVE",
"493 102 CURVE SMOOTH",
"537 166 OFFCURVE",
"553 184 OFFCURVE",
"590 200 CURVE SMOOTH",
"609 208 OFFCURVE",
"635 212 OFFCURVE",
"666 212 CURVE SMOOTH",
"700 212 LINE",
"700 400 LINE",
"662 400 LINE SMOOTH",
"576 400 OFFCURVE",
"515 374 OFFCURVE",
"478 321 CURVE",
"478 487 LINE SMOOTH",
"478 557 OFFCURVE",
"535 592 OFFCURVE",
"650 592 CURVE SMOOTH",
"765 592 OFFCURVE",
"822 557 OFFCURVE",
"822 487 CURVE SMOOTH",
"822 0 LINE",
"1190 0 LINE",
"1190 487 LINE SMOOTH",
"1190 702 OFFCURVE",
"1010 810 OFFCURVE",
"650 810 CURVE SMOOTH"
);
}
);
width = 1300;
},
{
layerId = "A36153DC-C9CC-437F-8D19-86D84E7E38EA";
paths = (
{
closed = 1;
nodes = (
"140 932 LINE",
"1160 932 LINE",
"1160 1130 LINE",
"140 1130 LINE"
);
},
{
closed = 1;
nodes = (
"448 597 OFFCURVE",
"515 652 OFFCURVE",
"650 652 CURVE SMOOTH",
"785 652 OFFCURVE",
"852 597 OFFCURVE",
"852 487 CURVE SMOOTH",
"852 0 LINE",
"1160 0 LINE",
"1160 487 LINE SMOOTH",
"1160 702 OFFCURVE",
"990 810 OFFCURVE",
"650 810 CURVE SMOOTH",
"310 810 OFFCURVE",
"140 702 OFFCURVE",
"140 487 CURVE SMOOTH",
"140 0 LINE",
"448 0 LINE",
"448 86 LINE",
"477 166 OFFCURVE",
"532 212 OFFCURVE",
"636 212 CURVE SMOOTH",
"700 212 LINE",
"700 400 LINE",
"636 400 LINE SMOOTH",
"557 400 OFFCURVE",
"494 373 OFFCURVE",
"448 320 CURVE",
"448 487 LINE SMOOTH"
);
}
);
width = 1300;
},
{
layerId = "607A0539-44D7-4182-901A-4BFA5CCC01F8";
paths = (
{
closed = 1;
nodes = (
"200 992 LINE",
"1100 992 LINE",
"1100 1130 LINE",
"200 1130 LINE"
);
},
{
closed = 1;
nodes = (
"388 640 OFFCURVE",
"475 702 OFFCURVE",
"650 702 CURVE SMOOTH",
"825 702 OFFCURVE",
"912 640 OFFCURVE",
"912 517 CURVE SMOOTH",
"912 0 LINE",
"1100 0 LINE",
"1100 517 LINE SMOOTH",
"1100 732 OFFCURVE",
"950 840 OFFCURVE",
"650 840 CURVE SMOOTH",
"350 840 OFFCURVE",
"200 732 OFFCURVE",
"200 517 CURVE SMOOTH",
"200 0 LINE",
"388 0 LINE",
"388 86 LINE",
"408 167 OFFCURVE",
"435 215 OFFCURVE",
"489 242 CURVE SMOOTH",
"516 255 OFFCURVE",
"551 262 OFFCURVE",
"596 262 CURVE SMOOTH",
"700 262 LINE",
"700 400 LINE",
"596 400 LINE SMOOTH",
"503 400 OFFCURVE",
"434 373 OFFCURVE",
"388 320 CURVE",
"388 517 LINE SMOOTH"
);
}
);
width = 1300;
},
{
layerId = "DF847F4E-D23C-40FA-8597-1D02BA148938";
paths = (
{
closed = 1;
nodes = (
"230 1032 LINE",
"1070 1032 LINE",
"1070 1130 LINE",
"230 1130 LINE"
);
},
{
closed = 1;
nodes = (
"348 667 OFFCURVE",
"449 742 OFFCURVE",
"650 742 CURVE SMOOTH",
"851 742 OFFCURVE",
"952 667 OFFCURVE",
"952 517 CURVE SMOOTH",
"952 0 LINE",
"1070 0 LINE",
"1070 517 LINE SMOOTH",
"1070 732 OFFCURVE",
"930 840 OFFCURVE",
"650 840 CURVE SMOOTH",
"370 840 OFFCURVE",
"230 732 OFFCURVE",
"230 517 CURVE SMOOTH",
"230 0 LINE",
"348 0 LINE",
"348 36 LINE",
"379 164 OFFCURVE",
"459 262 OFFCURVE",
"586 262 CURVE SMOOTH",
"660 262 LINE",
"660 360 LINE",
"586 360 LINE SMOOTH",
"493 360 OFFCURVE",
"414 317 OFFCURVE",
"348 230 CURVE",
"348 517 LINE SMOOTH"
);
}
);
width = 1300;
},
{
layerId = "3BE6379C-89A1-45B5-97C8-F079248A4F49";
paths = (
{
closed = 1;
nodes = (
"260 1072 LINE",
"1040 1072 LINE",
"1040 1130 LINE",
"260 1130 LINE"
);
},
{
closed = 1;
nodes = (
"318 694 OFFCURVE",
"429 782 OFFCURVE",
"650 782 CURVE SMOOTH",
"871 782 OFFCURVE",
"982 694 OFFCURVE",
"982 517 CURVE SMOOTH",
"982 0 LINE",
"1040 0 LINE",
"1040 517 LINE SMOOTH",
"1040 732 OFFCURVE",
"910 840 OFFCURVE",
"650 840 CURVE SMOOTH",
"390 840 OFFCURVE",
"260 732 OFFCURVE",
"260 517 CURVE SMOOTH",
"260 0 LINE",
"318 0 LINE",
"318 66 LINE",
"338 133 OFFCURVE",
"386 205 OFFCURVE",
"458 249 CURVE SMOOTH",
"494 271 OFFCURVE",
"533 282 OFFCURVE",
"576 282 CURVE SMOOTH",
"650 282 LINE",
"650 340 LINE",
"576 340 LINE SMOOTH",
"470 340 OFFCURVE",
"384 283 OFFCURVE",
"318 170 CURVE",
"318 517 LINE SMOOTH"
);
}
);
width = 1300;
}
);
note = uni1782;
unicode = 1782;
},
{
glyphname = uni1783;
lastChange = "2021-05-28 12:58:34 +0000";
layers = (
{
layerId = "372009DC-CA12-41C8-98C7-C44FC6D5F55D";
paths = (
{
closed = 1;
nodes = (
"772 704 LINE",
"772 323 LINE SMOOTH",
"772 260 OFFCURVE",
"723 228 OFFCURVE",
"625 228 CURVE SMOOTH",
"527 228 OFFCURVE",
"478 260 OFFCURVE",
"478 323 CURVE SMOOTH",
"478 495 LINE",
"546 616 OFFCURVE",
"580 748 OFFCURVE",
"580 890 CURVE SMOOTH",
"580 1160 LINE",
"110 1160 LINE",
"110 932 LINE",
"262 932 LINE",
"262 890 LINE SMOOTH",
"262 762 OFFCURVE",
"211 646 OFFCURVE",
"110 543 CURVE",
"110 323 LINE SMOOTH",
"110 108 OFFCURVE",
"282 0 OFFCURVE",
"625 0 CURVE SMOOTH",
"775 0 OFFCURVE",
"885 30 OFFCURVE",
"956 91 CURVE",
"1027 30 OFFCURVE",
"1137 0 OFFCURVE",
"1287 0 CURVE SMOOTH",
"1630 0 OFFCURVE",
"1802 108 OFFCURVE",
"1802 323 CURVE SMOOTH",
"1802 704 LINE SMOOTH",
"1802 749 OFFCURVE",
"1769 790 OFFCURVE",
"1702 826 CURVE SMOOTH",
"1602 880 LINE",
"1602 932 LINE",
"1802 932 LINE",
"1802 1160 LINE",
"1512 1160 LINE SMOOTH",
"1360 1160 OFFCURVE",
"1284 1084 OFFCURVE",
"1284 932 CURVE SMOOTH",
"1284 827 LINE",
"1434 704 LINE",
"1434 323 LINE SMOOTH",
"1434 260 OFFCURVE",
"1385 228 OFFCURVE",
"1287 228 CURVE SMOOTH",
"1189 228 OFFCURVE",
"1140 260 OFFCURVE",
"1140 323 CURVE SMOOTH",
"1140 704 LINE SMOOTH",
"1140 749 OFFCURVE",
"1115 790 OFFCURVE",
"1065 826 CURVE SMOOTH",
"990 880 LINE",
"990 932 LINE",
"1160 932 LINE",
"1160 1160 LINE",
"900 1160 LINE SMOOTH",
"755 1160 OFFCURVE",
"682 1094 OFFCURVE",
"682 962 CURVE SMOOTH",
"682 827 LINE"
);
}
);
width = 1912;
},
{
layerId = "A36153DC-C9CC-437F-8D19-86D84E7E38EA";
paths = (
{
closed = 1;
nodes = (
"802 704 LINE",
"802 323 LINE SMOOTH",
"802 240 OFFCURVE",
"743 198 OFFCURVE",
"625 198 CURVE SMOOTH",
"507 198 OFFCURVE",
"448 240 OFFCURVE",
"448 323 CURVE SMOOTH",
"448 495 LINE",
"523 616 OFFCURVE",
"560 748 OFFCURVE",
"560 890 CURVE SMOOTH",
"560 1130 LINE",
"140 1130 LINE",
"140 932 LINE",
"292 932 LINE",
"292 890 LINE SMOOTH",
"292 761 OFFCURVE",
"241 646 OFFCURVE",
"140 543 CURVE",
"140 323 LINE SMOOTH",
"140 108 OFFCURVE",
"302 0 OFFCURVE",
"625 0 CURVE SMOOTH",
"775 0 OFFCURVE",
"885 30 OFFCURVE",
"956 91 CURVE",
"1027 30 OFFCURVE",
"1137 0 OFFCURVE",
"1287 0 CURVE SMOOTH",
"1610 0 OFFCURVE",
"1772 108 OFFCURVE",
"1772 323 CURVE SMOOTH",
"1772 704 LINE SMOOTH",
"1772 749 OFFCURVE",
"1739 790 OFFCURVE",
"1672 826 CURVE SMOOTH",
"1572 880 LINE",
"1572 932 LINE",
"1772 932 LINE",
"1772 1130 LINE",
"1512 1130 LINE SMOOTH",
"1373 1130 OFFCURVE",
"1304 1064 OFFCURVE",
"1304 932 CURVE SMOOTH",
"1304 827 LINE",
"1464 704 LINE",
"1464 323 LINE SMOOTH",
"1464 240 OFFCURVE",
"1405 198 OFFCURVE",
"1287 198 CURVE SMOOTH",
"1169 198 OFFCURVE",
"1110 240 OFFCURVE",
"1110 323 CURVE SMOOTH",
"1110 704 LINE SMOOTH",
"1110 749 OFFCURVE",
"1085 790 OFFCURVE",
"1035 826 CURVE SMOOTH",
"960 880 LINE",
"960 932 LINE",
"1160 932 LINE",
"1160 1130 LINE",
"900 1130 LINE SMOOTH",
"761 1130 OFFCURVE",
"692 1074 OFFCURVE",
"692 962 CURVE SMOOTH",
"692 827 LINE"
);
}
);
width = 1912;
},
{
layerId = "607A0539-44D7-4182-901A-4BFA5CCC01F8";
paths = (
{
closed = 1;
nodes = (
"352 962 LINE",
"352 890 LINE SMOOTH",
"352 761 OFFCURVE",
"301 646 OFFCURVE",
"200 543 CURVE",
"200 323 LINE SMOOTH",
"200 108 OFFCURVE",
"342 0 OFFCURVE",
"625 0 CURVE SMOOTH",
"775 0 OFFCURVE",
"885 30 OFFCURVE",
"956 91 CURVE",
"1027 30 OFFCURVE",
"1137 0 OFFCURVE",
"1287 0 CURVE SMOOTH",
"1570 0 OFFCURVE",
"1712 108 OFFCURVE",
"1712 323 CURVE SMOOTH",
"1712 734 LINE SMOOTH",
"1712 773 OFFCURVE",
"1677 812 OFFCURVE",
"1607 851 CURVE SMOOTH",
"1502 910 LINE",
"1502 992 LINE",
"1712 992 LINE",
"1712 1130 LINE",
"1512 1130 LINE SMOOTH",
"1393 1130 OFFCURVE",
"1334 1084 OFFCURVE",
"1334 992 CURVE SMOOTH",
"1334 857 LINE",
"1524 734 LINE",
"1524 323 LINE SMOOTH",
"1524 200 OFFCURVE",
"1445 138 OFFCURVE",
"1287 138 CURVE SMOOTH",
"1129 138 OFFCURVE",
"1050 200 OFFCURVE",
"1050 323 CURVE SMOOTH",
"1050 734 LINE SMOOTH",
"1050 773 OFFCURVE",
"1023 812 OFFCURVE",
"970 851 CURVE SMOOTH",
"890 910 LINE",
"890 992 LINE",
"1100 992 LINE",
"1100 1130 LINE",
"900 1130 LINE SMOOTH",
"781 1130 OFFCURVE",
"722 1084 OFFCURVE",
"722 992 CURVE SMOOTH",
"722 857 LINE",
"862 734 LINE",
"862 323 LINE SMOOTH",
"862 200 OFFCURVE",
"783 138 OFFCURVE",
"625 138 CURVE SMOOTH",
"467 138 OFFCURVE",
"388 200 OFFCURVE",
"388 323 CURVE SMOOTH",
"388 495 LINE",
"476 617 OFFCURVE",
"520 749 OFFCURVE",
"520 890 CURVE SMOOTH",
"520 1130 LINE",
"200 1130 LINE",
"200 962 LINE"
);
}
);
width = 1912;
},
{
layerId = "DF847F4E-D23C-40FA-8597-1D02BA148938";
paths = (
{
closed = 1;
nodes = (
"1022 40 OFFCURVE",
"1132 0 OFFCURVE",
"1292 0 CURVE SMOOTH",
"1552 0 OFFCURVE",
"1682 108 OFFCURVE",
"1682 323 CURVE SMOOTH",
"1682 714 LINE SMOOTH",
"1682 773 OFFCURVE",
"1649 820 OFFCURVE",
"1582 856 CURVE SMOOTH",
"1482 910 LINE",
"1482 992 LINE SMOOTH",
"1482 1019 OFFCURVE",
"1499 1032 OFFCURVE",
"1532 1032 CURVE SMOOTH",
"1682 1032 LINE",
"1682 1130 LINE",
"1532 1130 LINE SMOOTH",
"1427 1130 OFFCURVE",
"1374 1084 OFFCURVE",
"1374 992 CURVE SMOOTH",
"1374 857 LINE",
"1517 772 LINE SMOOTH",
"1548 753 OFFCURVE",
"1564 733 OFFCURVE",
"1564 714 CURVE SMOOTH",
"1564 323 LINE SMOOTH",
"1564 173 OFFCURVE",
"1473 98 OFFCURVE",
"1292 98 CURVE SMOOTH",
"1111 98 OFFCURVE",
"1020 173 OFFCURVE",
"1020 323 CURVE SMOOTH",
"1020 714 LINE SMOOTH",
"1020 773 OFFCURVE",
"995 820 OFFCURVE",
"945 856 CURVE SMOOTH",
"870 910 LINE",
"870 992 LINE SMOOTH",
"870 1019 OFFCURVE",
"887 1032 OFFCURVE",
"920 1032 CURVE SMOOTH",
"1110 1032 LINE",
"1110 1130 LINE",
"920 1130 LINE SMOOTH",
"815 1130 OFFCURVE",
"762 1084 OFFCURVE",
"762 992 CURVE SMOOTH",
"762 857 LINE",
"867 772 LINE SMOOTH",
"890 753 OFFCURVE",
"902 733 OFFCURVE",
"902 714 CURVE SMOOTH",
"902 323 LINE SMOOTH",
"902 173 OFFCURVE",
"810 98 OFFCURVE",
"625 98 CURVE SMOOTH",
"440 98 OFFCURVE",
"348 173 OFFCURVE",
"348 323 CURVE SMOOTH",
"348 615 LINE",
"436 737 OFFCURVE",
"480 835 OFFCURVE",
"480 910 CURVE SMOOTH",
"480 1130 LINE",
"230 1130 LINE",
"230 1032 LINE",
"382 1032 LINE",
"382 910 LINE SMOOTH",
"382 848 OFFCURVE",
"331 766 OFFCURVE",
"230 663 CURVE",
"230 323 LINE SMOOTH",
"230 108 OFFCURVE",
"362 0 OFFCURVE",
"625 0 CURVE SMOOTH",
"786 0 OFFCURVE",
"898 40 OFFCURVE",
"961 121 CURVE"
);
}
);
width = 1912;
},
{
layerId = "3BE6379C-89A1-45B5-97C8-F079248A4F49";
paths = (
{
closed = 1;
nodes = (
"960 761 OFFCURVE",
"933 804 OFFCURVE",
"880 842 CURVE SMOOTH",
"800 899 LINE",
"800 992 LINE SMOOTH",
"800 1045 OFFCURVE",
"830 1072 OFFCURVE",
"890 1072 CURVE SMOOTH",
"1050 1072 LINE",
"1050 1130 LINE",
"890 1130 LINE SMOOTH",
"791 1130 OFFCURVE",
"742 1084 OFFCURVE",
"742 992 CURVE SMOOTH",
"742 869 LINE",
"842 797 LINE SMOOTH",
"882 768 OFFCURVE",
"902 740 OFFCURVE",
"902 714 CURVE SMOOTH",
"902 323 LINE SMOOTH",
"902 146 OFFCURVE",
"805 58 OFFCURVE",
"610 58 CURVE SMOOTH",
"415 58 OFFCURVE",
"318 146 OFFCURVE",
"318 323 CURVE SMOOTH",
"318 615 LINE",
"406 737 OFFCURVE",
"450 835 OFFCURVE",
"450 910 CURVE SMOOTH",
"450 1130 LINE",
"220 1130 LINE",
"220 1072 LINE",
"392 1072 LINE",
"392 910 LINE SMOOTH",
"392 841 OFFCURVE",
"348 748 OFFCURVE",
"260 633 CURVE",
"260 323 LINE SMOOTH",
"260 108 OFFCURVE",
"377 0 OFFCURVE",
"610 0 CURVE SMOOTH",
"777 0 OFFCURVE",
"884 55 OFFCURVE",
"931 165 CURVE",
"980 55 OFFCURVE",
"1091 0 OFFCURVE",
"1262 0 CURVE SMOOTH",
"1502 0 OFFCURVE",
"1622 108 OFFCURVE",
"1622 323 CURVE SMOOTH",
"1622 714 LINE SMOOTH",
"1622 751 OFFCURVE",
"1585 792 OFFCURVE",
"1512 837 CURVE SMOOTH",
"1402 903 LINE",
"1402 992 LINE SMOOTH",
"1402 1045 OFFCURVE",
"1435 1072 OFFCURVE",
"1502 1072 CURVE SMOOTH",
"1652 1072 LINE",
"1652 1130 LINE",
"1502 1130 LINE SMOOTH",
"1397 1130 OFFCURVE",
"1344 1084 OFFCURVE",
"1344 992 CURVE SMOOTH",
"1344 869 LINE",
"1482 786 LINE SMOOTH",
"1537 753 OFFCURVE",
"1564 729 OFFCURVE",
"1564 714 CURVE SMOOTH",
"1564 323 LINE SMOOTH",
"1564 146 OFFCURVE",
"1463 58 OFFCURVE",
"1262 58 CURVE SMOOTH",
"1061 58 OFFCURVE",
"960 146 OFFCURVE",
"960 323 CURVE SMOOTH",
"960 714 LINE SMOOTH"
);
}
);
width = 1912;
}
);
note = uni1783;
unicode = 1783;
},
{
glyphname = uni1784;
lastChange = "2021-05-28 12:58:34 +0000";
layers = (
{
layerId = "372009DC-CA12-41C8-98C7-C44FC6D5F55D";
paths = (
{
closed = 1;
nodes = (
"478 610 LINE",
"50 610 LINE",
"50 466 LINE",
"110 466 LINE",
"110 0 LINE",
"509 0 LINE",
"651 160 LINE",
"792 0 LINE",
"1190 0 LINE",
"1190 630 LINE",
"1057 791 LINE",
"1112 836 OFFCURVE",
"1140 892 OFFCURVE",
"1140 958 CURVE SMOOTH",
"1140 1093 OFFCURVE",
"1047 1160 OFFCURVE",
"861 1160 CURVE SMOOTH",
"700 1160 OFFCURVE",
"619 1101 OFFCURVE",
"619 983 CURVE SMOOTH",
"619 964 OFFCURVE",
"631 934 OFFCURVE",
"655 894 CURVE",
"652 893 OFFCURVE",
"640 893 OFFCURVE",
"620 893 CURVE SMOOTH",
"525 893 OFFCURVE",
"478 926 OFFCURVE",
"478 992 CURVE SMOOTH",
"478 1340 LINE",
"110 1340 LINE",
"110 992 LINE SMOOTH",
"110 781 OFFCURVE",
"280 675 OFFCURVE",
"620 675 CURVE SMOOTH",
"655 675 OFFCURVE",
"703 678 OFFCURVE",
"766 685 CURVE",
"822 560 LINE",
"822 295 LINE",
"651 455 LINE",
"478 294 LINE"
);
},
{
closed = 1;
nodes = (
"902 961 OFFCURVE",
"889 941 OFFCURVE",
"864 918 CURVE",
"834 947 OFFCURVE",
"819 969 OFFCURVE",
"819 982 CURVE SMOOTH",
"819 1002 OFFCURVE",
"833 1012 OFFCURVE",
"861 1012 CURVE SMOOTH",
"888 1012 OFFCURVE",
"902 1001 OFFCURVE",
"902 978 CURVE SMOOTH"
);
}
);
width = 1300;
},
{
layerId = "A36153DC-C9CC-437F-8D19-86D84E7E38EA";
paths = (
{
closed = 1;
nodes = (
"140 0 LINE",
"479 0 LINE",
"651 160 LINE",
"822 0 LINE",
"1160 0 LINE",
"1160 630 LINE",
"1027 791 LINE",
"1082 836 OFFCURVE",
"1110 892 OFFCURVE",
"1110 958 CURVE SMOOTH",
"1110 1073 OFFCURVE",
"1027 1130 OFFCURVE",
"861 1130 CURVE SMOOTH",
"727 1130 OFFCURVE",
"649 1096 OFFCURVE",
"628 1028 CURVE SMOOTH",
"622 1009 OFFCURVE",
"619 988 OFFCURVE",
"619 963 CURVE SMOOTH",
"619 930 OFFCURVE",
"631 897 OFFCURVE",
"655 864 CURVE",
"648 863 OFFCURVE",
"636 863 OFFCURVE",
"620 863 CURVE SMOOTH",
"505 863 OFFCURVE",
"448 906 OFFCURVE",
"448 992 CURVE SMOOTH",
"448 1340 LINE",
"140 1340 LINE",
"140 992 LINE SMOOTH",
"140 781 OFFCURVE",
"300 675 OFFCURVE",
"620 675 CURVE SMOOTH",
"668 675 OFFCURVE",
"727 678 OFFCURVE",
"796 685 CURVE",
"852 560 LINE",
"852 265 LINE",
"651 425 LINE",
"448 264 LINE",
"448 610 LINE",
"50 610 LINE",
"50 466 LINE",
"140 466 LINE"
);
},
{
closed = 1;
nodes = (
"912 941 OFFCURVE",
"896 921 OFFCURVE",
"864 898 CURVE",
"827 927 OFFCURVE",
"809 948 OFFCURVE",
"809 962 CURVE SMOOTH",
"809 982 OFFCURVE",
"826 992 OFFCURVE",
"861 992 CURVE SMOOTH",
"895 992 OFFCURVE",
"912 981 OFFCURVE",
"912 958 CURVE SMOOTH"
);
}
);
width = 1300;
},
{
layerId = "607A0539-44D7-4182-901A-4BFA5CCC01F8";
paths = (
{
closed = 1;
nodes = (
"678 863 OFFCURVE",
"666 863 OFFCURVE",
"650 863 CURVE SMOOTH",
"475 863 OFFCURVE",
"388 906 OFFCURVE",
"388 992 CURVE SMOOTH",
"388 1340 LINE",
"200 1340 LINE",
"200 992 LINE SMOOTH",
"200 814 OFFCURVE",
"350 725 OFFCURVE",
"650 725 CURVE SMOOTH",
"697 725 OFFCURVE",
"745 728 OFFCURVE",
"796 735 CURVE",
"912 610 LINE",
"912 167 LINE",
"651 405 LINE",
"388 166 LINE",
"388 660 LINE",
"100 660 LINE",
"100 516 LINE",
"200 516 LINE",
"200 0 LINE",
"419 0 LINE",
"651 210 LINE",
"882 0 LINE",
"1100 0 LINE",
"1100 660 LINE",
"977 791 LINE",
"1026 836 OFFCURVE",
"1050 895 OFFCURVE",
"1050 968 CURVE SMOOTH",
"1050 1076 OFFCURVE",
"987 1130 OFFCURVE",
"861 1130 CURVE SMOOTH",
"747 1130 OFFCURVE",
"679 1096 OFFCURVE",
"658 1028 CURVE SMOOTH",
"652 1009 OFFCURVE",
"649 991 OFFCURVE",
"649 973 CURVE SMOOTH",
"649 934 OFFCURVE",
"661 897 OFFCURVE",
"685 864 CURVE"
);
},
{
closed = 1;
nodes = (
"827 927 OFFCURVE",
"809 951 OFFCURVE",
"809 972 CURVE SMOOTH",
"809 999 OFFCURVE",
"826 1012 OFFCURVE",
"861 1012 CURVE SMOOTH",
"895 1012 OFFCURVE",
"912 997 OFFCURVE",
"912 968 CURVE SMOOTH",
"912 945 OFFCURVE",
"896 921 OFFCURVE",
"864 898 CURVE"
);
}
);
width = 1300;
},
{
layerId = "DF847F4E-D23C-40FA-8597-1D02BA148938";
paths = (
{
closed = 1;
nodes = (
"348 0 LINE",
"650 277 LINE",
"952 0 LINE",
"1070 0 LINE",
"1070 647 LINE",
"917 814 LINE",
"978 843 OFFCURVE",
"1013 894 OFFCURVE",
"1020 968 CURVE",
"1020 1076 OFFCURVE",
"963 1130 OFFCURVE",
"850 1130 CURVE SMOOTH",
"736 1130 OFFCURVE",
"679 1078 OFFCURVE",
"679 973 CURVE SMOOTH",
"679 943 OFFCURVE",
"703 902 OFFCURVE",
"752 849 CURVE",
"715 832 OFFCURVE",
"671 823 OFFCURVE",
"620 823 CURVE SMOOTH",
"439 823 OFFCURVE",
"348 879 OFFCURVE",
"348 992 CURVE SMOOTH",
"348 1340 LINE",
"230 1340 LINE",
"230 992 LINE SMOOTH",
"230 814 OFFCURVE",
"360 725 OFFCURVE",
"620 725 CURVE SMOOTH",
"684 725 OFFCURVE",
"751 741 OFFCURVE",
"821 772 CURVE",
"952 630 LINE",
"952 134 LINE",
"650 411 LINE",
"348 134 LINE",
"348 660 LINE",
"130 660 LINE",
"130 556 LINE",
"230 556 LINE",
"230 0 LINE"
);
},
{
closed = 1;
nodes = (
"922 944 OFFCURVE",
"897 919 OFFCURVE",
"846 892 CURVE",
"808 931 OFFCURVE",
"789 958 OFFCURVE",
"789 972 CURVE SMOOTH",
"789 1019 OFFCURVE",
"811 1042 OFFCURVE",
"856 1042 CURVE SMOOTH",
"900 1042 OFFCURVE",
"922 1017 OFFCURVE",
"922 968 CURVE SMOOTH"
);
}
);
width = 1300;
},
{
layerId = "3BE6379C-89A1-45B5-97C8-F079248A4F49";
paths = (
{
closed = 1;
nodes = (
"260 596 LINE",
"260 0 LINE",
"318 0 LINE",
"650 280 LINE",
"982 0 LINE",
"1040 0 LINE",
"1040 654 LINE",
"882 823 LINE",
"967 869 OFFCURVE",
"1010 924 OFFCURVE",
"1010 988 CURVE SMOOTH",
"1010 1083 OFFCURVE",
"960 1130 OFFCURVE",
"861 1130 CURVE SMOOTH",
"761 1130 OFFCURVE",
"711 1084 OFFCURVE",
"711 993 CURVE SMOOTH",
"711 943 OFFCURVE",
"736 892 OFFCURVE",
"787 839 CURVE",
"741 815 OFFCURVE",
"675 803 OFFCURVE",
"590 803 CURVE SMOOTH",
"409 803 OFFCURVE",
"318 866 OFFCURVE",
"318 992 CURVE SMOOTH",
"318 1340 LINE",
"260 1340 LINE",
"260 992 LINE SMOOTH",
"260 827 OFFCURVE",
"370 745 OFFCURVE",
"590 745 CURVE SMOOTH",
"685 745 OFFCURVE",
"764 761 OFFCURVE",
"829 794 CURVE",
"982 630 LINE",
"982 76 LINE",
"650 353 LINE",
"318 76 LINE",
"318 660 LINE",
"140 660 LINE",
"140 596 LINE"
);
},
{
closed = 1;
nodes = (
"952 947 OFFCURVE",
"915 907 OFFCURVE",
"841 868 CURVE",
"793 917 OFFCURVE",
"769 959 OFFCURVE",
"769 992 CURVE SMOOTH",
"769 1045 OFFCURVE",
"800 1072 OFFCURVE",
"861 1072 CURVE SMOOTH",
"922 1072 OFFCURVE",
"952 1044 OFFCURVE",
"952 988 CURVE SMOOTH"
);
}
);
width = 1300;
}
);
note = uni1784;
unicode = 1784;
},
{
glyphname = uni1785;
lastChange = "2021-05-28 12:58:35 +0000";
layers = (
{
layerId = "372009DC-CA12-41C8-98C7-C44FC6D5F55D";
paths = (
{
closed = 1;
nodes = (
"700 820 LINE",
"700 582 LINE",
"822 582 LINE",
"822 323 LINE SMOOTH",
"822 260 OFFCURVE",
"765 228 OFFCURVE",
"650 228 CURVE SMOOTH",
"535 228 OFFCURVE",
"478 260 OFFCURVE",
"478 323 CURVE SMOOTH",
"478 714 LINE SMOOTH",
"478 747 OFFCURVE",
"435 805 OFFCURVE",
"348 890 CURVE",
"348 932 LINE",
"1190 932 LINE",
"1190 1160 LINE",
"258 1160 LINE SMOOTH",
"113 1160 OFFCURVE",
"40 1097 OFFCURVE",
"40 972 CURVE SMOOTH",
"40 847 LINE",
"110 714 LINE",
"110 323 LINE SMOOTH",
"110 108 OFFCURVE",
"290 0 OFFCURVE",
"650 0 CURVE SMOOTH",
"1010 0 OFFCURVE",
"1190 108 OFFCURVE",
"1190 323 CURVE SMOOTH",
"1190 820 LINE"
);
}
);
width = 1300;
},
{
layerId = "A36153DC-C9CC-437F-8D19-86D84E7E38EA";
paths = (
{
closed = 1;
nodes = (
"852 240 OFFCURVE",
"785 198 OFFCURVE",
"650 198 CURVE SMOOTH",
"515 198 OFFCURVE",
"448 240 OFFCURVE",
"448 323 CURVE SMOOTH",
"448 714 LINE SMOOTH",
"448 746 OFFCURVE",
"405 805 OFFCURVE",
"318 890 CURVE",
"318 932 LINE",
"1160 932 LINE",
"1160 1130 LINE",
"258 1130 LINE SMOOTH",
"126 1130 OFFCURVE",
"60 1077 OFFCURVE",
"60 972 CURVE SMOOTH",
"60 847 LINE",
"140 714 LINE",
"140 323 LINE SMOOTH",
"140 108 OFFCURVE",
"310 0 OFFCURVE",
"650 0 CURVE SMOOTH",
"990 0 OFFCURVE",
"1160 108 OFFCURVE",
"1160 323 CURVE SMOOTH",
"1160 820 LINE",
"700 820 LINE",
"700 612 LINE",
"852 612 LINE",
"852 323 LINE SMOOTH"
);
}
);
width = 1300;
},
{
layerId = "607A0539-44D7-4182-901A-4BFA5CCC01F8";
paths = (
{
closed = 1;
nodes = (
"912 200 OFFCURVE",
"825 138 OFFCURVE",
"650 138 CURVE SMOOTH",
"475 138 OFFCURVE",
"388 200 OFFCURVE",
"388 323 CURVE SMOOTH",
"388 734 LINE SMOOTH",
"388 766 OFFCURVE",
"345 825 OFFCURVE",
"258 910 CURVE",
"258 992 LINE",
"1100 992 LINE",
"1100 1130 LINE",
"258 1130 LINE SMOOTH",
"153 1130 OFFCURVE",
"100 1084 OFFCURVE",
"100 992 CURVE SMOOTH",
"100 867 LINE",
"200 734 LINE",
"200 323 LINE SMOOTH",
"200 108 OFFCURVE",
"350 0 OFFCURVE",
"650 0 CURVE SMOOTH",
"950 0 OFFCURVE",
"1100 108 OFFCURVE",
"1100 323 CURVE SMOOTH",
"1100 840 LINE",
"700 840 LINE",
"700 672 LINE",
"912 672 LINE",
"912 323 LINE SMOOTH"
);
}
);
width = 1300;
},
{
layerId = "DF847F4E-D23C-40FA-8597-1D02BA148938";
paths = (
{
closed = 1;
nodes = (
"952 173 OFFCURVE",
"851 98 OFFCURVE",
"650 98 CURVE SMOOTH",
"449 98 OFFCURVE",
"348 173 OFFCURVE",
"348 323 CURVE SMOOTH",
"348 714 LINE SMOOTH",
"348 759 OFFCURVE",
"323 803 OFFCURVE",
"273 846 CURVE SMOOTH",
"198 910 LINE",
"198 992 LINE SMOOTH",
"198 1019 OFFCURVE",
"215 1032 OFFCURVE",
"248 1032 CURVE SMOOTH",
"1070 1032 LINE",
"1070 1130 LINE",
"248 1130 LINE SMOOTH",
"149 1130 OFFCURVE",
"100 1084 OFFCURVE",
"100 992 CURVE SMOOTH",
"100 867 LINE",
"198 775 LINE SMOOTH",
"219 754 OFFCURVE",
"230 734 OFFCURVE",
"230 714 CURVE SMOOTH",
"230 323 LINE SMOOTH",
"230 108 OFFCURVE",
"370 0 OFFCURVE",
"650 0 CURVE SMOOTH",
"930 0 OFFCURVE",
"1070 108 OFFCURVE",
"1070 323 CURVE SMOOTH",
"1070 840 LINE",
"700 840 LINE",
"700 732 LINE",
"952 732 LINE",
"952 323 LINE SMOOTH"
);
}
);
width = 1300;
},
{
layerId = "3BE6379C-89A1-45B5-97C8-F079248A4F49";
paths = (
{
closed = 1;
nodes = (
"982 782 LINE",
"982 323 LINE SMOOTH",
"982 146 OFFCURVE",
"871 58 OFFCURVE",
"650 58 CURVE SMOOTH",
"429 58 OFFCURVE",
"318 146 OFFCURVE",
"318 323 CURVE SMOOTH",
"318 714 LINE SMOOTH",
"318 761 OFFCURVE",
"291 804 OFFCURVE",
"238 842 CURVE SMOOTH",
"158 899 LINE",
"158 992 LINE SMOOTH",
"158 1045 OFFCURVE",
"188 1072 OFFCURVE",
"248 1072 CURVE SMOOTH",
"1040 1072 LINE",
"1040 1130 LINE",
"248 1130 LINE SMOOTH",
"149 1130 OFFCURVE",
"100 1084 OFFCURVE",
"100 992 CURVE SMOOTH",
"100 869 LINE",
"200 797 LINE SMOOTH",
"240 768 OFFCURVE",
"260 741 OFFCURVE",
"260 714 CURVE SMOOTH",
"260 323 LINE SMOOTH",
"260 108 OFFCURVE",
"390 0 OFFCURVE",
"650 0 CURVE SMOOTH",
"910 0 OFFCURVE",
"1040 108 OFFCURVE",
"1040 323 CURVE SMOOTH",
"1040 840 LINE",
"700 840 LINE",
"700 782 LINE"
);
}
);
width = 1300;
}
);
note = uni1785;
unicode = 1785;
},
{
glyphname = uni1786;
lastChange = "2021-05-28 12:58:35 +0000";
layers = (
{
layerId = "372009DC-CA12-41C8-98C7-C44FC6D5F55D";
paths = (
{
closed = 1;
nodes = (
"110 714 LINE",
"110 430 LINE",
"40 430 LINE",
"40 172 LINE",
"110 172 LINE",
"110 0 LINE",
"478 0 LINE",
"478 179 LINE",
"579 60 OFFCURVE",
"677 0 OFFCURVE",
"770 0 CURVE SMOOTH",
"1050 0 OFFCURVE",
"1190 108 OFFCURVE",
"1190 323 CURVE SMOOTH",
"1190 820 LINE",
"700 820 LINE",
"700 582 LINE",
"822 582 LINE",
"822 323 LINE SMOOTH",
"822 260 OFFCURVE",
"805 228 OFFCURVE",
"770 228 CURVE SMOOTH",
"729 228 OFFCURVE",
"655 295 OFFCURVE",
"548 430 CURVE",
"478 430 LINE",
"478 714 LINE SMOOTH",
"478 747 OFFCURVE",
"435 805 OFFCURVE",
"348 890 CURVE",
"348 932 LINE",
"1190 932 LINE",
"1190 1160 LINE",
"258 1160 LINE SMOOTH",
"113 1160 OFFCURVE",
"40 1097 OFFCURVE",
"40 972 CURVE SMOOTH",
"40 847 LINE"
);
}
);
width = 1300;
},
{
layerId = "A36153DC-C9CC-437F-8D19-86D84E7E38EA";
paths = (
{
closed = 1;
nodes = (
"140 714 LINE",
"140 400 LINE",
"60 400 LINE",
"60 172 LINE",
"140 172 LINE",
"140 0 LINE",
"448 0 LINE",
"448 179 LINE",
"549 60 OFFCURVE",
"657 0 OFFCURVE",
"770 0 CURVE SMOOTH",
"1030 0 OFFCURVE",
"1160 108 OFFCURVE",
"1160 323 CURVE SMOOTH",
"1160 820 LINE",
"700 820 LINE",
"700 612 LINE",
"852 612 LINE",
"852 323 LINE SMOOTH",
"852 240 OFFCURVE",
"825 198 OFFCURVE",
"770 198 CURVE SMOOTH",
"709 198 OFFCURVE",
"625 265 OFFCURVE",
"518 400 CURVE",
"448 400 LINE",
"448 714 LINE SMOOTH",
"448 747 OFFCURVE",
"405 805 OFFCURVE",
"318 890 CURVE",
"318 932 LINE",
"1160 932 LINE",
"1160 1130 LINE",
"258 1130 LINE SMOOTH",
"126 1130 OFFCURVE",
"60 1077 OFFCURVE",
"60 972 CURVE SMOOTH",
"60 847 LINE"
);
}
);
width = 1300;
},
{
layerId = "607A0539-44D7-4182-901A-4BFA5CCC01F8";
paths = (
{
closed = 1;
nodes = (
"388 734 LINE SMOOTH",
"388 767 OFFCURVE",
"345 825 OFFCURVE",
"258 910 CURVE",
"258 992 LINE",
"1100 992 LINE",
"1100 1130 LINE",
"258 1130 LINE SMOOTH",
"153 1130 OFFCURVE",
"100 1084 OFFCURVE",
"100 992 CURVE SMOOTH",
"100 867 LINE",
"200 734 LINE",
"200 400 LINE",
"100 400 LINE",
"100 232 LINE",
"200 232 LINE",
"200 0 LINE",
"388 0 LINE",
"388 239 LINE",
"529 80 OFFCURVE",
"657 0 OFFCURVE",
"770 0 CURVE SMOOTH",
"990 0 OFFCURVE",
"1100 108 OFFCURVE",
"1100 323 CURVE SMOOTH",
"1100 840 LINE",
"700 840 LINE",
"700 672 LINE",
"912 672 LINE",
"912 323 LINE SMOOTH",
"912 200 OFFCURVE",
"865 138 OFFCURVE",
"770 138 CURVE SMOOTH",
"709 138 OFFCURVE",
"615 225 OFFCURVE",
"488 400 CURVE",
"388 400 LINE"
);
}
);
width = 1300;
},
{
layerId = "DF847F4E-D23C-40FA-8597-1D02BA148938";
paths = (
{
closed = 1;
nodes = (
"952 732 LINE",
"952 323 LINE SMOOTH",
"952 173 OFFCURVE",
"898 98 OFFCURVE",
"790 98 CURVE SMOOTH",
"715 98 OFFCURVE",
"608 192 OFFCURVE",
"468 380 CURVE",
"348 380 LINE",
"348 714 LINE SMOOTH",
"348 759 OFFCURVE",
"323 803 OFFCURVE",
"273 846 CURVE SMOOTH",
"198 910 LINE",
"198 992 LINE SMOOTH",
"198 1019 OFFCURVE",
"215 1032 OFFCURVE",
"248 1032 CURVE SMOOTH",
"1070 1032 LINE",
"1070 1130 LINE",
"248 1130 LINE SMOOTH",
"149 1130 OFFCURVE",
"100 1084 OFFCURVE",
"100 992 CURVE SMOOTH",
"100 867 LINE",
"198 775 LINE SMOOTH",
"219 754 OFFCURVE",
"230 733 OFFCURVE",
"230 714 CURVE SMOOTH",
"230 380 LINE",
"100 380 LINE",
"100 282 LINE",
"230 282 LINE",
"230 0 LINE",
"348 0 LINE",
"348 289 LINE",
"418 289 LINE",
"559 96 OFFCURVE",
"683 0 OFFCURVE",
"790 0 CURVE SMOOTH",
"977 0 OFFCURVE",
"1070 108 OFFCURVE",
"1070 323 CURVE SMOOTH",
"1070 840 LINE",
"700 840 LINE",
"700 732 LINE"
);
}
);
width = 1300;
},
{
layerId = "3BE6379C-89A1-45B5-97C8-F079248A4F49";
paths = (
{
closed = 1;
nodes = (
"100 380 LINE",
"100 322 LINE",
"260 322 LINE",
"260 0 LINE",
"318 0 LINE",
"318 329 LINE",
"428 329 LINE",
"569 110 OFFCURVE",
"697 0 OFFCURVE",
"810 0 CURVE SMOOTH",
"963 0 OFFCURVE",
"1040 108 OFFCURVE",
"1040 323 CURVE SMOOTH",
"1040 840 LINE",
"700 840 LINE",
"700 782 LINE",
"982 782 LINE",
"982 323 LINE SMOOTH",
"982 146 OFFCURVE",
"925 58 OFFCURVE",
"810 58 CURVE SMOOTH",
"715 58 OFFCURVE",
"598 165 OFFCURVE",
"458 380 CURVE",
"318 380 LINE",
"318 714 LINE SMOOTH",
"318 761 OFFCURVE",
"291 804 OFFCURVE",
"238 842 CURVE SMOOTH",
"158 899 LINE",
"158 992 LINE SMOOTH",
"158 1045 OFFCURVE",
"188 1072 OFFCURVE",
"248 1072 CURVE SMOOTH",
"1040 1072 LINE",
"1040 1130 LINE",
"248 1130 LINE SMOOTH",
"149 1130 OFFCURVE",
"100 1084 OFFCURVE",
"100 992 CURVE SMOOTH",
"100 869 LINE",
"200 797 LINE SMOOTH",
"240 768 OFFCURVE",
"260 741 OFFCURVE",
"260 714 CURVE SMOOTH",
"260 380 LINE"
);
}
);
width = 1300;
}
);
note = uni1786;
unicode = 1786;
},
{
glyphname = uni1787;
lastChange = "2021-05-28 12:58:35 +0000";
layers = (
{
layerId = "372009DC-CA12-41C8-98C7-C44FC6D5F55D";
paths = (
{
closed = 1;
nodes = (
"651 160 LINE",
"792 0 LINE",
"1190 0 LINE",
"1190 780 LINE",
"822 780 LINE",
"822 295 LINE",
"651 455 LINE",
"478 294 LINE",
"478 714 LINE SMOOTH",
"478 747 OFFCURVE",
"435 805 OFFCURVE",
"348 890 CURVE",
"348 932 LINE",
"385 932 LINE SMOOTH",
"405 932 OFFCURVE",
"458 922 OFFCURVE",
"543 902 CURVE SMOOTH",
"615 882 OFFCURVE",
"684 872 OFFCURVE",
"750 872 CURVE SMOOTH",
"1043 872 OFFCURVE",
"1190 983 OFFCURVE",
"1190 1205 CURVE SMOOTH",
"1190 1280 LINE",
"822 1280 LINE",
"822 1205 LINE SMOOTH",
"822 1135 OFFCURVE",
"795 1100 OFFCURVE",
"740 1100 CURVE SMOOTH",
"633 1100 OFFCURVE",
"554 1110 OFFCURVE",
"501 1130 CURVE",
"435 1150 OFFCURVE",
"386 1160 OFFCURVE",
"355 1160 CURVE SMOOTH",
"258 1160 LINE SMOOTH",
"113 1160 OFFCURVE",
"40 1097 OFFCURVE",
"40 972 CURVE SMOOTH",
"40 847 LINE",
"110 714 LINE",
"110 0 LINE",
"509 0 LINE"
);
}
);
width = 1300;
},
{
layerId = "A36153DC-C9CC-437F-8D19-86D84E7E38EA";
paths = (
{
closed = 1;
nodes = (
"852 780 LINE",
"852 265 LINE",
"651 425 LINE",
"448 264 LINE",
"448 714 LINE SMOOTH",
"448 747 OFFCURVE",
"405 805 OFFCURVE",
"318 890 CURVE",
"318 932 LINE",
"355 932 LINE SMOOTH",
"376 932 OFFCURVE",
"428 922 OFFCURVE",
"513 902 CURVE SMOOTH",
"598 882 OFFCURVE",
"684 872 OFFCURVE",
"770 872 CURVE SMOOTH",
"1030 872 OFFCURVE",
"1160 973 OFFCURVE",
"1160 1175 CURVE SMOOTH",
"1160 1280 LINE",
"852 1280 LINE",
"852 1175 LINE SMOOTH",
"852 1105 OFFCURVE",
"821 1070 OFFCURVE",
"760 1070 CURVE SMOOTH",
"653 1070 OFFCURVE",
"567 1080 OFFCURVE",
"501 1100 CURVE SMOOTH",
"435 1120 OFFCURVE",
"386 1130 OFFCURVE",
"355 1130 CURVE SMOOTH",
"258 1130 LINE SMOOTH",
"126 1130 OFFCURVE",
"60 1077 OFFCURVE",
"60 972 CURVE SMOOTH",
"60 847 LINE",
"140 714 LINE",
"140 0 LINE",
"479 0 LINE",
"651 160 LINE",
"822 0 LINE",
"1160 0 LINE",
"1160 780 LINE"
);
}
);
width = 1300;
},
{
layerId = "607A0539-44D7-4182-901A-4BFA5CCC01F8";
paths = (
{
closed = 1;
nodes = (
"388 166 LINE",
"388 734 LINE SMOOTH",
"388 767 OFFCURVE",
"345 825 OFFCURVE",
"258 910 CURVE",
"258 992 LINE",
"355 992 LINE SMOOTH",
"376 992 OFFCURVE",
"428 982 OFFCURVE",
"513 962 CURVE SMOOTH",
"598 942 OFFCURVE",
"684 932 OFFCURVE",
"770 932 CURVE SMOOTH",
"990 932 OFFCURVE",
"1100 1013 OFFCURVE",
"1100 1175 CURVE SMOOTH",
"1100 1280 LINE",
"912 1280 LINE",
"912 1175 LINE SMOOTH",
"912 1105 OFFCURVE",
"861 1070 OFFCURVE",
"760 1070 CURVE SMOOTH",
"653 1070 OFFCURVE",
"567 1080 OFFCURVE",
"501 1100 CURVE SMOOTH",
"435 1120 OFFCURVE",
"386 1130 OFFCURVE",
"355 1130 CURVE SMOOTH",
"258 1130 LINE SMOOTH",
"153 1130 OFFCURVE",
"100 1084 OFFCURVE",
"100 992 CURVE SMOOTH",
"100 867 LINE",
"200 734 LINE",
"200 0 LINE",
"419 0 LINE",
"651 210 LINE",
"882 0 LINE",
"1100 0 LINE",
"1100 800 LINE",
"912 800 LINE",
"912 167 LINE",
"651 405 LINE"
);
}
);
width = 1300;
},
{
layerId = "DF847F4E-D23C-40FA-8597-1D02BA148938";
paths = (
{
closed = 1;
nodes = (
"952 840 LINE",
"952 134 LINE",
"650 411 LINE",
"348 134 LINE",
"348 714 LINE SMOOTH",
"348 759 OFFCURVE",
"323 803 OFFCURVE",
"273 846 CURVE SMOOTH",
"198 910 LINE",
"198 992 LINE SMOOTH",
"198 1019 OFFCURVE",
"215 1032 OFFCURVE",
"248 1032 CURVE SMOOTH",
"355 1032 LINE SMOOTH",
"376 1032 OFFCURVE",
"428 1022 OFFCURVE",
"513 1002 CURVE SMOOTH",
"598 982 OFFCURVE",
"684 972 OFFCURVE",
"770 972 CURVE SMOOTH",
"970 972 OFFCURVE",
"1070 1040 OFFCURVE",
"1070 1175 CURVE SMOOTH",
"1070 1280 LINE",
"952 1280 LINE",
"952 1175 LINE SMOOTH",
"952 1105 OFFCURVE",
"888 1070 OFFCURVE",
"760 1070 CURVE SMOOTH",
"653 1070 OFFCURVE",
"567 1080 OFFCURVE",
"501 1100 CURVE SMOOTH",
"435 1120 OFFCURVE",
"386 1130 OFFCURVE",
"355 1130 CURVE SMOOTH",
"248 1130 LINE SMOOTH",
"149 1130 OFFCURVE",
"100 1084 OFFCURVE",
"100 992 CURVE SMOOTH",
"100 867 LINE",
"198 775 LINE SMOOTH",
"219 754 OFFCURVE",
"230 733 OFFCURVE",
"230 714 CURVE SMOOTH",
"230 0 LINE",
"348 0 LINE",
"650 277 LINE",
"952 0 LINE",
"1070 0 LINE",
"1070 840 LINE"
);
}
);
width = 1300;
},
{
layerId = "3BE6379C-89A1-45B5-97C8-F079248A4F49";
paths = (
{
closed = 1;
nodes = (
"149 1130 OFFCURVE",
"100 1084 OFFCURVE",
"100 992 CURVE SMOOTH",
"100 869 LINE",
"200 797 LINE SMOOTH",
"240 768 OFFCURVE",
"260 741 OFFCURVE",
"260 714 CURVE SMOOTH",
"260 0 LINE",
"318 0 LINE",
"650 280 LINE",
"982 0 LINE",
"1040 0 LINE",
"1040 840 LINE",
"982 840 LINE",
"982 76 LINE",
"650 353 LINE",
"318 76 LINE",
"318 714 LINE SMOOTH",
"318 761 OFFCURVE",
"291 804 OFFCURVE",
"238 842 CURVE SMOOTH",
"158 899 LINE",
"158 992 LINE SMOOTH",
"158 1045 OFFCURVE",
"188 1072 OFFCURVE",
"248 1072 CURVE SMOOTH",
"355 1072 LINE SMOOTH",
"376 1072 OFFCURVE",
"429 1059 OFFCURVE",
"513 1032 CURVE SMOOTH",
"597 1005 OFFCURVE",
"683 992 OFFCURVE",
"770 992 CURVE SMOOTH",
"950 992 OFFCURVE",
"1040 1053 OFFCURVE",
"1040 1175 CURVE SMOOTH",
"1040 1280 LINE",
"982 1280 LINE",
"982 1175 LINE SMOOTH",
"982 1092 OFFCURVE",
"908 1050 OFFCURVE",
"760 1050 CURVE SMOOTH",
"653 1050 OFFCURVE",
"566 1063 OFFCURVE",
"501 1090 CURVE SMOOTH",
"436 1117 OFFCURVE",
"387 1130 OFFCURVE",
"355 1130 CURVE SMOOTH",
"248 1130 LINE SMOOTH"
);
}
);
width = 1300;
}
);
note = uni1787;
unicode = 1787;
},
{
glyphname = uni1788;
lastChange = "2021-05-28 12:58:35 +0000";
layers = (
{
layerId = "372009DC-CA12-41C8-98C7-C44FC6D5F55D";
paths = (
{
closed = 1;
nodes = (
"2096 704 LINE",
"2096 323 LINE SMOOTH",
"2096 260 OFFCURVE",
"2047 228 OFFCURVE",
"1949 228 CURVE SMOOTH",
"1851 228 OFFCURVE",
"1802 260 OFFCURVE",
"1802 323 CURVE SMOOTH",
"1802 704 LINE SMOOTH",
"1802 749 OFFCURVE",
"1769 790 OFFCURVE",
"1702 826 CURVE SMOOTH",
"1602 880 LINE",
"1602 932 LINE",
"1802 932 LINE",
"1802 1160 LINE",
"1512 1160 LINE SMOOTH",
"1360 1160 OFFCURVE",
"1284 1084 OFFCURVE",
"1284 932 CURVE SMOOTH",
"1284 827 LINE",
"1434 704 LINE",
"1434 323 LINE SMOOTH",
"1434 260 OFFCURVE",
"1385 228 OFFCURVE",
"1287 228 CURVE SMOOTH",
"1189 228 OFFCURVE",
"1140 260 OFFCURVE",
"1140 323 CURVE SMOOTH",
"1140 807 LINE SMOOTH",
"1140 1042 OFFCURVE",
"968 1160 OFFCURVE",
"625 1160 CURVE SMOOTH",
"282 1160 OFFCURVE",
"110 1042 OFFCURVE",
"110 807 CURVE SMOOTH",
"110 298 LINE SMOOTH",
"110 99 OFFCURVE",
"230 0 OFFCURVE",
"470 0 CURVE SMOOTH",
"600 0 LINE",
"600 228 LINE",
"530 228 LINE SMOOTH",
"495 228 OFFCURVE",
"478 251 OFFCURVE",
"478 298 CURVE SMOOTH",
"478 807 LINE SMOOTH",
"478 890 OFFCURVE",
"527 932 OFFCURVE",
"625 932 CURVE SMOOTH",
"723 932 OFFCURVE",
"772 890 OFFCURVE",
"772 807 CURVE SMOOTH",
"772 323 LINE SMOOTH",
"772 108 OFFCURVE",
"944 0 OFFCURVE",
"1287 0 CURVE SMOOTH",
"1437 0 OFFCURVE",
"1547 30 OFFCURVE",
"1618 91 CURVE",
"1689 30 OFFCURVE",
"1799 0 OFFCURVE",
"1949 0 CURVE SMOOTH",
"2292 0 OFFCURVE",
"2464 108 OFFCURVE",
"2464 323 CURVE SMOOTH",
"2464 704 LINE SMOOTH",
"2464 749 OFFCURVE",
"2431 790 OFFCURVE",
"2364 826 CURVE SMOOTH",
"2264 880 LINE",
"2264 932 LINE",
"2464 932 LINE",
"2464 1160 LINE",
"2174 1160 LINE SMOOTH",
"2022 1160 OFFCURVE",
"1946 1084 OFFCURVE",
"1946 932 CURVE SMOOTH",
"1946 827 LINE"
);
}
);
width = 2574;
},
{
layerId = "A36153DC-C9CC-437F-8D19-86D84E7E38EA";
paths = (
{
closed = 1;
nodes = (
"2126 704 LINE",
"2126 323 LINE SMOOTH",
"2126 240 OFFCURVE",
"2067 198 OFFCURVE",
"1949 198 CURVE SMOOTH",
"1831 198 OFFCURVE",
"1772 240 OFFCURVE",
"1772 323 CURVE SMOOTH",
"1772 704 LINE SMOOTH",
"1772 749 OFFCURVE",
"1739 790 OFFCURVE",
"1672 826 CURVE SMOOTH",
"1572 880 LINE",
"1572 932 LINE",
"1772 932 LINE",
"1772 1130 LINE",
"1512 1130 LINE SMOOTH",
"1373 1130 OFFCURVE",
"1304 1064 OFFCURVE",
"1304 932 CURVE SMOOTH",
"1304 827 LINE",
"1464 704 LINE",
"1464 323 LINE SMOOTH",
"1464 240 OFFCURVE",
"1405 198 OFFCURVE",
"1287 198 CURVE SMOOTH",
"1169 198 OFFCURVE",
"1110 240 OFFCURVE",
"1110 323 CURVE SMOOTH",
"1110 807 LINE SMOOTH",
"1110 1022 OFFCURVE",
"948 1130 OFFCURVE",
"625 1130 CURVE SMOOTH",
"302 1130 OFFCURVE",
"140 1022 OFFCURVE",
"140 807 CURVE SMOOTH",
"140 298 LINE SMOOTH",
"140 99 OFFCURVE",
"250 0 OFFCURVE",
"470 0 CURVE SMOOTH",
"600 0 LINE",
"600 228 LINE",
"530 228 LINE SMOOTH",
"475 228 OFFCURVE",
"448 251 OFFCURVE",
"448 298 CURVE SMOOTH",
"448 807 LINE SMOOTH",
"448 890 OFFCURVE",
"507 932 OFFCURVE",
"625 932 CURVE SMOOTH",
"743 932 OFFCURVE",
"802 890 OFFCURVE",
"802 807 CURVE SMOOTH",
"802 323 LINE SMOOTH",
"802 108 OFFCURVE",
"964 0 OFFCURVE",
"1287 0 CURVE SMOOTH",
"1437 0 OFFCURVE",
"1547 30 OFFCURVE",
"1618 91 CURVE",
"1689 30 OFFCURVE",
"1799 0 OFFCURVE",
"1949 0 CURVE SMOOTH",
"2272 0 OFFCURVE",
"2434 108 OFFCURVE",
"2434 323 CURVE SMOOTH",
"2434 704 LINE SMOOTH",
"2434 749 OFFCURVE",
"2401 790 OFFCURVE",
"2334 826 CURVE SMOOTH",
"2234 880 LINE",
"2234 932 LINE",
"2434 932 LINE",
"2434 1130 LINE",
"2174 1130 LINE SMOOTH",
"2035 1130 OFFCURVE",
"1966 1064 OFFCURVE",
"1966 932 CURVE SMOOTH",
"1966 827 LINE"
);
}
);
width = 2574;
},
{
layerId = "607A0539-44D7-4182-901A-4BFA5CCC01F8";
paths = (
{
closed = 1;
nodes = (
"2186 734 LINE",
"2186 323 LINE SMOOTH",
"2186 200 OFFCURVE",
"2107 138 OFFCURVE",
"1949 138 CURVE SMOOTH",
"1791 138 OFFCURVE",
"1712 200 OFFCURVE",
"1712 323 CURVE SMOOTH",
"1712 734 LINE SMOOTH",
"1712 773 OFFCURVE",
"1679 812 OFFCURVE",
"1612 851 CURVE SMOOTH",
"1512 910 LINE",
"1512 992 LINE",
"1712 992 LINE",
"1712 1130 LINE",
"1512 1130 LINE SMOOTH",
"1393 1130 OFFCURVE",
"1334 1084 OFFCURVE",
"1334 992 CURVE SMOOTH",
"1334 857 LINE",
"1524 734 LINE",
"1524 323 LINE SMOOTH",
"1524 200 OFFCURVE",
"1445 138 OFFCURVE",
"1287 138 CURVE SMOOTH",
"1129 138 OFFCURVE",
"1050 200 OFFCURVE",
"1050 323 CURVE SMOOTH",
"1050 807 LINE SMOOTH",
"1050 1022 OFFCURVE",
"908 1130 OFFCURVE",
"625 1130 CURVE SMOOTH",
"342 1130 OFFCURVE",
"200 1022 OFFCURVE",
"200 807 CURVE SMOOTH",
"200 238 LINE SMOOTH",
"200 79 OFFCURVE",
"290 0 OFFCURVE",
"470 0 CURVE SMOOTH",
"600 0 LINE",
"600 168 LINE",
"470 168 LINE SMOOTH",
"415 168 OFFCURVE",
"388 191 OFFCURVE",
"388 238 CURVE SMOOTH",
"388 807 LINE SMOOTH",
"388 930 OFFCURVE",
"467 992 OFFCURVE",
"625 992 CURVE SMOOTH",
"783 992 OFFCURVE",
"862 930 OFFCURVE",
"862 807 CURVE SMOOTH",
"862 323 LINE SMOOTH",
"862 108 OFFCURVE",
"1004 0 OFFCURVE",
"1287 0 CURVE SMOOTH",
"1437 0 OFFCURVE",
"1547 30 OFFCURVE",
"1618 91 CURVE",
"1689 30 OFFCURVE",
"1799 0 OFFCURVE",
"1949 0 CURVE SMOOTH",
"2232 0 OFFCURVE",
"2374 108 OFFCURVE",
"2374 323 CURVE SMOOTH",
"2374 734 LINE SMOOTH",
"2374 773 OFFCURVE",
"2341 812 OFFCURVE",
"2274 851 CURVE SMOOTH",
"2174 910 LINE",
"2174 992 LINE",
"2374 992 LINE",
"2374 1130 LINE",
"2174 1130 LINE SMOOTH",
"2055 1130 OFFCURVE",
"1996 1084 OFFCURVE",
"1996 992 CURVE SMOOTH",
"1996 857 LINE"
);
}
);
width = 2574;
},
{
layerId = "DF847F4E-D23C-40FA-8597-1D02BA148938";
paths = (
{
closed = 1;
nodes = (
"1564 173 OFFCURVE",
"1473 98 OFFCURVE",
"1292 98 CURVE SMOOTH",
"1111 98 OFFCURVE",
"1020 173 OFFCURVE",
"1020 323 CURVE SMOOTH",
"1020 807 LINE SMOOTH",
"1020 1022 OFFCURVE",
"888 1130 OFFCURVE",
"625 1130 CURVE SMOOTH",
"362 1130 OFFCURVE",
"230 1022 OFFCURVE",
"230 807 CURVE SMOOTH",
"230 238 LINE SMOOTH",
"230 79 OFFCURVE",
"310 0 OFFCURVE",
"470 0 CURVE SMOOTH",
"600 0 LINE",
"600 108 LINE",
"470 108 LINE SMOOTH",
"389 108 OFFCURVE",
"348 151 OFFCURVE",
"348 238 CURVE SMOOTH",
"348 807 LINE SMOOTH",
"348 957 OFFCURVE",
"440 1032 OFFCURVE",
"625 1032 CURVE SMOOTH",
"810 1032 OFFCURVE",
"902 957 OFFCURVE",
"902 807 CURVE SMOOTH",
"902 323 LINE SMOOTH",
"902 108 OFFCURVE",
"1032 0 OFFCURVE",
"1292 0 CURVE SMOOTH",
"1451 0 OFFCURVE",
"1561 40 OFFCURVE",
"1623 121 CURVE",
"1685 40 OFFCURVE",
"1795 0 OFFCURVE",
"1954 0 CURVE SMOOTH",
"2214 0 OFFCURVE",
"2344 108 OFFCURVE",
"2344 323 CURVE SMOOTH",
"2344 714 LINE SMOOTH",
"2344 773 OFFCURVE",
"2311 820 OFFCURVE",
"2244 856 CURVE SMOOTH",
"2144 910 LINE",
"2144 992 LINE SMOOTH",
"2144 1019 OFFCURVE",
"2161 1032 OFFCURVE",
"2194 1032 CURVE SMOOTH",
"2344 1032 LINE",
"2344 1130 LINE",
"2194 1130 LINE SMOOTH",
"2089 1130 OFFCURVE",
"2036 1084 OFFCURVE",
"2036 992 CURVE SMOOTH",
"2036 857 LINE",
"2179 772 LINE SMOOTH",
"2210 753 OFFCURVE",
"2226 733 OFFCURVE",
"2226 714 CURVE SMOOTH",
"2226 323 LINE SMOOTH",
"2226 173 OFFCURVE",
"2135 98 OFFCURVE",
"1954 98 CURVE SMOOTH",
"1773 98 OFFCURVE",
"1682 173 OFFCURVE",
"1682 323 CURVE SMOOTH",
"1682 714 LINE SMOOTH",
"1682 773 OFFCURVE",
"1649 820 OFFCURVE",
"1582 856 CURVE SMOOTH",
"1482 910 LINE",
"1482 992 LINE SMOOTH",
"1482 1019 OFFCURVE",
"1499 1032 OFFCURVE",
"1532 1032 CURVE SMOOTH",
"1682 1032 LINE",
"1682 1130 LINE",
"1532 1130 LINE SMOOTH",
"1427 1130 OFFCURVE",
"1374 1084 OFFCURVE",
"1374 992 CURVE SMOOTH",
"1374 857 LINE",
"1517 772 LINE SMOOTH",
"1548 753 OFFCURVE",
"1564 733 OFFCURVE",
"1564 714 CURVE SMOOTH",
"1564 323 LINE SMOOTH"
);
}
);
width = 2574;
},
{
layerId = "3BE6379C-89A1-45B5-97C8-F079248A4F49";
paths = (
{
closed = 1;
nodes = (
"1594 146 OFFCURVE",
"1493 58 OFFCURVE",
"1292 58 CURVE SMOOTH",
"1091 58 OFFCURVE",
"990 146 OFFCURVE",
"990 323 CURVE SMOOTH",
"990 807 LINE SMOOTH",
"990 1022 OFFCURVE",
"868 1130 OFFCURVE",
"625 1130 CURVE SMOOTH",
"382 1130 OFFCURVE",
"260 1022 OFFCURVE",
"260 807 CURVE SMOOTH",
"260 238 LINE SMOOTH",
"260 79 OFFCURVE",
"330 0 OFFCURVE",
"470 0 CURVE SMOOTH",
"600 0 LINE",
"600 58 LINE",
"470 58 LINE SMOOTH",
"369 58 OFFCURVE",
"318 118 OFFCURVE",
"318 238 CURVE SMOOTH",
"318 807 LINE SMOOTH",
"318 984 OFFCURVE",
"420 1072 OFFCURVE",
"625 1072 CURVE SMOOTH",
"830 1072 OFFCURVE",
"932 984 OFFCURVE",
"932 807 CURVE SMOOTH",
"932 323 LINE SMOOTH",
"932 108 OFFCURVE",
"1052 0 OFFCURVE",
"1292 0 CURVE SMOOTH",
"1464 0 OFFCURVE",
"1574 55 OFFCURVE",
"1623 166 CURVE",
"1672 55 OFFCURVE",
"1782 0 OFFCURVE",
"1954 0 CURVE SMOOTH",
"2194 0 OFFCURVE",
"2314 108 OFFCURVE",
"2314 323 CURVE SMOOTH",
"2314 714 LINE SMOOTH",
"2314 751 OFFCURVE",
"2277 792 OFFCURVE",
"2204 837 CURVE SMOOTH",
"2094 903 LINE",
"2094 992 LINE SMOOTH",
"2094 1045 OFFCURVE",
"2127 1072 OFFCURVE",
"2194 1072 CURVE SMOOTH",
"2344 1072 LINE",
"2344 1130 LINE",
"2194 1130 LINE SMOOTH",
"2089 1130 OFFCURVE",
"2036 1084 OFFCURVE",
"2036 992 CURVE SMOOTH",
"2036 869 LINE",
"2174 786 LINE SMOOTH",
"2229 753 OFFCURVE",
"2256 729 OFFCURVE",
"2256 714 CURVE SMOOTH",
"2256 323 LINE SMOOTH",
"2256 146 OFFCURVE",
"2155 58 OFFCURVE",
"1954 58 CURVE SMOOTH",
"1753 58 OFFCURVE",
"1652 146 OFFCURVE",
"1652 323 CURVE SMOOTH",
"1652 714 LINE SMOOTH",
"1652 751 OFFCURVE",
"1615 792 OFFCURVE",
"1542 837 CURVE SMOOTH",
"1432 903 LINE",
"1432 992 LINE SMOOTH",
"1432 1045 OFFCURVE",
"1465 1072 OFFCURVE",
"1532 1072 CURVE SMOOTH",
"1682 1072 LINE",
"1682 1130 LINE",
"1532 1130 LINE SMOOTH",
"1427 1130 OFFCURVE",
"1374 1084 OFFCURVE",
"1374 992 CURVE SMOOTH",
"1374 869 LINE",
"1512 786 LINE SMOOTH",
"1567 753 OFFCURVE",
"1594 729 OFFCURVE",
"1594 714 CURVE SMOOTH",
"1594 323 LINE SMOOTH"
);
}
);
width = 2574;
}
);
note = uni1788;
unicode = 1788;
},
{
glyphname = uni1789;
lastChange = "2021-05-28 12:58:35 +0000";
layers = (
{
layerId = "372009DC-CA12-41C8-98C7-C44FC6D5F55D";
paths = (
{
closed = 1;
nodes = (
"1058 1129 OFFCURVE",
"982 1160 OFFCURVE",
"877 1160 CURVE SMOOTH",
"800 1160 OFFCURVE",
"725 1119 OFFCURVE",
"650 1036 CURVE",
"576 1119 OFFCURVE",
"501 1160 OFFCURVE",
"425 1160 CURVE SMOOTH",
"215 1160 OFFCURVE",
"110 1051 OFFCURVE",
"110 833 CURVE SMOOTH",
"110 298 LINE SMOOTH",
"110 99 OFFCURVE",
"230 0 OFFCURVE",
"470 0 CURVE SMOOTH",
"600 0 LINE",
"600 228 LINE",
"530 228 LINE SMOOTH",
"495 228 OFFCURVE",
"478 251 OFFCURVE",
"478 298 CURVE SMOOTH",
"478 833 LINE SMOOTH",
"478 878 OFFCURVE",
"483 900 OFFCURVE",
"494 900 CURVE SMOOTH",
"505 900 OFFCURVE",
"537 869 OFFCURVE",
"591 806 CURVE SMOOTH",
"609 785 OFFCURVE",
"629 775 OFFCURVE",
"650 775 CURVE SMOOTH",
"671 775 OFFCURVE",
"691 785 OFFCURVE",
"709 806 CURVE SMOOTH",
"764 869 OFFCURVE",
"796 900 OFFCURVE",
"807 900 CURVE SMOOTH",
"817 900 OFFCURVE",
"822 878 OFFCURVE",
"822 833 CURVE SMOOTH",
"822 0 LINE",
"1190 0 LINE",
"1190 807 LINE SMOOTH",
"1190 890 OFFCURVE",
"1254 932 OFFCURVE",
"1382 932 CURVE SMOOTH",
"1450 932 OFFCURVE",
"1484 890 OFFCURVE",
"1484 807 CURVE SMOOTH",
"1484 0 LINE",
"1852 0 LINE",
"1852 807 LINE SMOOTH",
"1852 1042 OFFCURVE",
"1705 1160 OFFCURVE",
"1412 1160 CURVE SMOOTH",
"1304 1160 OFFCURVE",
"1201 1129 OFFCURVE",
"1104 1068 CURVE"
);
},
{
closed = 1;
nodes = (
"1412 -230 LINE",
"1440 -230 LINE SMOOTH",
"1469 -230 OFFCURVE",
"1484 -245 OFFCURVE",
"1484 -275 CURVE SMOOTH",
"1484 -292 OFFCURVE",
"1467 -300 OFFCURVE",
"1434 -300 CURVE SMOOTH",
"1340 -300 OFFCURVE",
"1237 -265 OFFCURVE",
"1126 -195 CURVE SMOOTH",
"1015 -125 OFFCURVE",
"844 -90 OFFCURVE",
"612 -90 CURVE SMOOTH",
"110 -90 LINE",
"110 -330 LINE",
"612 -330 LINE SMOOTH",
"789 -330 OFFCURVE",
"930 -358 OFFCURVE",
"1037 -415 CURVE SMOOTH",
"1144 -472 OFFCURVE",
"1276 -500 OFFCURVE",
"1434 -500 CURVE SMOOTH",
"1713 -500 OFFCURVE",
"1852 -425 OFFCURVE",
"1852 -275 CURVE SMOOTH",
"1852 -125 OFFCURVE",
"1715 -50 OFFCURVE",
"1440 -50 CURVE SMOOTH",
"1412 -50 LINE"
);
}
);
width = 1962;
},
{
layerId = "A36153DC-C9CC-437F-8D19-86D84E7E38EA";
paths = (
{
closed = 1;
nodes = (
"1058 1099 OFFCURVE",
"982 1130 OFFCURVE",
"877 1130 CURVE SMOOTH",
"800 1130 OFFCURVE",
"725 1089 OFFCURVE",
"650 1006 CURVE",
"576 1089 OFFCURVE",
"501 1130 OFFCURVE",
"425 1130 CURVE SMOOTH",
"235 1130 OFFCURVE",
"140 1031 OFFCURVE",
"140 833 CURVE SMOOTH",
"140 298 LINE SMOOTH",
"140 99 OFFCURVE",
"250 0 OFFCURVE",
"470 0 CURVE SMOOTH",
"600 0 LINE",
"600 228 LINE",
"530 228 LINE SMOOTH",
"475 228 OFFCURVE",
"448 251 OFFCURVE",
"448 298 CURVE SMOOTH",
"448 833 LINE SMOOTH",
"448 878 OFFCURVE",
"459 900 OFFCURVE",
"481 900 CURVE SMOOTH",
"500 900 OFFCURVE",
"537 869 OFFCURVE",
"591 806 CURVE SMOOTH",
"609 785 OFFCURVE",
"629 775 OFFCURVE",
"650 775 CURVE SMOOTH",
"671 775 OFFCURVE",
"691 785 OFFCURVE",
"709 806 CURVE SMOOTH",
"764 869 OFFCURVE",
"801 900 OFFCURVE",
"820 900 CURVE SMOOTH",
"841 900 OFFCURVE",
"852 878 OFFCURVE",
"852 833 CURVE SMOOTH",
"852 0 LINE",
"1160 0 LINE",
"1160 807 LINE SMOOTH",
"1160 890 OFFCURVE",
"1234 932 OFFCURVE",
"1382 932 CURVE SMOOTH",
"1470 932 OFFCURVE",
"1514 890 OFFCURVE",
"1514 807 CURVE SMOOTH",
"1514 0 LINE",
"1822 0 LINE",
"1822 807 LINE SMOOTH",
"1822 1022 OFFCURVE",
"1675 1130 OFFCURVE",
"1382 1130 CURVE SMOOTH",
"1273 1130 OFFCURVE",
"1181 1099 OFFCURVE",
"1104 1038 CURVE"
);
},
{
closed = 1;
nodes = (
"1412 -230 LINE",
"1440 -230 LINE SMOOTH",
"1489 -230 OFFCURVE",
"1514 -245 OFFCURVE",
"1514 -275 CURVE SMOOTH",
"1514 -305 OFFCURVE",
"1487 -320 OFFCURVE",
"1434 -320 CURVE SMOOTH",
"1339 -320 OFFCURVE",
"1237 -287 OFFCURVE",
"1126 -220 CURVE SMOOTH",
"1015 -153 OFFCURVE",
"844 -120 OFFCURVE",
"612 -120 CURVE SMOOTH",
"140 -120 LINE",
"140 -300 LINE",
"612 -300 LINE SMOOTH",
"789 -300 OFFCURVE",
"930 -333 OFFCURVE",
"1037 -400 CURVE SMOOTH",
"1144 -467 OFFCURVE",
"1276 -500 OFFCURVE",
"1434 -500 CURVE SMOOTH",
"1693 -500 OFFCURVE",
"1822 -425 OFFCURVE",
"1822 -275 CURVE SMOOTH",
"1822 -125 OFFCURVE",
"1695 -50 OFFCURVE",
"1440 -50 CURVE SMOOTH",
"1412 -50 LINE"
);
}
);
width = 1962;
},
{
layerId = "607A0539-44D7-4182-901A-4BFA5CCC01F8";
paths = (
{
closed = 1;
nodes = (
"200 79 OFFCURVE",
"290 0 OFFCURVE",
"470 0 CURVE SMOOTH",
"600 0 LINE",
"600 168 LINE",
"470 168 LINE SMOOTH",
"415 168 OFFCURVE",
"388 191 OFFCURVE",
"388 238 CURVE SMOOTH",
"388 853 LINE SMOOTH",
"388 938 OFFCURVE",
"412 980 OFFCURVE",
"461 980 CURVE SMOOTH",
"494 980 OFFCURVE",
"537 949 OFFCURVE",
"591 886 CURVE SMOOTH",
"609 865 OFFCURVE",
"629 855 OFFCURVE",
"650 855 CURVE SMOOTH",
"671 855 OFFCURVE",
"691 865 OFFCURVE",
"709 886 CURVE SMOOTH",
"764 949 OFFCURVE",
"807 980 OFFCURVE",
"840 980 CURVE SMOOTH",
"888 980 OFFCURVE",
"912 938 OFFCURVE",
"912 853 CURVE SMOOTH",
"912 0 LINE",
"1100 0 LINE",
"1100 807 LINE SMOOTH",
"1100 930 OFFCURVE",
"1187 992 OFFCURVE",
"1362 992 CURVE SMOOTH",
"1503 992 OFFCURVE",
"1574 930 OFFCURVE",
"1574 807 CURVE SMOOTH",
"1574 0 LINE",
"1762 0 LINE",
"1762 807 LINE SMOOTH",
"1762 1022 OFFCURVE",
"1629 1130 OFFCURVE",
"1362 1130 CURVE SMOOTH",
"1234 1130 OFFCURVE",
"1133 1097 OFFCURVE",
"1060 1032 CURVE",
"1021 1097 OFFCURVE",
"953 1130 OFFCURVE",
"857 1130 CURVE SMOOTH",
"794 1130 OFFCURVE",
"725 1089 OFFCURVE",
"650 1006 CURVE",
"576 1089 OFFCURVE",
"508 1130 OFFCURVE",
"445 1130 CURVE SMOOTH",
"282 1130 OFFCURVE",
"200 1038 OFFCURVE",
"200 853 CURVE SMOOTH",
"200 238 LINE SMOOTH"
);
},
{
closed = 1;
nodes = (
"1412 -220 LINE",
"1500 -220 LINE SMOOTH",
"1549 -220 OFFCURVE",
"1574 -240 OFFCURVE",
"1574 -280 CURVE SMOOTH",
"1574 -347 OFFCURVE",
"1527 -380 OFFCURVE",
"1434 -380 CURVE SMOOTH",
"1339 -380 OFFCURVE",
"1237 -347 OFFCURVE",
"1126 -280 CURVE SMOOTH",
"1015 -213 OFFCURVE",
"844 -180 OFFCURVE",
"612 -180 CURVE SMOOTH",
"200 -180 LINE",
"200 -300 LINE",
"612 -300 LINE SMOOTH",
"789 -300 OFFCURVE",
"930 -333 OFFCURVE",
"1037 -400 CURVE SMOOTH",
"1144 -467 OFFCURVE",
"1276 -500 OFFCURVE",
"1434 -500 CURVE SMOOTH",
"1653 -500 OFFCURVE",
"1762 -427 OFFCURVE",
"1762 -280 CURVE SMOOTH",
"1762 -160 OFFCURVE",
"1675 -100 OFFCURVE",
"1500 -100 CURVE SMOOTH",
"1412 -100 LINE"
);
}
);
width = 1962;
},
{
layerId = "DF847F4E-D23C-40FA-8597-1D02BA148938";
paths = (
{
closed = 1;
nodes = (
"1070 0 LINE",
"1070 807 LINE SMOOTH",
"1070 957 OFFCURVE",
"1161 1032 OFFCURVE",
"1342 1032 CURVE SMOOTH",
"1523 1032 OFFCURVE",
"1614 957 OFFCURVE",
"1614 807 CURVE SMOOTH",
"1614 0 LINE",
"1732 0 LINE",
"1732 807 LINE SMOOTH",
"1732 1022 OFFCURVE",
"1602 1130 OFFCURVE",
"1342 1130 CURVE SMOOTH",
"1201 1130 OFFCURVE",
"1099 1098 OFFCURVE",
"1034 1035 CURVE",
"999 1098 OFFCURVE",
"940 1130 OFFCURVE",
"857 1130 CURVE SMOOTH",
"794 1130 OFFCURVE",
"725 1082 OFFCURVE",
"650 986 CURVE",
"576 1082 OFFCURVE",
"508 1130 OFFCURVE",
"445 1130 CURVE SMOOTH",
"302 1130 OFFCURVE",
"230 1038 OFFCURVE",
"230 853 CURVE SMOOTH",
"230 238 LINE SMOOTH",
"230 79 OFFCURVE",
"310 0 OFFCURVE",
"470 0 CURVE SMOOTH",
"600 0 LINE",
"600 108 LINE",
"470 108 LINE SMOOTH",
"389 108 OFFCURVE",
"348 151 OFFCURVE",
"348 238 CURVE SMOOTH",
"348 853 LINE SMOOTH",
"348 964 OFFCURVE",
"380 1020 OFFCURVE",
"445 1020 CURVE SMOOTH",
"482 1020 OFFCURVE",
"532 979 OFFCURVE",
"596 896 CURVE SMOOTH",
"617 869 OFFCURVE",
"635 855 OFFCURVE",
"650 855 CURVE SMOOTH",
"665 855 OFFCURVE",
"683 869 OFFCURVE",
"704 896 CURVE SMOOTH",
"769 979 OFFCURVE",
"820 1020 OFFCURVE",
"857 1020 CURVE SMOOTH",
"920 1020 OFFCURVE",
"952 964 OFFCURVE",
"952 853 CURVE SMOOTH",
"952 0 LINE"
);
},
{
closed = 1;
nodes = (
"1412 -190 LINE",
"1500 -190 LINE SMOOTH",
"1576 -190 OFFCURVE",
"1614 -220 OFFCURVE",
"1614 -280 CURVE SMOOTH",
"1614 -367 OFFCURVE",
"1554 -410 OFFCURVE",
"1434 -410 CURVE SMOOTH",
"1319 -410 OFFCURVE",
"1202 -372 OFFCURVE",
"1081 -295 CURVE SMOOTH",
"960 -218 OFFCURVE",
"804 -180 OFFCURVE",
"612 -180 CURVE SMOOTH",
"200 -180 LINE",
"200 -270 LINE",
"612 -270 LINE SMOOTH",
"789 -270 OFFCURVE",
"930 -308 OFFCURVE",
"1037 -385 CURVE SMOOTH",
"1144 -462 OFFCURVE",
"1276 -500 OFFCURVE",
"1434 -500 CURVE SMOOTH",
"1633 -500 OFFCURVE",
"1732 -427 OFFCURVE",
"1732 -280 CURVE SMOOTH",
"1732 -160 OFFCURVE",
"1655 -100 OFFCURVE",
"1500 -100 CURVE SMOOTH",
"1412 -100 LINE"
);
}
);
width = 1962;
},
{
layerId = "3BE6379C-89A1-45B5-97C8-F079248A4F49";
paths = (
{
closed = 1;
nodes = (
"1040 0 LINE",
"1040 807 LINE SMOOTH",
"1040 984 OFFCURVE",
"1141 1072 OFFCURVE",
"1342 1072 CURVE SMOOTH",
"1543 1072 OFFCURVE",
"1644 984 OFFCURVE",
"1644 807 CURVE SMOOTH",
"1644 0 LINE",
"1702 0 LINE",
"1702 807 LINE SMOOTH",
"1702 1022 OFFCURVE",
"1582 1130 OFFCURVE",
"1342 1130 CURVE SMOOTH",
"1185 1130 OFFCURVE",
"1079 1084 OFFCURVE",
"1024 991 CURVE",
"999 1084 OFFCURVE",
"944 1130 OFFCURVE",
"857 1130 CURVE SMOOTH",
"794 1130 OFFCURVE",
"725 1082 OFFCURVE",
"650 986 CURVE",
"576 1082 OFFCURVE",
"508 1130 OFFCURVE",
"445 1130 CURVE SMOOTH",
"322 1130 OFFCURVE",
"260 1038 OFFCURVE",
"260 853 CURVE SMOOTH",
"260 238 LINE SMOOTH",
"260 79 OFFCURVE",
"330 0 OFFCURVE",
"470 0 CURVE SMOOTH",
"600 0 LINE",
"600 58 LINE",
"470 58 LINE SMOOTH",
"369 58 OFFCURVE",
"318 118 OFFCURVE",
"318 238 CURVE SMOOTH",
"318 853 LINE SMOOTH",
"318 999 OFFCURVE",
"360 1072 OFFCURVE",
"445 1072 CURVE SMOOTH",
"482 1072 OFFCURVE",
"532 1033 OFFCURVE",
"596 954 CURVE SMOOTH",
"617 928 OFFCURVE",
"635 915 OFFCURVE",
"650 915 CURVE SMOOTH",
"665 915 OFFCURVE",
"683 928 OFFCURVE",
"704 954 CURVE SMOOTH",
"769 1033 OFFCURVE",
"820 1072 OFFCURVE",
"857 1072 CURVE SMOOTH",
"940 1072 OFFCURVE",
"982 999 OFFCURVE",
"982 853 CURVE SMOOTH",
"982 0 LINE"
);
},
{
closed = 1;
nodes = (
"1412 -128 LINE",
"1500 -128 LINE SMOOTH",
"1596 -128 OFFCURVE",
"1644 -169 OFFCURVE",
"1644 -250 CURVE SMOOTH",
"1644 -345 OFFCURVE",
"1574 -392 OFFCURVE",
"1434 -392 CURVE SMOOTH",
"1294 -392 OFFCURVE",
"1165 -348 OFFCURVE",
"1046 -261 CURVE SMOOTH",
"927 -174 OFFCURVE",
"783 -130 OFFCURVE",
"612 -130 CURVE SMOOTH",
"260 -130 LINE",
"260 -188 LINE",
"612 -188 LINE SMOOTH",
"788 -188 OFFCURVE",
"930 -232 OFFCURVE",
"1037 -319 CURVE SMOOTH",
"1144 -406 OFFCURVE",
"1277 -450 OFFCURVE",
"1434 -450 CURVE SMOOTH",
"1613 -450 OFFCURVE",
"1702 -383 OFFCURVE",
"1702 -250 CURVE SMOOTH",
"1702 -130 OFFCURVE",
"1635 -70 OFFCURVE",
"1500 -70 CURVE SMOOTH",
"1412 -70 LINE"
);
}
);
width = 1962;
}
);
note = uni1789;
unicode = 1789;
},
{
glyphname = uni178A;
lastChange = "2021-05-28 12:58:35 +0000";
layers = (
{
layerId = "372009DC-CA12-41C8-98C7-C44FC6D5F55D";
paths = (
{
closed = 1;
nodes = (
"822 1340 LINE",
"822 982 LINE SMOOTH",
"822 916 OFFCURVE",
"765 883 OFFCURVE",
"650 883 CURVE SMOOTH",
"535 883 OFFCURVE",
"478 899 OFFCURVE",
"478 932 CURVE",
"530 932 LINE",
"530 1160 LINE",
"388 1160 LINE SMOOTH",
"203 1160 OFFCURVE",
"110 1084 OFFCURVE",
"110 932 CURVE SMOOTH",
"110 754 OFFCURVE",
"290 665 OFFCURVE",
"650 665 CURVE SMOOTH",
"1010 665 OFFCURVE",
"1190 771 OFFCURVE",
"1190 982 CURVE SMOOTH",
"1190 1340 LINE"
);
},
{
closed = 1;
nodes = (
"110 600 LINE",
"110 0 LINE",
"509 0 LINE",
"651 160 LINE",
"792 0 LINE",
"1190 0 LINE",
"1190 600 LINE",
"822 600 LINE",
"822 295 LINE",
"651 455 LINE",
"478 294 LINE",
"478 600 LINE"
);
}
);
width = 1300;
},
{
layerId = "A36153DC-C9CC-437F-8D19-86D84E7E38EA";
paths = (
{
closed = 1;
nodes = (
"852 916 OFFCURVE",
"785 883 OFFCURVE",
"650 883 CURVE SMOOTH",
"515 883 OFFCURVE",
"448 899 OFFCURVE",
"448 932 CURVE",
"500 932 LINE",
"500 1130 LINE",
"388 1130 LINE SMOOTH",
"223 1130 OFFCURVE",
"140 1064 OFFCURVE",
"140 932 CURVE SMOOTH",
"140 767 OFFCURVE",
"310 685 OFFCURVE",
"650 685 CURVE SMOOTH",
"990 685 OFFCURVE",
"1160 784 OFFCURVE",
"1160 982 CURVE SMOOTH",
"1160 1340 LINE",
"852 1340 LINE",
"852 982 LINE SMOOTH"
);
},
{
closed = 1;
nodes = (
"479 0 LINE",
"651 160 LINE",
"822 0 LINE",
"1160 0 LINE",
"1160 620 LINE",
"852 620 LINE",
"852 265 LINE",
"651 425 LINE",
"448 264 LINE",
"448 620 LINE",
"140 620 LINE",
"140 0 LINE"
);
}
);
width = 1300;
},
{
layerId = "607A0539-44D7-4182-901A-4BFA5CCC01F8";
paths = (
{
closed = 1;
nodes = (
"912 906 OFFCURVE",
"825 863 OFFCURVE",
"650 863 CURVE SMOOTH",
"475 863 OFFCURVE",
"388 906 OFFCURVE",
"388 992 CURVE",
"500 992 LINE",
"500 1130 LINE",
"388 1130 LINE SMOOTH",
"263 1130 OFFCURVE",
"200 1084 OFFCURVE",
"200 992 CURVE SMOOTH",
"200 814 OFFCURVE",
"350 725 OFFCURVE",
"650 725 CURVE SMOOTH",
"950 725 OFFCURVE",
"1100 814 OFFCURVE",
"1100 992 CURVE SMOOTH",
"1100 1340 LINE",
"912 1340 LINE",
"912 992 LINE SMOOTH"
);
},
{
closed = 1;
nodes = (
"912 167 LINE",
"651 405 LINE",
"388 166 LINE",
"388 660 LINE",
"200 660 LINE",
"200 0 LINE",
"419 0 LINE",
"651 210 LINE",
"882 0 LINE",
"1100 0 LINE",
"1100 660 LINE",
"912 660 LINE"
);
}
);
width = 1300;
},
{
layerId = "DF847F4E-D23C-40FA-8597-1D02BA148938";
paths = (
{
closed = 1;
nodes = (
"952 893 OFFCURVE",
"851 843 OFFCURVE",
"650 843 CURVE SMOOTH",
"449 843 OFFCURVE",
"348 893 OFFCURVE",
"348 992 CURVE SMOOTH",
"348 1019 OFFCURVE",
"365 1032 OFFCURVE",
"398 1032 CURVE SMOOTH",
"500 1032 LINE",
"500 1130 LINE",
"398 1130 LINE SMOOTH",
"286 1130 OFFCURVE",
"230 1084 OFFCURVE",
"230 992 CURVE SMOOTH",
"230 827 OFFCURVE",
"370 745 OFFCURVE",
"650 745 CURVE SMOOTH",
"930 745 OFFCURVE",
"1070 827 OFFCURVE",
"1070 992 CURVE SMOOTH",
"1070 1340 LINE",
"952 1340 LINE",
"952 992 LINE SMOOTH"
);
},
{
closed = 1;
nodes = (
"348 0 LINE",
"650 277 LINE",
"952 0 LINE",
"1070 0 LINE",
"1070 680 LINE",
"952 680 LINE",
"952 134 LINE",
"650 411 LINE",
"348 134 LINE",
"348 680 LINE",
"230 680 LINE",
"230 0 LINE"
);
}
);
width = 1300;
},
{
layerId = "3BE6379C-89A1-45B5-97C8-F079248A4F49";
paths = (
{
closed = 1;
nodes = (
"982 1340 LINE",
"982 992 LINE SMOOTH",
"982 866 OFFCURVE",
"871 803 OFFCURVE",
"650 803 CURVE SMOOTH",
"429 803 OFFCURVE",
"318 866 OFFCURVE",
"318 992 CURVE SMOOTH",
"318 1045 OFFCURVE",
"351 1072 OFFCURVE",
"418 1072 CURVE SMOOTH",
"500 1072 LINE",
"500 1130 LINE",
"418 1130 LINE SMOOTH",
"313 1130 OFFCURVE",
"260 1084 OFFCURVE",
"260 992 CURVE SMOOTH",
"260 827 OFFCURVE",
"390 745 OFFCURVE",
"650 745 CURVE SMOOTH",
"910 745 OFFCURVE",
"1040 827 OFFCURVE",
"1040 992 CURVE SMOOTH",
"1040 1340 LINE"
);
},
{
closed = 1;
nodes = (
"982 76 LINE",
"650 353 LINE",
"318 76 LINE",
"318 680 LINE",
"260 680 LINE",
"260 0 LINE",
"318 0 LINE",
"650 280 LINE",
"982 0 LINE",
"1040 0 LINE",
"1040 680 LINE",
"982 680 LINE"
);
}
);
width = 1300;
}
);
note = uni178A;
unicode = 178A;
},
{
glyphname = uni178B;
lastChange = "2021-05-28 12:58:35 +0000";
layers = (
{
layerId = "372009DC-CA12-41C8-98C7-C44FC6D5F55D";
paths = (
{
closed = 1;
nodes = (
"539 616 OFFCURVE",
"570 748 OFFCURVE",
"570 890 CURVE SMOOTH",
"570 1130 LINE",
"110 1130 LINE",
"110 932 LINE",
"262 932 LINE",
"262 890 LINE SMOOTH",
"262 762 OFFCURVE",
"211 646 OFFCURVE",
"110 543 CURVE",
"110 323 LINE SMOOTH",
"110 108 OFFCURVE",
"290 0 OFFCURVE",
"650 0 CURVE SMOOTH",
"1010 0 OFFCURVE",
"1190 108 OFFCURVE",
"1190 323 CURVE SMOOTH",
"1190 681 LINE SMOOTH",
"1190 722 OFFCURVE",
"1150 767 OFFCURVE",
"1069 816 CURVE SMOOTH",
"948 890 LINE",
"948 932 LINE",
"1190 932 LINE",
"1190 1340 LINE",
"822 1340 LINE",
"822 1130 LINE",
"808 1130 LINE SMOOTH",
"709 1130 OFFCURVE",
"660 1077 OFFCURVE",
"660 972 CURVE SMOOTH",
"660 837 LINE",
"822 674 LINE",
"822 323 LINE SMOOTH",
"822 240 OFFCURVE",
"765 198 OFFCURVE",
"650 198 CURVE SMOOTH",
"535 198 OFFCURVE",
"478 240 OFFCURVE",
"478 323 CURVE SMOOTH",
"478 495 LINE"
);
}
);
width = 1300;
},
{
layerId = "A36153DC-C9CC-437F-8D19-86D84E7E38EA";
paths = (
{
closed = 1;
nodes = (
"523 617 OFFCURVE",
"560 749 OFFCURVE",
"560 890 CURVE SMOOTH",
"560 1130 LINE",
"140 1130 LINE",
"140 932 LINE",
"292 932 LINE",
"292 890 LINE SMOOTH",
"292 761 OFFCURVE",
"241 645 OFFCURVE",
"140 543 CURVE",
"140 323 LINE SMOOTH",
"140 108 OFFCURVE",
"310 0 OFFCURVE",
"650 0 CURVE SMOOTH",
"990 0 OFFCURVE",
"1160 108 OFFCURVE",
"1160 323 CURVE SMOOTH",
"1160 681 LINE SMOOTH",
"1160 722 OFFCURVE",
"1120 767 OFFCURVE",
"1039 816 CURVE SMOOTH",
"918 890 LINE",
"918 932 LINE",
"1160 932 LINE",
"1160 1340 LINE",
"852 1340 LINE",
"852 1130 LINE",
"808 1130 LINE SMOOTH",
"723 1130 OFFCURVE",
"680 1077 OFFCURVE",
"680 972 CURVE SMOOTH",
"680 837 LINE",
"852 674 LINE",
"852 323 LINE SMOOTH",
"852 240 OFFCURVE",
"785 198 OFFCURVE",
"650 198 CURVE SMOOTH",
"515 198 OFFCURVE",
"448 240 OFFCURVE",
"448 323 CURVE SMOOTH",
"448 495 LINE"
);
}
);
width = 1300;
},
{
layerId = "607A0539-44D7-4182-901A-4BFA5CCC01F8";
paths = (
{
closed = 1;
nodes = (
"476 617 OFFCURVE",
"520 749 OFFCURVE",
"520 890 CURVE SMOOTH",
"520 1130 LINE",
"200 1130 LINE",
"200 962 LINE",
"352 962 LINE",
"352 890 LINE SMOOTH",
"352 761 OFFCURVE",
"301 645 OFFCURVE",
"200 543 CURVE",
"200 323 LINE SMOOTH",
"200 108 OFFCURVE",
"350 0 OFFCURVE",
"650 0 CURVE SMOOTH",
"950 0 OFFCURVE",
"1100 108 OFFCURVE",
"1100 323 CURVE SMOOTH",
"1100 701 LINE SMOOTH",
"1100 742 OFFCURVE",
"1060 787 OFFCURVE",
"979 836 CURVE SMOOTH",
"858 910 LINE",
"858 992 LINE",
"1100 992 LINE",
"1100 1340 LINE",
"912 1340 LINE",
"912 1130 LINE",
"868 1130 LINE SMOOTH",
"743 1130 OFFCURVE",
"680 1084 OFFCURVE",
"680 992 CURVE SMOOTH",
"680 857 LINE",
"912 694 LINE",
"912 323 LINE SMOOTH",
"912 200 OFFCURVE",
"825 138 OFFCURVE",
"650 138 CURVE SMOOTH",
"475 138 OFFCURVE",
"388 200 OFFCURVE",
"388 323 CURVE SMOOTH",
"388 495 LINE"
);
}
);
width = 1300;
},
{
layerId = "DF847F4E-D23C-40FA-8597-1D02BA148938";
paths = (
{
closed = 1;
nodes = (
"436 737 OFFCURVE",
"480 835 OFFCURVE",
"480 910 CURVE SMOOTH",
"480 1130 LINE",
"230 1130 LINE",
"230 1032 LINE",
"382 1032 LINE",
"382 910 LINE SMOOTH",
"382 847 OFFCURVE",
"331 765 OFFCURVE",
"230 663 CURVE",
"230 323 LINE SMOOTH",
"230 108 OFFCURVE",
"370 0 OFFCURVE",
"650 0 CURVE SMOOTH",
"930 0 OFFCURVE",
"1070 108 OFFCURVE",
"1070 323 CURVE SMOOTH",
"1070 714 LINE SMOOTH",
"1070 773 OFFCURVE",
"1037 820 OFFCURVE",
"970 856 CURVE SMOOTH",
"870 910 LINE",
"870 992 LINE SMOOTH",
"870 1019 OFFCURVE",
"887 1032 OFFCURVE",
"920 1032 CURVE SMOOTH",
"1070 1032 LINE",
"1070 1340 LINE",
"952 1340 LINE",
"952 1130 LINE",
"920 1130 LINE SMOOTH",
"815 1130 OFFCURVE",
"762 1084 OFFCURVE",
"762 992 CURVE SMOOTH",
"762 857 LINE",
"905 772 LINE SMOOTH",
"936 753 OFFCURVE",
"952 734 OFFCURVE",
"952 714 CURVE SMOOTH",
"952 323 LINE SMOOTH",
"952 173 OFFCURVE",
"851 98 OFFCURVE",
"650 98 CURVE SMOOTH",
"449 98 OFFCURVE",
"348 173 OFFCURVE",
"348 323 CURVE SMOOTH",
"348 615 LINE"
);
}
);
width = 1300;
},
{
layerId = "3BE6379C-89A1-45B5-97C8-F079248A4F49";
paths = (
{
closed = 1;
nodes = (
"406 737 OFFCURVE",
"450 835 OFFCURVE",
"450 910 CURVE SMOOTH",
"450 1130 LINE",
"220 1130 LINE",
"220 1072 LINE",
"402 1072 LINE",
"402 910 LINE SMOOTH",
"402 847 OFFCURVE",
"355 754 OFFCURVE",
"260 633 CURVE",
"260 323 LINE SMOOTH",
"260 108 OFFCURVE",
"390 0 OFFCURVE",
"650 0 CURVE SMOOTH",
"910 0 OFFCURVE",
"1040 108 OFFCURVE",
"1040 323 CURVE SMOOTH",
"1040 714 LINE SMOOTH",
"1040 750 OFFCURVE",
"1003 789 OFFCURVE",
"930 830 CURVE SMOOTH",
"780 914 LINE",
"780 992 LINE SMOOTH",
"780 1045 OFFCURVE",
"807 1072 OFFCURVE",
"860 1072 CURVE SMOOTH",
"879 1072 OFFCURVE",
"910 1065 OFFCURVE",
"953 1052 CURVE SMOOTH",
"995 1039 OFFCURVE",
"1026 1032 OFFCURVE",
"1045 1032 CURVE SMOOTH",
"1118 1032 OFFCURVE",
"1155 1073 OFFCURVE",
"1155 1155 CURVE SMOOTH",
"1155 1280 LINE",
"1097 1280 LINE",
"1097 1155 LINE SMOOTH",
"1097 1112 OFFCURVE",
"1080 1090 OFFCURVE",
"1045 1090 CURVE SMOOTH",
"1020 1090 OFFCURVE",
"990 1097 OFFCURVE",
"956 1110 CURVE SMOOTH",
"922 1123 OFFCURVE",
"890 1130 OFFCURVE",
"860 1130 CURVE SMOOTH",
"768 1130 OFFCURVE",
"722 1084 OFFCURVE",
"722 992 CURVE SMOOTH",
"722 880 LINE",
"900 782 LINE SMOOTH",
"955 752 OFFCURVE",
"982 729 OFFCURVE",
"982 714 CURVE SMOOTH",
"982 323 LINE SMOOTH",
"982 146 OFFCURVE",
"871 58 OFFCURVE",
"650 58 CURVE SMOOTH",
"429 58 OFFCURVE",
"318 146 OFFCURVE",
"318 323 CURVE SMOOTH",
"318 615 LINE"
);
}
);
width = 1300;
}
);
note = uni178B;
unicode = 178B;
},
{
glyphname = uni178C;
lastChange = "2021-05-28 12:58:35 +0000";
layers = (
{
layerId = "372009DC-CA12-41C8-98C7-C44FC6D5F55D";
paths = (
{
closed = 1;
nodes = (
"1190 -50 LINE",
"1190 400 LINE",
"822 400 LINE",
"822 317 LINE",
"769 258 OFFCURVE",
"671 228 OFFCURVE",
"530 228 CURVE SMOOTH",
"475 228 OFFCURVE",
"448 248 OFFCURVE",
"448 287 CURVE SMOOTH",
"448 353 OFFCURVE",
"465 386 OFFCURVE",
"500 386 CURVE SMOOTH",
"960 386 OFFCURVE",
"1190 542 OFFCURVE",
"1190 853 CURVE SMOOTH",
"1190 1058 OFFCURVE",
"1086 1160 OFFCURVE",
"877 1160 CURVE SMOOTH",
"800 1160 OFFCURVE",
"725 1119 OFFCURVE",
"650 1036 CURVE",
"576 1119 OFFCURVE",
"501 1160 OFFCURVE",
"425 1160 CURVE SMOOTH",
"216 1160 OFFCURVE",
"111 1058 OFFCURVE",
"110 853 CURVE SMOOTH",
"110 714 OFFCURVE",
"215 645 OFFCURVE",
"424 645 CURVE SMOOTH",
"540 645 LINE",
"540 823 LINE",
"504 823 LINE SMOOTH",
"487 823 OFFCURVE",
"478 833 OFFCURVE",
"478 853 CURVE SMOOTH",
"478 898 OFFCURVE",
"483 920 OFFCURVE",
"494 920 CURVE SMOOTH",
"505 920 OFFCURVE",
"537 889 OFFCURVE",
"591 826 CURVE SMOOTH",
"609 805 OFFCURVE",
"629 795 OFFCURVE",
"650 795 CURVE SMOOTH",
"671 795 OFFCURVE",
"691 805 OFFCURVE",
"709 826 CURVE SMOOTH",
"764 889 OFFCURVE",
"796 920 OFFCURVE",
"807 920 CURVE SMOOTH",
"817 920 OFFCURVE",
"822 898 OFFCURVE",
"822 853 CURVE SMOOTH",
"822 674 OFFCURVE",
"715 584 OFFCURVE",
"500 584 CURVE SMOOTH",
"240 584 OFFCURVE",
"110 485 OFFCURVE",
"110 287 CURVE SMOOTH",
"110 96 OFFCURVE",
"250 0 OFFCURVE",
"530 0 CURVE SMOOTH",
"649 0 OFFCURVE",
"746 38 OFFCURVE",
"822 115 CURVE",
"822 -50 LINE"
);
}
);
width = 1300;
},
{
layerId = "A36153DC-C9CC-437F-8D19-86D84E7E38EA";
paths = (
{
closed = 1;
nodes = (
"1160 -50 LINE",
"1160 400 LINE",
"852 400 LINE",
"852 317 LINE",
"799 238 OFFCURVE",
"691 198 OFFCURVE",
"530 198 CURVE SMOOTH",
"475 198 OFFCURVE",
"448 228 OFFCURVE",
"448 287 CURVE SMOOTH",
"448 353 OFFCURVE",
"465 386 OFFCURVE",
"500 386 CURVE SMOOTH",
"940 386 OFFCURVE",
"1160 542 OFFCURVE",
"1160 853 CURVE SMOOTH",
"1160 1038 OFFCURVE",
"1066 1130 OFFCURVE",
"877 1130 CURVE SMOOTH",
"800 1130 OFFCURVE",
"725 1089 OFFCURVE",
"650 1006 CURVE",
"576 1089 OFFCURVE",
"501 1130 OFFCURVE",
"425 1130 CURVE SMOOTH",
"235 1130 OFFCURVE",
"140 1038 OFFCURVE",
"140 853 CURVE SMOOTH",
"140 714 OFFCURVE",
"235 645 OFFCURVE",
"424 645 CURVE SMOOTH",
"540 645 LINE",
"540 823 LINE",
"484 823 LINE SMOOTH",
"460 823 OFFCURVE",
"448 833 OFFCURVE",
"448 853 CURVE SMOOTH",
"448 898 OFFCURVE",
"459 920 OFFCURVE",
"481 920 CURVE SMOOTH",
"500 920 OFFCURVE",
"537 889 OFFCURVE",
"591 826 CURVE SMOOTH",
"609 805 OFFCURVE",
"629 795 OFFCURVE",
"650 795 CURVE SMOOTH",
"671 795 OFFCURVE",
"691 805 OFFCURVE",
"709 826 CURVE SMOOTH",
"764 889 OFFCURVE",
"801 920 OFFCURVE",
"820 920 CURVE SMOOTH",
"841 920 OFFCURVE",
"852 898 OFFCURVE",
"852 853 CURVE SMOOTH",
"852 660 OFFCURVE",
"735 564 OFFCURVE",
"500 564 CURVE SMOOTH",
"260 564 OFFCURVE",
"140 472 OFFCURVE",
"140 287 CURVE SMOOTH",
"140 96 OFFCURVE",
"270 0 OFFCURVE",
"530 0 CURVE SMOOTH",
"669 0 OFFCURVE",
"776 38 OFFCURVE",
"852 115 CURVE",
"852 -50 LINE"
);
}
);
width = 1300;
},
{
layerId = "607A0539-44D7-4182-901A-4BFA5CCC01F8";
paths = (
{
closed = 1;
nodes = (
"1100 -50 LINE",
"1100 400 LINE",
"912 400 LINE",
"912 317 LINE",
"839 198 OFFCURVE",
"711 138 OFFCURVE",
"530 138 CURVE SMOOTH",
"435 138 OFFCURVE",
"388 188 OFFCURVE",
"388 287 CURVE SMOOTH",
"388 360 OFFCURVE",
"409 396 OFFCURVE",
"450 396 CURVE SMOOTH",
"883 396 OFFCURVE",
"1100 548 OFFCURVE",
"1100 853 CURVE SMOOTH",
"1100 1038 OFFCURVE",
"1019 1130 OFFCURVE",
"857 1130 CURVE SMOOTH",
"794 1130 OFFCURVE",
"725 1089 OFFCURVE",
"650 1006 CURVE",
"576 1089 OFFCURVE",
"508 1130 OFFCURVE",
"445 1130 CURVE SMOOTH",
"282 1130 OFFCURVE",
"200 1038 OFFCURVE",
"200 853 CURVE SMOOTH",
"200 714 OFFCURVE",
"281 645 OFFCURVE",
"444 645 CURVE SMOOTH",
"500 645 LINE",
"500 783 LINE",
"444 783 LINE SMOOTH",
"407 783 OFFCURVE",
"388 806 OFFCURVE",
"388 853 CURVE SMOOTH",
"388 938 OFFCURVE",
"412 980 OFFCURVE",
"461 980 CURVE SMOOTH",
"494 980 OFFCURVE",
"537 949 OFFCURVE",
"591 886 CURVE SMOOTH",
"609 865 OFFCURVE",
"629 855 OFFCURVE",
"650 855 CURVE SMOOTH",
"671 855 OFFCURVE",
"691 865 OFFCURVE",
"709 886 CURVE SMOOTH",
"764 949 OFFCURVE",
"807 980 OFFCURVE",
"840 980 CURVE SMOOTH",
"888 980 OFFCURVE",
"912 938 OFFCURVE",
"912 853 CURVE SMOOTH",
"912 640 OFFCURVE",
"758 534 OFFCURVE",
"450 534 CURVE SMOOTH",
"283 534 OFFCURVE",
"200 452 OFFCURVE",
"200 287 CURVE SMOOTH",
"200 96 OFFCURVE",
"310 0 OFFCURVE",
"530 0 CURVE SMOOTH",
"689 0 OFFCURVE",
"816 38 OFFCURVE",
"912 115 CURVE",
"912 -50 LINE"
);
}
);
width = 1300;
},
{
layerId = "DF847F4E-D23C-40FA-8597-1D02BA148938";
paths = (
{
closed = 1;
nodes = (
"1070 1038 OFFCURVE",
"999 1130 OFFCURVE",
"857 1130 CURVE SMOOTH",
"794 1130 OFFCURVE",
"725 1082 OFFCURVE",
"650 986 CURVE",
"576 1082 OFFCURVE",
"508 1130 OFFCURVE",
"445 1130 CURVE SMOOTH",
"302 1130 OFFCURVE",
"230 1038 OFFCURVE",
"230 853 CURVE SMOOTH",
"230 721 OFFCURVE",
"301 655 OFFCURVE",
"444 655 CURVE SMOOTH",
"500 655 LINE",
"500 753 LINE",
"444 753 LINE SMOOTH",
"380 753 OFFCURVE",
"348 786 OFFCURVE",
"348 853 CURVE SMOOTH",
"348 964 OFFCURVE",
"380 1020 OFFCURVE",
"445 1020 CURVE SMOOTH",
"482 1020 OFFCURVE",
"532 979 OFFCURVE",
"596 896 CURVE SMOOTH",
"617 869 OFFCURVE",
"635 855 OFFCURVE",
"650 855 CURVE SMOOTH",
"665 855 OFFCURVE",
"683 869 OFFCURVE",
"704 896 CURVE SMOOTH",
"769 979 OFFCURVE",
"820 1020 OFFCURVE",
"857 1020 CURVE SMOOTH",
"920 1020 OFFCURVE",
"952 964 OFFCURVE",
"952 853 CURVE SMOOTH",
"952 634 OFFCURVE",
"785 524 OFFCURVE",
"450 524 CURVE SMOOTH",
"303 524 OFFCURVE",
"230 445 OFFCURVE",
"230 287 CURVE SMOOTH",
"230 96 OFFCURVE",
"330 0 OFFCURVE",
"530 0 CURVE SMOOTH",
"715 0 OFFCURVE",
"856 55 OFFCURVE",
"952 165 CURVE",
"952 -50 LINE",
"1070 -50 LINE",
"1070 400 LINE",
"952 400 LINE",
"952 317 LINE",
"879 171 OFFCURVE",
"738 98 OFFCURVE",
"530 98 CURVE SMOOTH",
"409 98 OFFCURVE",
"348 161 OFFCURVE",
"348 287 CURVE SMOOTH",
"348 380 OFFCURVE",
"382 426 OFFCURVE",
"450 426 CURVE SMOOTH",
"863 426 OFFCURVE",
"1070 568 OFFCURVE",
"1070 853 CURVE SMOOTH"
);
}
);
width = 1300;
},
{
layerId = "3BE6379C-89A1-45B5-97C8-F079248A4F49";
paths = (
{
closed = 1;
nodes = (
"1040 1038 OFFCURVE",
"979 1130 OFFCURVE",
"857 1130 CURVE SMOOTH",
"794 1130 OFFCURVE",
"725 1082 OFFCURVE",
"650 986 CURVE",
"576 1082 OFFCURVE",
"508 1130 OFFCURVE",
"445 1130 CURVE SMOOTH",
"322 1130 OFFCURVE",
"260 1038 OFFCURVE",
"260 853 CURVE SMOOTH",
"260 721 OFFCURVE",
"321 655 OFFCURVE",
"444 655 CURVE SMOOTH",
"500 655 LINE",
"500 713 LINE",
"444 713 LINE SMOOTH",
"360 713 OFFCURVE",
"318 760 OFFCURVE",
"318 853 CURVE SMOOTH",
"318 999 OFFCURVE",
"360 1072 OFFCURVE",
"445 1072 CURVE SMOOTH",
"482 1072 OFFCURVE",
"533 1031 OFFCURVE",
"596 950 CURVE SMOOTH",
"617 923 OFFCURVE",
"635 909 OFFCURVE",
"650 909 CURVE SMOOTH",
"665 909 OFFCURVE",
"683 923 OFFCURVE",
"704 950 CURVE SMOOTH",
"767 1031 OFFCURVE",
"818 1072 OFFCURVE",
"857 1072 CURVE SMOOTH",
"940 1072 OFFCURVE",
"982 999 OFFCURVE",
"982 853 CURVE SMOOTH",
"982 620 OFFCURVE",
"805 504 OFFCURVE",
"450 504 CURVE SMOOTH",
"323 504 OFFCURVE",
"260 432 OFFCURVE",
"260 287 CURVE SMOOTH",
"260 96 OFFCURVE",
"350 0 OFFCURVE",
"530 0 CURVE SMOOTH",
"715 0 OFFCURVE",
"866 72 OFFCURVE",
"982 215 CURVE",
"982 -50 LINE",
"1040 -50 LINE",
"1040 400 LINE",
"982 400 LINE",
"982 287 LINE",
"862 134 OFFCURVE",
"711 58 OFFCURVE",
"530 58 CURVE SMOOTH",
"389 58 OFFCURVE",
"318 134 OFFCURVE",
"318 287 CURVE SMOOTH",
"318 393 OFFCURVE",
"362 446 OFFCURVE",
"450 446 CURVE SMOOTH",
"843 446 OFFCURVE",
"1040 582 OFFCURVE",
"1040 853 CURVE SMOOTH"
);
}
);
width = 1300;
}
);
note = uni178C;
unicode = 178C;
},
{
glyphname = uni178D;
lastChange = "2021-05-28 12:58:35 +0000";
layers = (
{
layerId = "372009DC-CA12-41C8-98C7-C44FC6D5F55D";
paths = (
{
closed = 1;
nodes = (
"1802 749 OFFCURVE",
"1769 790 OFFCURVE",
"1702 826 CURVE SMOOTH",
"1602 880 LINE",
"1602 932 LINE",
"1802 932 LINE",
"1802 1160 LINE",
"1512 1160 LINE SMOOTH",
"1360 1160 OFFCURVE",
"1284 1084 OFFCURVE",
"1284 932 CURVE SMOOTH",
"1284 827 LINE",
"1434 704 LINE",
"1434 323 LINE SMOOTH",
"1434 260 OFFCURVE",
"1423 228 OFFCURVE",
"1402 228 CURVE SMOOTH",
"1380 228 OFFCURVE",
"1333 285 OFFCURVE",
"1260 400 CURVE",
"1190 400 LINE",
"1190 833 LINE SMOOTH",
"1190 1051 OFFCURVE",
"1086 1160 OFFCURVE",
"877 1160 CURVE SMOOTH",
"800 1160 OFFCURVE",
"725 1119 OFFCURVE",
"650 1036 CURVE",
"576 1119 OFFCURVE",
"501 1160 OFFCURVE",
"425 1160 CURVE SMOOTH",
"215 1160 OFFCURVE",
"110 1051 OFFCURVE",
"110 833 CURVE SMOOTH",
"110 298 LINE SMOOTH",
"110 99 OFFCURVE",
"230 0 OFFCURVE",
"470 0 CURVE SMOOTH",
"600 0 LINE",
"600 258 LINE",
"530 258 LINE SMOOTH",
"495 258 OFFCURVE",
"478 271 OFFCURVE",
"478 298 CURVE SMOOTH",
"478 833 LINE SMOOTH",
"478 878 OFFCURVE",
"483 900 OFFCURVE",
"494 900 CURVE SMOOTH",
"505 900 OFFCURVE",
"537 869 OFFCURVE",
"591 806 CURVE SMOOTH",
"609 785 OFFCURVE",
"629 775 OFFCURVE",
"650 775 CURVE SMOOTH",
"671 775 OFFCURVE",
"691 785 OFFCURVE",
"709 806 CURVE SMOOTH",
"764 869 OFFCURVE",
"796 900 OFFCURVE",
"807 900 CURVE SMOOTH",
"817 900 OFFCURVE",
"822 878 OFFCURVE",
"822 833 CURVE SMOOTH",
"822 400 LINE",
"752 400 LINE",
"752 142 LINE",
"822 142 LINE",
"822 0 LINE",
"1190 0 LINE",
"1190 149 LINE",
"1258 50 OFFCURVE",
"1335 0 OFFCURVE",
"1422 0 CURVE SMOOTH",
"1675 0 OFFCURVE",
"1802 108 OFFCURVE",
"1802 323 CURVE SMOOTH",
"1802 704 LINE SMOOTH"
);
}
);
width = 1912;
},
{
layerId = "A36153DC-C9CC-437F-8D19-86D84E7E38EA";
paths = (
{
closed = 1;
nodes = (
"1772 749 OFFCURVE",
"1739 790 OFFCURVE",
"1672 826 CURVE SMOOTH",
"1572 880 LINE",
"1572 932 LINE",
"1772 932 LINE",
"1772 1130 LINE",
"1512 1130 LINE SMOOTH",
"1373 1130 OFFCURVE",
"1304 1064 OFFCURVE",
"1304 932 CURVE SMOOTH",
"1304 827 LINE",
"1464 704 LINE",
"1464 323 LINE SMOOTH",
"1464 240 OFFCURVE",
"1450 198 OFFCURVE",
"1422 198 CURVE SMOOTH",
"1367 198 OFFCURVE",
"1303 265 OFFCURVE",
"1230 400 CURVE",
"1160 400 LINE",
"1160 833 LINE SMOOTH",
"1160 1031 OFFCURVE",
"1066 1130 OFFCURVE",
"877 1130 CURVE SMOOTH",
"800 1130 OFFCURVE",
"725 1089 OFFCURVE",
"650 1006 CURVE",
"576 1089 OFFCURVE",
"501 1130 OFFCURVE",
"425 1130 CURVE SMOOTH",
"235 1130 OFFCURVE",
"140 1031 OFFCURVE",
"140 833 CURVE SMOOTH",
"140 298 LINE SMOOTH",
"140 99 OFFCURVE",
"250 0 OFFCURVE",
"470 0 CURVE SMOOTH",
"600 0 LINE",
"600 228 LINE",
"530 228 LINE SMOOTH",
"475 228 OFFCURVE",
"448 251 OFFCURVE",
"448 298 CURVE SMOOTH",
"448 833 LINE SMOOTH",
"448 878 OFFCURVE",
"459 900 OFFCURVE",
"481 900 CURVE SMOOTH",
"500 900 OFFCURVE",
"537 869 OFFCURVE",
"591 806 CURVE SMOOTH",
"609 785 OFFCURVE",
"629 775 OFFCURVE",
"650 775 CURVE SMOOTH",
"671 775 OFFCURVE",
"691 785 OFFCURVE",
"709 806 CURVE SMOOTH",
"764 869 OFFCURVE",
"801 900 OFFCURVE",
"820 900 CURVE SMOOTH",
"841 900 OFFCURVE",
"852 878 OFFCURVE",
"852 833 CURVE SMOOTH",
"852 400 LINE",
"752 400 LINE",
"752 172 LINE",
"852 172 LINE",
"852 0 LINE",
"1160 0 LINE",
"1160 179 LINE",
"1228 60 OFFCURVE",
"1315 0 OFFCURVE",
"1422 0 CURVE SMOOTH",
"1655 0 OFFCURVE",
"1772 108 OFFCURVE",
"1772 323 CURVE SMOOTH",
"1772 704 LINE SMOOTH"
);
}
);
width = 1912;
},
{
layerId = "607A0539-44D7-4182-901A-4BFA5CCC01F8";
paths = (
{
closed = 1;
nodes = (
"200 79 OFFCURVE",
"290 0 OFFCURVE",
"470 0 CURVE SMOOTH",
"600 0 LINE",
"600 168 LINE",
"470 168 LINE SMOOTH",
"415 168 OFFCURVE",
"388 191 OFFCURVE",
"388 238 CURVE SMOOTH",
"388 853 LINE SMOOTH",
"388 938 OFFCURVE",
"412 980 OFFCURVE",
"461 980 CURVE SMOOTH",
"494 980 OFFCURVE",
"537 949 OFFCURVE",
"591 886 CURVE SMOOTH",
"609 865 OFFCURVE",
"629 855 OFFCURVE",
"650 855 CURVE SMOOTH",
"671 855 OFFCURVE",
"691 865 OFFCURVE",
"709 886 CURVE SMOOTH",
"764 949 OFFCURVE",
"807 980 OFFCURVE",
"840 980 CURVE SMOOTH",
"888 980 OFFCURVE",
"912 938 OFFCURVE",
"912 853 CURVE SMOOTH",
"912 400 LINE",
"812 400 LINE",
"812 232 LINE",
"912 232 LINE",
"912 0 LINE",
"1100 0 LINE",
"1100 239 LINE",
"1208 80 OFFCURVE",
"1315 0 OFFCURVE",
"1422 0 CURVE SMOOTH",
"1615 0 OFFCURVE",
"1712 108 OFFCURVE",
"1712 323 CURVE SMOOTH",
"1712 741 LINE SMOOTH",
"1712 782 OFFCURVE",
"1680 820 OFFCURVE",
"1617 856 CURVE SMOOTH",
"1522 910 LINE",
"1522 957 LINE SMOOTH",
"1522 980 OFFCURVE",
"1533 992 OFFCURVE",
"1554 992 CURVE SMOOTH",
"1712 992 LINE",
"1712 1130 LINE",
"1504 1130 LINE SMOOTH",
"1391 1130 OFFCURVE",
"1334 1072 OFFCURVE",
"1334 957 CURVE SMOOTH",
"1334 857 LINE",
"1524 714 LINE",
"1524 323 LINE SMOOTH",
"1524 200 OFFCURVE",
"1490 138 OFFCURVE",
"1422 138 CURVE SMOOTH",
"1367 138 OFFCURVE",
"1293 225 OFFCURVE",
"1200 400 CURVE",
"1100 400 LINE",
"1100 853 LINE SMOOTH",
"1100 1038 OFFCURVE",
"1019 1130 OFFCURVE",
"857 1130 CURVE SMOOTH",
"794 1130 OFFCURVE",
"725 1089 OFFCURVE",
"650 1006 CURVE",
"576 1089 OFFCURVE",
"508 1130 OFFCURVE",
"445 1130 CURVE SMOOTH",
"282 1130 OFFCURVE",
"200 1038 OFFCURVE",
"200 853 CURVE SMOOTH",
"200 238 LINE SMOOTH"
);
}
);
width = 1912;
},
{
layerId = "DF847F4E-D23C-40FA-8597-1D02BA148938";
paths = (
{
closed = 1;
nodes = (
"1682 773 OFFCURVE",
"1649 820 OFFCURVE",
"1582 856 CURVE SMOOTH",
"1482 910 LINE",
"1482 992 LINE SMOOTH",
"1482 1019 OFFCURVE",
"1499 1032 OFFCURVE",
"1532 1032 CURVE SMOOTH",
"1682 1032 LINE",
"1682 1130 LINE",
"1532 1130 LINE SMOOTH",
"1427 1130 OFFCURVE",
"1374 1084 OFFCURVE",
"1374 992 CURVE SMOOTH",
"1374 857 LINE",
"1517 772 LINE SMOOTH",
"1548 753 OFFCURVE",
"1564 734 OFFCURVE",
"1564 714 CURVE SMOOTH",
"1564 323 LINE SMOOTH",
"1564 173 OFFCURVE",
"1520 98 OFFCURVE",
"1432 98 CURVE SMOOTH",
"1377 98 OFFCURVE",
"1297 192 OFFCURVE",
"1190 380 CURVE",
"1070 380 LINE",
"1070 853 LINE SMOOTH",
"1070 1038 OFFCURVE",
"999 1130 OFFCURVE",
"857 1130 CURVE SMOOTH",
"794 1130 OFFCURVE",
"725 1082 OFFCURVE",
"650 986 CURVE",
"576 1082 OFFCURVE",
"508 1130 OFFCURVE",
"445 1130 CURVE SMOOTH",
"302 1130 OFFCURVE",
"230 1038 OFFCURVE",
"230 853 CURVE SMOOTH",
"230 238 LINE SMOOTH",
"230 79 OFFCURVE",
"310 0 OFFCURVE",
"470 0 CURVE SMOOTH",
"600 0 LINE",
"600 108 LINE",
"470 108 LINE SMOOTH",
"389 108 OFFCURVE",
"348 151 OFFCURVE",
"348 238 CURVE SMOOTH",
"348 853 LINE SMOOTH",
"348 964 OFFCURVE",
"380 1020 OFFCURVE",
"445 1020 CURVE SMOOTH",
"482 1020 OFFCURVE",
"532 979 OFFCURVE",
"596 896 CURVE SMOOTH",
"617 869 OFFCURVE",
"635 855 OFFCURVE",
"650 855 CURVE SMOOTH",
"665 855 OFFCURVE",
"683 869 OFFCURVE",
"704 896 CURVE SMOOTH",
"769 979 OFFCURVE",
"820 1020 OFFCURVE",
"857 1020 CURVE SMOOTH",
"920 1020 OFFCURVE",
"952 964 OFFCURVE",
"952 853 CURVE SMOOTH",
"952 380 LINE",
"812 380 LINE",
"812 282 LINE",
"952 282 LINE",
"952 0 LINE",
"1070 0 LINE",
"1070 282 LINE",
"1130 282 LINE",
"1238 94 OFFCURVE",
"1339 0 OFFCURVE",
"1432 0 CURVE SMOOTH",
"1599 0 OFFCURVE",
"1682 108 OFFCURVE",
"1682 323 CURVE SMOOTH",
"1682 714 LINE SMOOTH"
);
}
);
width = 1912;
},
{
layerId = "3BE6379C-89A1-45B5-97C8-F079248A4F49";
paths = (
{
closed = 1;
nodes = (
"822 380 LINE",
"822 322 LINE",
"982 322 LINE",
"982 0 LINE",
"1040 0 LINE",
"1040 329 LINE",
"1060 329 LINE",
"1201 110 OFFCURVE",
"1322 0 OFFCURVE",
"1422 0 CURVE SMOOTH",
"1555 0 OFFCURVE",
"1622 108 OFFCURVE",
"1622 323 CURVE SMOOTH",
"1622 714 LINE SMOOTH",
"1622 751 OFFCURVE",
"1585 792 OFFCURVE",
"1512 837 CURVE SMOOTH",
"1402 903 LINE",
"1402 992 LINE SMOOTH",
"1402 1045 OFFCURVE",
"1435 1072 OFFCURVE",
"1502 1072 CURVE SMOOTH",
"1652 1072 LINE",
"1652 1130 LINE",
"1502 1130 LINE SMOOTH",
"1397 1130 OFFCURVE",
"1344 1084 OFFCURVE",
"1344 992 CURVE SMOOTH",
"1344 869 LINE",
"1482 786 LINE SMOOTH",
"1537 753 OFFCURVE",
"1564 729 OFFCURVE",
"1564 714 CURVE SMOOTH",
"1564 323 LINE SMOOTH",
"1564 146 OFFCURVE",
"1517 58 OFFCURVE",
"1422 58 CURVE SMOOTH",
"1341 58 OFFCURVE",
"1230 165 OFFCURVE",
"1090 380 CURVE",
"1040 380 LINE",
"1040 853 LINE SMOOTH",
"1040 1038 OFFCURVE",
"979 1130 OFFCURVE",
"857 1130 CURVE SMOOTH",
"794 1130 OFFCURVE",
"725 1082 OFFCURVE",
"650 986 CURVE",
"576 1082 OFFCURVE",
"508 1130 OFFCURVE",
"445 1130 CURVE SMOOTH",
"322 1130 OFFCURVE",
"260 1038 OFFCURVE",
"260 853 CURVE SMOOTH",
"260 238 LINE SMOOTH",
"260 79 OFFCURVE",
"330 0 OFFCURVE",
"470 0 CURVE SMOOTH",
"600 0 LINE",
"600 58 LINE",
"470 58 LINE SMOOTH",
"369 58 OFFCURVE",
"318 118 OFFCURVE",
"318 238 CURVE SMOOTH",
"318 853 LINE SMOOTH",
"318 999 OFFCURVE",
"360 1072 OFFCURVE",
"445 1072 CURVE SMOOTH",
"482 1072 OFFCURVE",
"532 1033 OFFCURVE",
"596 954 CURVE SMOOTH",
"617 928 OFFCURVE",
"635 915 OFFCURVE",
"650 915 CURVE SMOOTH",
"665 915 OFFCURVE",
"683 928 OFFCURVE",
"704 954 CURVE SMOOTH",
"769 1033 OFFCURVE",
"820 1072 OFFCURVE",
"857 1072 CURVE SMOOTH",
"940 1072 OFFCURVE",
"982 999 OFFCURVE",
"982 853 CURVE SMOOTH",
"982 380 LINE"
);
}
);
width = 1912;
}
);
note = uni178D;
unicode = 178D;
},
{
glyphname = uni178E;
lastChange = "2021-05-28 12:58:35 +0000";
layers = (
{
layerId = "372009DC-CA12-41C8-98C7-C44FC6D5F55D";
paths = (
{
closed = 1;
nodes = (
"1288 445 LINE",
"1140 304 LINE",
"1140 807 LINE SMOOTH",
"1140 1042 OFFCURVE",
"968 1160 OFFCURVE",
"625 1160 CURVE SMOOTH",
"282 1160 OFFCURVE",
"110 1042 OFFCURVE",
"110 807 CURVE SMOOTH",
"110 298 LINE SMOOTH",
"110 99 OFFCURVE",
"230 0 OFFCURVE",
"470 0 CURVE SMOOTH",
"600 0 LINE",
"600 228 LINE",
"530 228 LINE SMOOTH",
"495 228 OFFCURVE",
"478 251 OFFCURVE",
"478 298 CURVE SMOOTH",
"478 807 LINE SMOOTH",
"478 890 OFFCURVE",
"527 932 OFFCURVE",
"625 932 CURVE SMOOTH",
"723 932 OFFCURVE",
"772 890 OFFCURVE",
"772 807 CURVE SMOOTH",
"772 0 LINE",
"1171 0 LINE",
"1288 137 LINE",
"1404 0 LINE",
"1802 0 LINE",
"1802 807 LINE SMOOTH",
"1802 890 OFFCURVE",
"1851 932 OFFCURVE",
"1949 932 CURVE SMOOTH",
"2047 932 OFFCURVE",
"2096 890 OFFCURVE",
"2096 807 CURVE SMOOTH",
"2096 0 LINE",
"2464 0 LINE",
"2464 807 LINE SMOOTH",
"2464 1042 OFFCURVE",
"2292 1160 OFFCURVE",
"1949 1160 CURVE SMOOTH",
"1606 1160 OFFCURVE",
"1434 1042 OFFCURVE",
"1434 807 CURVE SMOOTH",
"1434 305 LINE"
);
}
);
width = 2574;
},
{
layerId = "A36153DC-C9CC-437F-8D19-86D84E7E38EA";
paths = (
{
closed = 1;
nodes = (
"1288 405 LINE",
"1110 264 LINE",
"1110 807 LINE SMOOTH",
"1110 1022 OFFCURVE",
"948 1130 OFFCURVE",
"625 1130 CURVE SMOOTH",
"302 1130 OFFCURVE",
"140 1022 OFFCURVE",
"140 807 CURVE SMOOTH",
"140 298 LINE SMOOTH",
"140 99 OFFCURVE",
"250 0 OFFCURVE",
"470 0 CURVE SMOOTH",
"600 0 LINE",
"600 228 LINE",
"530 228 LINE SMOOTH",
"475 228 OFFCURVE",
"448 251 OFFCURVE",
"448 298 CURVE SMOOTH",
"448 807 LINE SMOOTH",
"448 890 OFFCURVE",
"507 932 OFFCURVE",
"625 932 CURVE SMOOTH",
"743 932 OFFCURVE",
"802 890 OFFCURVE",
"802 807 CURVE SMOOTH",
"802 0 LINE",
"1141 0 LINE",
"1288 137 LINE",
"1434 0 LINE",
"1772 0 LINE",
"1772 807 LINE SMOOTH",
"1772 890 OFFCURVE",
"1831 932 OFFCURVE",
"1949 932 CURVE SMOOTH",
"2067 932 OFFCURVE",
"2126 890 OFFCURVE",
"2126 807 CURVE SMOOTH",
"2126 0 LINE",
"2434 0 LINE",
"2434 807 LINE SMOOTH",
"2434 1022 OFFCURVE",
"2272 1130 OFFCURVE",
"1949 1130 CURVE SMOOTH",
"1626 1130 OFFCURVE",
"1464 1022 OFFCURVE",
"1464 807 CURVE SMOOTH",
"1464 265 LINE"
);
}
);
width = 2574;
},
{
layerId = "607A0539-44D7-4182-901A-4BFA5CCC01F8";
paths = (
{
closed = 1;
nodes = (
"200 79 OFFCURVE",
"290 0 OFFCURVE",
"470 0 CURVE SMOOTH",
"600 0 LINE",
"600 168 LINE",
"470 168 LINE SMOOTH",
"415 168 OFFCURVE",
"388 191 OFFCURVE",
"388 238 CURVE SMOOTH",
"388 807 LINE SMOOTH",
"388 930 OFFCURVE",
"467 992 OFFCURVE",
"625 992 CURVE SMOOTH",
"783 992 OFFCURVE",
"862 930 OFFCURVE",
"862 807 CURVE SMOOTH",
"862 0 LINE",
"1081 0 LINE",
"1288 187 LINE",
"1494 0 LINE",
"1712 0 LINE",
"1712 807 LINE SMOOTH",
"1712 930 OFFCURVE",
"1791 992 OFFCURVE",
"1949 992 CURVE SMOOTH",
"2107 992 OFFCURVE",
"2186 930 OFFCURVE",
"2186 807 CURVE SMOOTH",
"2186 0 LINE",
"2374 0 LINE",
"2374 807 LINE SMOOTH",
"2374 1022 OFFCURVE",
"2232 1130 OFFCURVE",
"1949 1130 CURVE SMOOTH",
"1666 1130 OFFCURVE",
"1524 1022 OFFCURVE",
"1524 807 CURVE SMOOTH",
"1524 167 LINE",
"1288 382 LINE",
"1050 166 LINE",
"1050 807 LINE SMOOTH",
"1050 1022 OFFCURVE",
"908 1130 OFFCURVE",
"625 1130 CURVE SMOOTH",
"342 1130 OFFCURVE",
"200 1022 OFFCURVE",
"200 807 CURVE SMOOTH",
"200 238 LINE SMOOTH"
);
}
);
width = 2574;
},
{
layerId = "DF847F4E-D23C-40FA-8597-1D02BA148938";
paths = (
{
closed = 1;
nodes = (
"1292 383 LINE",
"1020 134 LINE",
"1020 807 LINE SMOOTH",
"1020 1022 OFFCURVE",
"888 1130 OFFCURVE",
"625 1130 CURVE SMOOTH",
"362 1130 OFFCURVE",
"230 1022 OFFCURVE",
"230 807 CURVE SMOOTH",
"230 238 LINE SMOOTH",
"230 79 OFFCURVE",
"310 0 OFFCURVE",
"470 0 CURVE SMOOTH",
"600 0 LINE",
"600 108 LINE",
"470 108 LINE SMOOTH",
"389 108 OFFCURVE",
"348 151 OFFCURVE",
"348 238 CURVE SMOOTH",
"348 807 LINE SMOOTH",
"348 957 OFFCURVE",
"440 1032 OFFCURVE",
"625 1032 CURVE SMOOTH",
"810 1032 OFFCURVE",
"902 957 OFFCURVE",
"902 807 CURVE SMOOTH",
"902 0 LINE",
"1020 0 LINE",
"1292 249 LINE",
"1564 0 LINE",
"1682 0 LINE",
"1682 807 LINE SMOOTH",
"1682 957 OFFCURVE",
"1773 1032 OFFCURVE",
"1954 1032 CURVE SMOOTH",
"2135 1032 OFFCURVE",
"2226 957 OFFCURVE",
"2226 807 CURVE SMOOTH",
"2226 0 LINE",
"2344 0 LINE",
"2344 807 LINE SMOOTH",
"2344 1022 OFFCURVE",
"2214 1130 OFFCURVE",
"1954 1130 CURVE SMOOTH",
"1694 1130 OFFCURVE",
"1564 1022 OFFCURVE",
"1564 807 CURVE SMOOTH",
"1564 134 LINE"
);
}
);
width = 2574;
},
{
layerId = "3BE6379C-89A1-45B5-97C8-F079248A4F49";
paths = (
{
closed = 1;
nodes = (
"990 0 LINE",
"1292 255 LINE",
"1594 0 LINE",
"1652 0 LINE",
"1652 807 LINE SMOOTH",
"1652 984 OFFCURVE",
"1753 1072 OFFCURVE",
"1954 1072 CURVE SMOOTH",
"2155 1072 OFFCURVE",
"2256 984 OFFCURVE",
"2256 807 CURVE SMOOTH",
"2256 0 LINE",
"2314 0 LINE",
"2314 807 LINE SMOOTH",
"2314 1022 OFFCURVE",
"2194 1130 OFFCURVE",
"1954 1130 CURVE SMOOTH",
"1714 1130 OFFCURVE",
"1594 1022 OFFCURVE",
"1594 807 CURVE SMOOTH",
"1594 76 LINE",
"1292 328 LINE",
"990 76 LINE",
"990 807 LINE SMOOTH",
"990 1022 OFFCURVE",
"868 1130 OFFCURVE",
"625 1130 CURVE SMOOTH",
"382 1130 OFFCURVE",
"260 1022 OFFCURVE",
"260 807 CURVE SMOOTH",
"260 238 LINE SMOOTH",
"260 79 OFFCURVE",
"330 0 OFFCURVE",
"470 0 CURVE SMOOTH",
"600 0 LINE",
"600 58 LINE",
"470 58 LINE SMOOTH",
"369 58 OFFCURVE",
"318 118 OFFCURVE",
"318 238 CURVE SMOOTH",
"318 807 LINE SMOOTH",
"318 984 OFFCURVE",
"420 1072 OFFCURVE",
"625 1072 CURVE SMOOTH",
"830 1072 OFFCURVE",
"932 984 OFFCURVE",
"932 807 CURVE SMOOTH",
"932 0 LINE"
);
}
);
width = 2574;
}
);
note = uni178E;
unicode = 178E;
},
{
glyphname = uni178F;
lastChange = "2021-05-28 12:58:35 +0000";
layers = (
{
layerId = "372009DC-CA12-41C8-98C7-C44FC6D5F55D";
paths = (
{
closed = 1;
nodes = (
"110 1160 LINE",
"110 932 LINE",
"1190 932 LINE",
"1190 1160 LINE"
);
},
{
closed = 1;
nodes = (
"478 551 OFFCURVE",
"541 592 OFFCURVE",
"650 592 CURVE SMOOTH",
"759 592 OFFCURVE",
"822 551 OFFCURVE",
"822 487 CURVE SMOOTH",
"822 0 LINE",
"1190 0 LINE",
"1190 487 LINE SMOOTH",
"1190 702 OFFCURVE",
"1010 810 OFFCURVE",
"650 810 CURVE SMOOTH",
"290 810 OFFCURVE",
"110 702 OFFCURVE",
"110 487 CURVE SMOOTH",
"110 298 LINE SMOOTH",
"110 99 OFFCURVE",
"230 0 OFFCURVE",
"470 0 CURVE SMOOTH",
"600 0 LINE",
"600 258 LINE",
"530 258 LINE SMOOTH",
"495 258 OFFCURVE",
"478 271 OFFCURVE",
"478 298 CURVE SMOOTH",
"478 487 LINE SMOOTH"
);
}
);
width = 1300;
},
{
layerId = "A36153DC-C9CC-437F-8D19-86D84E7E38EA";
paths = (
{
closed = 1;
nodes = (
"1160 932 LINE",
"1160 1130 LINE",
"140 1130 LINE",
"140 932 LINE"
);
},
{
closed = 1;
nodes = (
"448 577 OFFCURVE",
"515 622 OFFCURVE",
"650 622 CURVE SMOOTH",
"785 622 OFFCURVE",
"852 577 OFFCURVE",
"852 487 CURVE SMOOTH",
"852 0 LINE",
"1160 0 LINE",
"1160 487 LINE SMOOTH",
"1160 702 OFFCURVE",
"990 810 OFFCURVE",
"650 810 CURVE SMOOTH",
"310 810 OFFCURVE",
"140 702 OFFCURVE",
"140 487 CURVE SMOOTH",
"140 298 LINE SMOOTH",
"140 99 OFFCURVE",
"250 0 OFFCURVE",
"470 0 CURVE SMOOTH",
"600 0 LINE",
"600 228 LINE",
"530 228 LINE SMOOTH",
"475 228 OFFCURVE",
"448 251 OFFCURVE",
"448 298 CURVE SMOOTH",
"448 487 LINE SMOOTH"
);
}
);
width = 1300;
},
{
layerId = "607A0539-44D7-4182-901A-4BFA5CCC01F8";
paths = (
{
closed = 1;
nodes = (
"1100 992 LINE",
"1100 1130 LINE",
"200 1130 LINE",
"200 992 LINE"
);
},
{
closed = 1;
nodes = (
"200 79 OFFCURVE",
"290 0 OFFCURVE",
"470 0 CURVE SMOOTH",
"600 0 LINE",
"600 168 LINE",
"470 168 LINE SMOOTH",
"415 168 OFFCURVE",
"388 191 OFFCURVE",
"388 238 CURVE SMOOTH",
"388 517 LINE SMOOTH",
"388 640 OFFCURVE",
"475 702 OFFCURVE",
"650 702 CURVE SMOOTH",
"825 702 OFFCURVE",
"912 640 OFFCURVE",
"912 517 CURVE SMOOTH",
"912 0 LINE",
"1100 0 LINE",
"1100 517 LINE SMOOTH",
"1100 732 OFFCURVE",
"950 840 OFFCURVE",
"650 840 CURVE SMOOTH",
"350 840 OFFCURVE",
"200 732 OFFCURVE",
"200 517 CURVE SMOOTH",
"200 238 LINE SMOOTH"
);
}
);
width = 1300;
},
{
layerId = "DF847F4E-D23C-40FA-8597-1D02BA148938";
paths = (
{
closed = 1;
nodes = (
"1070 1032 LINE",
"1070 1130 LINE",
"230 1130 LINE",
"230 1032 LINE"
);
},
{
closed = 1;
nodes = (
"230 79 OFFCURVE",
"310 0 OFFCURVE",
"470 0 CURVE SMOOTH",
"600 0 LINE",
"600 108 LINE",
"470 108 LINE SMOOTH",
"389 108 OFFCURVE",
"348 151 OFFCURVE",
"348 238 CURVE SMOOTH",
"348 517 LINE SMOOTH",
"348 667 OFFCURVE",
"449 742 OFFCURVE",
"650 742 CURVE SMOOTH",
"851 742 OFFCURVE",
"952 667 OFFCURVE",
"952 517 CURVE SMOOTH",
"952 0 LINE",
"1070 0 LINE",
"1070 517 LINE SMOOTH",
"1070 732 OFFCURVE",
"930 840 OFFCURVE",
"650 840 CURVE SMOOTH",
"370 840 OFFCURVE",
"230 732 OFFCURVE",
"230 517 CURVE SMOOTH",
"230 238 LINE SMOOTH"
);
}
);
width = 1300;
},
{
layerId = "3BE6379C-89A1-45B5-97C8-F079248A4F49";
paths = (
{
closed = 1;
nodes = (
"260 1072 LINE",
"1040 1072 LINE",
"1040 1130 LINE",
"260 1130 LINE"
);
},
{
closed = 1;
nodes = (
"260 79 OFFCURVE",
"330 0 OFFCURVE",
"470 0 CURVE SMOOTH",
"600 0 LINE",
"600 58 LINE",
"470 58 LINE SMOOTH",
"369 58 OFFCURVE",
"318 118 OFFCURVE",
"318 238 CURVE SMOOTH",
"318 517 LINE SMOOTH",
"318 694 OFFCURVE",
"429 782 OFFCURVE",
"650 782 CURVE SMOOTH",
"871 782 OFFCURVE",
"982 694 OFFCURVE",
"982 517 CURVE SMOOTH",
"982 0 LINE",
"1040 0 LINE",
"1040 517 LINE SMOOTH",
"1040 732 OFFCURVE",
"910 840 OFFCURVE",
"650 840 CURVE SMOOTH",
"390 840 OFFCURVE",
"260 732 OFFCURVE",
"260 517 CURVE SMOOTH",
"260 238 LINE SMOOTH"
);
}
);
width = 1300;
}
);
note = uni178F;
unicode = 178F;
},
{
glyphname = uni1790;
lastChange = "2021-05-28 12:58:35 +0000";
layers = (
{
layerId = "372009DC-CA12-41C8-98C7-C44FC6D5F55D";
paths = (
{
closed = 1;
nodes = (
"385 932 LINE SMOOTH",
"405 932 OFFCURVE",
"458 922 OFFCURVE",
"543 902 CURVE SMOOTH",
"615 882 OFFCURVE",
"684 872 OFFCURVE",
"750 872 CURVE SMOOTH",
"1043 872 OFFCURVE",
"1190 983 OFFCURVE",
"1190 1205 CURVE SMOOTH",
"1190 1280 LINE",
"822 1280 LINE",
"822 1205 LINE SMOOTH",
"822 1135 OFFCURVE",
"795 1100 OFFCURVE",
"740 1100 CURVE SMOOTH",
"633 1100 OFFCURVE",
"554 1110 OFFCURVE",
"501 1130 CURVE",
"435 1150 OFFCURVE",
"386 1160 OFFCURVE",
"355 1160 CURVE SMOOTH",
"258 1160 LINE SMOOTH",
"113 1160 OFFCURVE",
"40 1097 OFFCURVE",
"40 972 CURVE SMOOTH",
"40 847 LINE",
"110 713 LINE",
"110 323 LINE SMOOTH",
"110 108 OFFCURVE",
"290 0 OFFCURVE",
"650 0 CURVE SMOOTH",
"1010 0 OFFCURVE",
"1190 108 OFFCURVE",
"1190 323 CURVE SMOOTH",
"1190 780 LINE",
"700 780 LINE",
"700 542 LINE",
"822 542 LINE",
"822 323 LINE SMOOTH",
"822 260 OFFCURVE",
"765 228 OFFCURVE",
"650 228 CURVE SMOOTH",
"535 228 OFFCURVE",
"478 260 OFFCURVE",
"478 323 CURVE SMOOTH",
"478 714 LINE SMOOTH",
"478 747 OFFCURVE",
"435 805 OFFCURVE",
"348 890 CURVE",
"348 932 LINE"
);
}
);
width = 1300;
},
{
layerId = "A36153DC-C9CC-437F-8D19-86D84E7E38EA";
paths = (
{
closed = 1;
nodes = (
"448 746 OFFCURVE",
"405 805 OFFCURVE",
"318 890 CURVE",
"318 932 LINE",
"355 932 LINE SMOOTH",
"375 932 OFFCURVE",
"428 922 OFFCURVE",
"513 902 CURVE SMOOTH",
"598 882 OFFCURVE",
"683 872 OFFCURVE",
"770 872 CURVE SMOOTH",
"1030 872 OFFCURVE",
"1160 973 OFFCURVE",
"1160 1175 CURVE SMOOTH",
"1160 1280 LINE",
"852 1280 LINE",
"852 1175 LINE SMOOTH",
"852 1105 OFFCURVE",
"821 1070 OFFCURVE",
"760 1070 CURVE SMOOTH",
"653 1070 OFFCURVE",
"567 1080 OFFCURVE",
"501 1100 CURVE SMOOTH",
"435 1120 OFFCURVE",
"386 1130 OFFCURVE",
"355 1130 CURVE SMOOTH",
"258 1130 LINE SMOOTH",
"126 1130 OFFCURVE",
"60 1077 OFFCURVE",
"60 972 CURVE SMOOTH",
"60 847 LINE",
"140 714 LINE",
"140 323 LINE SMOOTH",
"140 108 OFFCURVE",
"310 0 OFFCURVE",
"650 0 CURVE SMOOTH",
"990 0 OFFCURVE",
"1160 108 OFFCURVE",
"1160 323 CURVE SMOOTH",
"1160 780 LINE",
"700 780 LINE",
"700 572 LINE",
"852 572 LINE",
"852 323 LINE SMOOTH",
"852 240 OFFCURVE",
"785 198 OFFCURVE",
"650 198 CURVE SMOOTH",
"515 198 OFFCURVE",
"448 240 OFFCURVE",
"448 323 CURVE SMOOTH",
"448 714 LINE SMOOTH"
);
}
);
width = 1300;
},
{
layerId = "607A0539-44D7-4182-901A-4BFA5CCC01F8";
paths = (
{
closed = 1;
nodes = (
"200 108 OFFCURVE",
"350 0 OFFCURVE",
"650 0 CURVE SMOOTH",
"950 0 OFFCURVE",
"1100 108 OFFCURVE",
"1100 323 CURVE SMOOTH",
"1100 800 LINE",
"700 800 LINE",
"700 632 LINE",
"912 632 LINE",
"912 323 LINE SMOOTH",
"912 200 OFFCURVE",
"825 138 OFFCURVE",
"650 138 CURVE SMOOTH",
"475 138 OFFCURVE",
"388 200 OFFCURVE",
"388 323 CURVE SMOOTH",
"388 734 LINE SMOOTH",
"388 766 OFFCURVE",
"345 825 OFFCURVE",
"258 910 CURVE",
"258 992 LINE",
"355 992 LINE SMOOTH",
"375 992 OFFCURVE",
"428 982 OFFCURVE",
"513 962 CURVE SMOOTH",
"598 942 OFFCURVE",
"683 932 OFFCURVE",
"770 932 CURVE SMOOTH",
"990 932 OFFCURVE",
"1100 1013 OFFCURVE",
"1100 1175 CURVE SMOOTH",
"1100 1280 LINE",
"912 1280 LINE",
"912 1175 LINE SMOOTH",
"912 1105 OFFCURVE",
"861 1070 OFFCURVE",
"760 1070 CURVE SMOOTH",
"653 1070 OFFCURVE",
"567 1080 OFFCURVE",
"501 1100 CURVE SMOOTH",
"435 1120 OFFCURVE",
"386 1130 OFFCURVE",
"355 1130 CURVE SMOOTH",
"258 1130 LINE SMOOTH",
"153 1130 OFFCURVE",
"100 1084 OFFCURVE",
"100 992 CURVE SMOOTH",
"100 867 LINE",
"200 734 LINE",
"200 323 LINE SMOOTH"
);
}
);
width = 1300;
},
{
layerId = "DF847F4E-D23C-40FA-8597-1D02BA148938";
paths = (
{
closed = 1;
nodes = (
"230 108 OFFCURVE",
"370 0 OFFCURVE",
"650 0 CURVE SMOOTH",
"930 0 OFFCURVE",
"1070 108 OFFCURVE",
"1070 323 CURVE SMOOTH",
"1070 840 LINE",
"700 840 LINE",
"700 732 LINE",
"952 732 LINE",
"952 323 LINE SMOOTH",
"952 173 OFFCURVE",
"851 98 OFFCURVE",
"650 98 CURVE SMOOTH",
"449 98 OFFCURVE",
"348 173 OFFCURVE",
"348 323 CURVE SMOOTH",
"348 714 LINE SMOOTH",
"348 759 OFFCURVE",
"323 803 OFFCURVE",
"273 846 CURVE SMOOTH",
"198 910 LINE",
"198 992 LINE SMOOTH",
"198 1019 OFFCURVE",
"215 1032 OFFCURVE",
"248 1032 CURVE SMOOTH",
"355 1032 LINE SMOOTH",
"375 1032 OFFCURVE",
"428 1022 OFFCURVE",
"513 1002 CURVE SMOOTH",
"598 982 OFFCURVE",
"683 972 OFFCURVE",
"770 972 CURVE SMOOTH",
"970 972 OFFCURVE",
"1070 1040 OFFCURVE",
"1070 1175 CURVE SMOOTH",
"1070 1280 LINE",
"952 1280 LINE",
"952 1175 LINE SMOOTH",
"952 1105 OFFCURVE",
"888 1070 OFFCURVE",
"760 1070 CURVE SMOOTH",
"653 1070 OFFCURVE",
"567 1080 OFFCURVE",
"501 1100 CURVE SMOOTH",
"435 1120 OFFCURVE",
"386 1130 OFFCURVE",
"355 1130 CURVE SMOOTH",
"248 1130 LINE SMOOTH",
"149 1130 OFFCURVE",
"100 1084 OFFCURVE",
"100 992 CURVE SMOOTH",
"100 867 LINE",
"198 775 LINE SMOOTH",
"219 754 OFFCURVE",
"230 734 OFFCURVE",
"230 714 CURVE SMOOTH",
"230 323 LINE SMOOTH"
);
}
);
width = 1300;
},
{
layerId = "3BE6379C-89A1-45B5-97C8-F079248A4F49";
paths = (
{
closed = 1;
nodes = (
"318 761 OFFCURVE",
"291 804 OFFCURVE",
"238 842 CURVE SMOOTH",
"158 899 LINE",
"158 992 LINE SMOOTH",
"158 1045 OFFCURVE",
"188 1072 OFFCURVE",
"248 1072 CURVE SMOOTH",
"355 1072 LINE SMOOTH",
"376 1072 OFFCURVE",
"429 1059 OFFCURVE",
"513 1032 CURVE SMOOTH",
"597 1005 OFFCURVE",
"683 992 OFFCURVE",
"770 992 CURVE SMOOTH",
"950 992 OFFCURVE",
"1040 1053 OFFCURVE",
"1040 1175 CURVE SMOOTH",
"1040 1280 LINE",
"982 1280 LINE",
"982 1175 LINE SMOOTH",
"982 1092 OFFCURVE",
"908 1050 OFFCURVE",
"760 1050 CURVE SMOOTH",
"653 1050 OFFCURVE",
"566 1063 OFFCURVE",
"501 1090 CURVE SMOOTH",
"436 1117 OFFCURVE",
"387 1130 OFFCURVE",
"355 1130 CURVE SMOOTH",
"248 1130 LINE SMOOTH",
"149 1130 OFFCURVE",
"100 1084 OFFCURVE",
"100 992 CURVE SMOOTH",
"100 869 LINE",
"200 797 LINE SMOOTH",
"240 768 OFFCURVE",
"260 741 OFFCURVE",
"260 714 CURVE SMOOTH",
"260 323 LINE SMOOTH",
"260 108 OFFCURVE",
"390 0 OFFCURVE",
"650 0 CURVE SMOOTH",
"910 0 OFFCURVE",
"1040 108 OFFCURVE",
"1040 323 CURVE SMOOTH",
"1040 840 LINE",
"700 840 LINE",
"700 782 LINE",
"982 782 LINE",
"982 323 LINE SMOOTH",
"982 146 OFFCURVE",
"871 58 OFFCURVE",
"650 58 CURVE SMOOTH",
"429 58 OFFCURVE",
"318 146 OFFCURVE",
"318 323 CURVE SMOOTH",
"318 714 LINE SMOOTH"
);
}
);
width = 1300;
}
);
note = uni1790;
unicode = 1790;
},
{
glyphname = uni1791;
lastChange = "2021-05-28 12:58:35 +0000";
layers = (
{
layerId = "372009DC-CA12-41C8-98C7-C44FC6D5F55D";
paths = (
{
closed = 1;
nodes = (
"730 238 OFFCURVE",
"701 198 OFFCURVE",
"644 198 CURVE SMOOTH",
"587 198 OFFCURVE",
"558 238 OFFCURVE",
"558 317 CURVE SMOOTH",
"558 357 LINE",
"190 357 LINE",
"190 317 LINE SMOOTH",
"190 106 OFFCURVE",
"341 0 OFFCURVE",
"644 0 CURVE SMOOTH",
"947 0 OFFCURVE",
"1098 106 OFFCURVE",
"1098 317 CURVE SMOOTH",
"1098 444 LINE",
"1159 471 OFFCURVE",
"1190 510 OFFCURVE",
"1190 561 CURVE SMOOTH",
"1190 598 LINE SMOOTH",
"1190 659 OFFCURVE",
"1127 690 OFFCURVE",
"1000 690 CURVE SMOOTH",
"863 690 OFFCURVE",
"788 672 OFFCURVE",
"774 636 CURVE",
"729 635 OFFCURVE",
"687 634 OFFCURVE",
"650 634 CURVE",
"535 647 OFFCURVE",
"478 703 OFFCURVE",
"478 803 CURVE SMOOTH",
"478 889 OFFCURVE",
"535 932 OFFCURVE",
"650 932 CURVE SMOOTH",
"765 932 OFFCURVE",
"822 892 OFFCURVE",
"822 813 CURVE",
"1190 813 LINE",
"1190 1044 OFFCURVE",
"1010 1160 OFFCURVE",
"650 1160 CURVE SMOOTH",
"290 1160 OFFCURVE",
"110 1041 OFFCURVE",
"110 803 CURVE SMOOTH",
"110 545 OFFCURVE",
"290 416 OFFCURVE",
"650 416 CURVE SMOOTH",
"683 416 OFFCURVE",
"709 417 OFFCURVE",
"730 419 CURVE",
"730 317 LINE SMOOTH"
);
}
);
width = 1300;
},
{
layerId = "A36153DC-C9CC-437F-8D19-86D84E7E38EA";
paths = (
{
closed = 1;
nodes = (
"760 238 OFFCURVE",
"721 198 OFFCURVE",
"644 198 CURVE SMOOTH",
"567 198 OFFCURVE",
"528 238 OFFCURVE",
"528 317 CURVE SMOOTH",
"528 357 LINE",
"220 357 LINE",
"220 317 LINE SMOOTH",
"220 106 OFFCURVE",
"361 0 OFFCURVE",
"644 0 CURVE SMOOTH",
"927 0 OFFCURVE",
"1068 106 OFFCURVE",
"1068 317 CURVE SMOOTH",
"1068 444 LINE",
"1129 471 OFFCURVE",
"1160 510 OFFCURVE",
"1160 561 CURVE SMOOTH",
"1160 598 LINE SMOOTH",
"1160 659 OFFCURVE",
"1097 690 OFFCURVE",
"970 690 CURVE SMOOTH",
"873 690 OFFCURVE",
"818 665 OFFCURVE",
"804 616 CURVE",
"770 615 OFFCURVE",
"719 614 OFFCURVE",
"650 614 CURVE SMOOTH",
"515 614 OFFCURVE",
"448 670 OFFCURVE",
"448 783 CURVE SMOOTH",
"448 882 OFFCURVE",
"515 932 OFFCURVE",
"650 932 CURVE SMOOTH",
"785 932 OFFCURVE",
"852 892 OFFCURVE",
"852 813 CURVE",
"1160 813 LINE",
"1160 1024 OFFCURVE",
"990 1130 OFFCURVE",
"650 1130 CURVE SMOOTH",
"310 1130 OFFCURVE",
"140 1014 OFFCURVE",
"140 783 CURVE SMOOTH",
"140 538 OFFCURVE",
"310 416 OFFCURVE",
"650 416 CURVE SMOOTH",
"703 416 OFFCURVE",
"739 417 OFFCURVE",
"760 419 CURVE",
"760 317 LINE SMOOTH"
);
}
);
width = 1300;
},
{
layerId = "607A0539-44D7-4182-901A-4BFA5CCC01F8";
paths = (
{
closed = 1;
nodes = (
"760 204 OFFCURVE",
"711 148 OFFCURVE",
"614 148 CURVE SMOOTH",
"517 148 OFFCURVE",
"468 204 OFFCURVE",
"468 317 CURVE SMOOTH",
"468 357 LINE",
"280 357 LINE",
"280 317 LINE SMOOTH",
"280 106 OFFCURVE",
"391 0 OFFCURVE",
"614 0 CURVE SMOOTH",
"837 0 OFFCURVE",
"948 106 OFFCURVE",
"948 317 CURVE SMOOTH",
"948 434 LINE",
"1049 461 OFFCURVE",
"1100 500 OFFCURVE",
"1100 551 CURVE SMOOTH",
"1100 598 LINE SMOOTH",
"1100 646 OFFCURVE",
"1043 670 OFFCURVE",
"930 670 CURVE SMOOTH",
"833 670 OFFCURVE",
"778 632 OFFCURVE",
"764 556 CURVE",
"730 555 OFFCURVE",
"692 554 OFFCURVE",
"650 554 CURVE SMOOTH",
"475 554 OFFCURVE",
"388 630 OFFCURVE",
"388 783 CURVE SMOOTH",
"388 916 OFFCURVE",
"475 982 OFFCURVE",
"650 982 CURVE SMOOTH",
"825 982 OFFCURVE",
"912 926 OFFCURVE",
"912 813 CURVE",
"1100 813 LINE",
"1100 1024 OFFCURVE",
"950 1130 OFFCURVE",
"650 1130 CURVE SMOOTH",
"350 1130 OFFCURVE",
"200 1014 OFFCURVE",
"200 783 CURVE SMOOTH",
"200 532 OFFCURVE",
"350 406 OFFCURVE",
"650 406 CURVE SMOOTH",
"689 406 OFFCURVE",
"726 407 OFFCURVE",
"760 409 CURVE",
"760 317 LINE SMOOTH"
);
}
);
width = 1300;
},
{
layerId = "DF847F4E-D23C-40FA-8597-1D02BA148938";
paths = (
{
closed = 1;
nodes = (
"770 171 OFFCURVE",
"713 98 OFFCURVE",
"599 98 CURVE SMOOTH",
"485 98 OFFCURVE",
"428 171 OFFCURVE",
"428 317 CURVE SMOOTH",
"428 357 LINE",
"310 357 LINE",
"310 317 LINE SMOOTH",
"310 106 OFFCURVE",
"406 0 OFFCURVE",
"599 0 CURVE SMOOTH",
"792 0 OFFCURVE",
"888 106 OFFCURVE",
"888 317 CURVE SMOOTH",
"888 443 LINE",
"1009 464 OFFCURVE",
"1070 506 OFFCURVE",
"1070 568 CURVE SMOOTH",
"1070 656 OFFCURVE",
"1023 700 OFFCURVE",
"930 700 CURVE SMOOTH",
"827 700 OFFCURVE",
"774 642 OFFCURVE",
"770 526 CURVE",
"735 525 OFFCURVE",
"695 524 OFFCURVE",
"650 524 CURVE SMOOTH",
"449 524 OFFCURVE",
"348 610 OFFCURVE",
"348 783 CURVE SMOOTH",
"348 949 OFFCURVE",
"449 1032 OFFCURVE",
"650 1032 CURVE SMOOTH",
"851 1032 OFFCURVE",
"952 959 OFFCURVE",
"952 813 CURVE",
"1070 813 LINE",
"1070 1024 OFFCURVE",
"930 1130 OFFCURVE",
"650 1130 CURVE SMOOTH",
"370 1130 OFFCURVE",
"230 1014 OFFCURVE",
"230 783 CURVE SMOOTH",
"230 545 OFFCURVE",
"370 426 OFFCURVE",
"650 426 CURVE SMOOTH",
"693 426 OFFCURVE",
"733 427 OFFCURVE",
"770 429 CURVE",
"770 317 LINE SMOOTH"
);
},
{
closed = 1;
nodes = (
"892 580 OFFCURVE",
"905 602 OFFCURVE",
"930 602 CURVE SMOOTH",
"958 602 OFFCURVE",
"972 591 OFFCURVE",
"972 568 CURVE SMOOTH",
"972 553 OFFCURVE",
"944 542 OFFCURVE",
"889 535 CURVE"
);
}
);
width = 1300;
},
{
layerId = "3BE6379C-89A1-45B5-97C8-F079248A4F49";
paths = (
{
closed = 1;
nodes = (
"810 144 OFFCURVE",
"741 58 OFFCURVE",
"604 58 CURVE SMOOTH",
"467 58 OFFCURVE",
"398 144 OFFCURVE",
"398 317 CURVE SMOOTH",
"398 357 LINE",
"340 357 LINE",
"340 317 LINE SMOOTH",
"340 106 OFFCURVE",
"428 0 OFFCURVE",
"604 0 CURVE SMOOTH",
"780 0 OFFCURVE",
"868 106 OFFCURVE",
"868 317 CURVE SMOOTH",
"868 462 LINE",
"983 483 OFFCURVE",
"1040 525 OFFCURVE",
"1040 588 CURVE SMOOTH",
"1040 649 OFFCURVE",
"1003 680 OFFCURVE",
"930 680 CURVE SMOOTH",
"850 680 OFFCURVE",
"810 624 OFFCURVE",
"810 513 CURVE SMOOTH",
"810 501 LINE",
"768 496 OFFCURVE",
"715 494 OFFCURVE",
"650 494 CURVE SMOOTH",
"429 494 OFFCURVE",
"318 590 OFFCURVE",
"318 783 CURVE SMOOTH",
"318 976 OFFCURVE",
"429 1072 OFFCURVE",
"650 1072 CURVE SMOOTH",
"871 1072 OFFCURVE",
"982 986 OFFCURVE",
"982 813 CURVE",
"1040 813 LINE",
"1040 1024 OFFCURVE",
"910 1130 OFFCURVE",
"650 1130 CURVE SMOOTH",
"390 1130 OFFCURVE",
"260 1014 OFFCURVE",
"260 783 CURVE SMOOTH",
"260 558 OFFCURVE",
"390 446 OFFCURVE",
"650 446 CURVE SMOOTH",
"707 446 OFFCURVE",
"760 449 OFFCURVE",
"810 454 CURVE",
"810 317 LINE SMOOTH"
);
},
{
closed = 1;
nodes = (
"868 592 OFFCURVE",
"889 632 OFFCURVE",
"930 632 CURVE SMOOTH",
"965 632 OFFCURVE",
"982 617 OFFCURVE",
"982 588 CURVE SMOOTH",
"982 551 OFFCURVE",
"944 525 OFFCURVE",
"868 510 CURVE",
"868 513 LINE SMOOTH"
);
}
);
width = 1300;
}
);
note = uni1791;
unicode = 1791;
},
{
glyphname = uni1792;
lastChange = "2021-05-28 12:58:35 +0000";
layers = (
{
layerId = "372009DC-CA12-41C8-98C7-C44FC6D5F55D";
paths = (
{
closed = 1;
nodes = (
"1190 932 LINE",
"1190 1160 LINE",
"258 1160 LINE SMOOTH",
"113 1160 OFFCURVE",
"40 1097 OFFCURVE",
"40 972 CURVE SMOOTH",
"40 847 LINE",
"110 714 LINE",
"110 0 LINE",
"509 0 LINE",
"651 160 LINE",
"792 0 LINE",
"1190 0 LINE",
"1190 820 LINE",
"700 820 LINE",
"700 582 LINE",
"822 582 LINE",
"822 295 LINE",
"651 455 LINE",
"478 294 LINE",
"478 714 LINE SMOOTH",
"478 747 OFFCURVE",
"435 805 OFFCURVE",
"348 890 CURVE",
"348 932 LINE"
);
}
);
width = 1300;
},
{
layerId = "A36153DC-C9CC-437F-8D19-86D84E7E38EA";
paths = (
{
closed = 1;
nodes = (
"479 0 LINE",
"651 160 LINE",
"822 0 LINE",
"1160 0 LINE",
"1160 820 LINE",
"700 820 LINE",
"700 612 LINE",
"852 612 LINE",
"852 265 LINE",
"651 425 LINE",
"448 264 LINE",
"448 714 LINE SMOOTH",
"448 746 OFFCURVE",
"405 805 OFFCURVE",
"318 890 CURVE",
"318 932 LINE",
"1160 932 LINE",
"1160 1130 LINE",
"258 1130 LINE SMOOTH",
"126 1130 OFFCURVE",
"60 1077 OFFCURVE",
"60 972 CURVE SMOOTH",
"60 847 LINE",
"140 714 LINE",
"140 0 LINE"
);
}
);
width = 1300;
},
{
layerId = "607A0539-44D7-4182-901A-4BFA5CCC01F8";
paths = (
{
closed = 1;
nodes = (
"651 405 LINE",
"388 166 LINE",
"388 734 LINE SMOOTH",
"388 766 OFFCURVE",
"345 825 OFFCURVE",
"258 910 CURVE",
"258 992 LINE",
"1100 992 LINE",
"1100 1130 LINE",
"258 1130 LINE SMOOTH",
"153 1130 OFFCURVE",
"100 1084 OFFCURVE",
"100 992 CURVE SMOOTH",
"100 867 LINE",
"200 734 LINE",
"200 0 LINE",
"419 0 LINE",
"651 210 LINE",
"882 0 LINE",
"1100 0 LINE",
"1100 840 LINE",
"700 840 LINE",
"700 672 LINE",
"912 672 LINE",
"912 167 LINE"
);
}
);
width = 1300;
},
{
layerId = "DF847F4E-D23C-40FA-8597-1D02BA148938";
paths = (
{
closed = 1;
nodes = (
"348 0 LINE",
"650 277 LINE",
"952 0 LINE",
"1070 0 LINE",
"1070 840 LINE",
"700 840 LINE",
"700 732 LINE",
"952 732 LINE",
"952 134 LINE",
"650 411 LINE",
"348 134 LINE",
"348 714 LINE SMOOTH",
"348 759 OFFCURVE",
"323 803 OFFCURVE",
"273 846 CURVE SMOOTH",
"198 910 LINE",
"198 992 LINE SMOOTH",
"198 1019 OFFCURVE",
"215 1032 OFFCURVE",
"248 1032 CURVE SMOOTH",
"1070 1032 LINE",
"1070 1130 LINE",
"248 1130 LINE SMOOTH",
"149 1130 OFFCURVE",
"100 1084 OFFCURVE",
"100 992 CURVE SMOOTH",
"100 867 LINE",
"198 775 LINE SMOOTH",
"219 754 OFFCURVE",
"230 734 OFFCURVE",
"230 714 CURVE SMOOTH",
"230 0 LINE"
);
}
);
width = 1300;
},
{
layerId = "3BE6379C-89A1-45B5-97C8-F079248A4F49";
paths = (
{
closed = 1;
nodes = (
"318 0 LINE",
"650 280 LINE",
"982 0 LINE",
"1040 0 LINE",
"1040 840 LINE",
"700 840 LINE",
"700 782 LINE",
"982 782 LINE",
"982 76 LINE",
"650 353 LINE",
"318 76 LINE",
"318 714 LINE SMOOTH",
"318 761 OFFCURVE",
"291 804 OFFCURVE",
"238 842 CURVE SMOOTH",
"158 899 LINE",
"158 992 LINE SMOOTH",
"158 1045 OFFCURVE",
"188 1072 OFFCURVE",
"248 1072 CURVE SMOOTH",
"1040 1072 LINE",
"1040 1130 LINE",
"248 1130 LINE SMOOTH",
"149 1130 OFFCURVE",
"100 1084 OFFCURVE",
"100 992 CURVE SMOOTH",
"100 869 LINE",
"200 797 LINE SMOOTH",
"240 768 OFFCURVE",
"260 741 OFFCURVE",
"260 714 CURVE SMOOTH",
"260 0 LINE"
);
}
);
width = 1300;
}
);
note = uni1792;
unicode = 1792;
},
{
glyphname = uni1793;
lastChange = "2021-05-28 12:58:35 +0000";
layers = (
{
layerId = "372009DC-CA12-41C8-98C7-C44FC6D5F55D";
paths = (
{
closed = 1;
nodes = (
"478 448 LINE",
"110 448 LINE",
"110 0 LINE",
"478 0 LINE",
"478 156 LINE",
"518 156 OFFCURVE",
"568 130 OFFCURVE",
"629 78 CURVE SMOOTH",
"690 26 OFFCURVE",
"744 0 OFFCURVE",
"790 0 CURVE SMOOTH",
"1057 0 OFFCURVE",
"1190 100 OFFCURVE",
"1190 300 CURVE SMOOTH",
"1190 407 LINE SMOOTH",
"1190 585 OFFCURVE",
"1050 677 OFFCURVE",
"770 684 CURVE SMOOTH",
"575 689 OFFCURVE",
"478 732 OFFCURVE",
"478 813 CURVE SMOOTH",
"478 892 OFFCURVE",
"535 932 OFFCURVE",
"650 932 CURVE SMOOTH",
"765 932 OFFCURVE",
"822 892 OFFCURVE",
"822 813 CURVE SMOOTH",
"822 745 LINE",
"1190 745 LINE",
"1190 813 LINE SMOOTH",
"1190 1044 OFFCURVE",
"1010 1160 OFFCURVE",
"650 1160 CURVE SMOOTH",
"290 1160 OFFCURVE",
"110 1044 OFFCURVE",
"110 813 CURVE SMOOTH",
"110 582 OFFCURVE",
"330 466 OFFCURVE",
"770 466 CURVE SMOOTH",
"805 466 OFFCURVE",
"822 446 OFFCURVE",
"822 407 CURVE SMOOTH",
"822 300 LINE SMOOTH",
"822 252 OFFCURVE",
"811 228 OFFCURVE",
"790 228 CURVE",
"665 327 OFFCURVE",
"570 376 OFFCURVE",
"507 376 CURVE SMOOTH",
"496 376 OFFCURVE",
"486 375 OFFCURVE",
"478 372 CURVE"
);
}
);
width = 1300;
},
{
layerId = "A36153DC-C9CC-437F-8D19-86D84E7E38EA";
paths = (
{
closed = 1;
nodes = (
"448 0 LINE",
"448 156 LINE",
"487 156 OFFCURVE",
"543 130 OFFCURVE",
"614 78 CURVE SMOOTH",
"685 26 OFFCURVE",
"743 0 OFFCURVE",
"790 0 CURVE SMOOTH",
"1037 0 OFFCURVE",
"1160 100 OFFCURVE",
"1160 300 CURVE SMOOTH",
"1160 407 LINE SMOOTH",
"1160 565 OFFCURVE",
"1030 647 OFFCURVE",
"770 654 CURVE SMOOTH",
"555 661 OFFCURVE",
"448 714 OFFCURVE",
"448 813 CURVE SMOOTH",
"448 892 OFFCURVE",
"515 932 OFFCURVE",
"650 932 CURVE SMOOTH",
"785 932 OFFCURVE",
"852 892 OFFCURVE",
"852 813 CURVE SMOOTH",
"852 725 LINE",
"1160 725 LINE",
"1160 813 LINE SMOOTH",
"1160 1024 OFFCURVE",
"990 1130 OFFCURVE",
"650 1130 CURVE SMOOTH",
"310 1130 OFFCURVE",
"140 1024 OFFCURVE",
"140 813 CURVE SMOOTH",
"140 588 OFFCURVE",
"350 473 OFFCURVE",
"770 466 CURVE SMOOTH",
"825 466 OFFCURVE",
"852 446 OFFCURVE",
"852 407 CURVE SMOOTH",
"852 300 LINE SMOOTH",
"852 232 OFFCURVE",
"831 198 OFFCURVE",
"790 198 CURVE",
"623 313 OFFCURVE",
"509 371 OFFCURVE",
"448 372 CURVE",
"448 448 LINE",
"140 448 LINE",
"140 0 LINE"
);
}
);
width = 1300;
},
{
layerId = "607A0539-44D7-4182-901A-4BFA5CCC01F8";
paths = (
{
closed = 1;
nodes = (
"388 0 LINE",
"388 150 LINE SMOOTH",
"388 174 OFFCURVE",
"397 186 OFFCURVE",
"416 186 CURVE SMOOTH",
"437 186 OFFCURVE",
"469 171 OFFCURVE",
"513 141 CURVE SMOOTH",
"668 35 LINE SMOOTH",
"703 12 OFFCURVE",
"743 0 OFFCURVE",
"790 0 CURVE SMOOTH",
"997 0 OFFCURVE",
"1100 100 OFFCURVE",
"1100 300 CURVE SMOOTH",
"1100 407 LINE SMOOTH",
"1100 545 OFFCURVE",
"1000 617 OFFCURVE",
"800 624 CURVE SMOOTH",
"525 631 OFFCURVE",
"388 694 OFFCURVE",
"388 813 CURVE SMOOTH",
"388 932 OFFCURVE",
"475 992 OFFCURVE",
"650 992 CURVE SMOOTH",
"825 992 OFFCURVE",
"912 932 OFFCURVE",
"912 813 CURVE SMOOTH",
"912 725 LINE",
"1100 725 LINE",
"1100 813 LINE SMOOTH",
"1100 1024 OFFCURVE",
"950 1130 OFFCURVE",
"650 1130 CURVE SMOOTH",
"350 1130 OFFCURVE",
"200 1024 OFFCURVE",
"200 813 CURVE SMOOTH",
"200 602 OFFCURVE",
"400 493 OFFCURVE",
"800 486 CURVE SMOOTH",
"875 486 OFFCURVE",
"912 460 OFFCURVE",
"912 407 CURVE SMOOTH",
"912 300 LINE SMOOTH",
"912 192 OFFCURVE",
"871 138 OFFCURVE",
"790 138 CURVE",
"589 269 LINE SMOOTH",
"516 316 OFFCURVE",
"449 341 OFFCURVE",
"388 342 CURVE",
"388 448 LINE",
"200 448 LINE",
"200 0 LINE"
);
}
);
width = 1300;
},
{
layerId = "DF847F4E-D23C-40FA-8597-1D02BA148938";
paths = (
{
closed = 1;
nodes = (
"952 784 OFFCURVE",
"948 757 OFFCURVE",
"940 734 CURVE",
"1053 698 LINE",
"1064 732 OFFCURVE",
"1070 770 OFFCURVE",
"1070 813 CURVE SMOOTH",
"1070 1024 OFFCURVE",
"930 1130 OFFCURVE",
"650 1130 CURVE SMOOTH",
"370 1130 OFFCURVE",
"230 1024 OFFCURVE",
"230 813 CURVE SMOOTH",
"230 615 OFFCURVE",
"420 513 OFFCURVE",
"800 506 CURVE SMOOTH",
"901 506 OFFCURVE",
"952 473 OFFCURVE",
"952 407 CURVE SMOOTH",
"952 300 LINE SMOOTH",
"952 165 OFFCURVE",
"915 98 OFFCURVE",
"840 98 CURVE SMOOTH",
"800 98 OFFCURVE",
"761 113 OFFCURVE",
"722 142 CURVE SMOOTH",
"554 267 OFFCURVE",
"429 331 OFFCURVE",
"348 332 CURVE",
"348 448 LINE",
"230 448 LINE",
"230 0 LINE",
"348 0 LINE",
"348 226 LINE",
"414 226 OFFCURVE",
"515 170 OFFCURVE",
"652 57 CURVE SMOOTH",
"697 19 OFFCURVE",
"760 0 OFFCURVE",
"840 0 CURVE SMOOTH",
"993 0 OFFCURVE",
"1070 100 OFFCURVE",
"1070 300 CURVE SMOOTH",
"1070 407 LINE SMOOTH",
"1070 532 OFFCURVE",
"980 597 OFFCURVE",
"800 604 CURVE SMOOTH",
"499 611 OFFCURVE",
"348 680 OFFCURVE",
"348 813 CURVE SMOOTH",
"348 959 OFFCURVE",
"449 1032 OFFCURVE",
"650 1032 CURVE SMOOTH",
"851 1032 OFFCURVE",
"952 959 OFFCURVE",
"952 813 CURVE SMOOTH"
);
}
);
width = 1300;
},
{
layerId = "3BE6379C-89A1-45B5-97C8-F079248A4F49";
paths = (
{
closed = 1;
nodes = (
"982 774 OFFCURVE",
"977 741 OFFCURVE",
"966 713 CURVE",
"1022 690 LINE",
"1034 726 OFFCURVE",
"1040 767 OFFCURVE",
"1040 813 CURVE SMOOTH",
"1040 1024 OFFCURVE",
"910 1130 OFFCURVE",
"650 1130 CURVE SMOOTH",
"390 1130 OFFCURVE",
"260 1024 OFFCURVE",
"260 813 CURVE SMOOTH",
"260 629 OFFCURVE",
"440 533 OFFCURVE",
"800 526 CURVE SMOOTH",
"921 526 OFFCURVE",
"982 486 OFFCURVE",
"982 407 CURVE SMOOTH",
"982 300 LINE SMOOTH",
"982 139 OFFCURVE",
"935 58 OFFCURVE",
"840 58 CURVE SMOOTH",
"780 58 OFFCURVE",
"727 78 OFFCURVE",
"680 119 CURVE SMOOTH",
"540 240 OFFCURVE",
"419 301 OFFCURVE",
"318 302 CURVE",
"318 448 LINE",
"260 448 LINE",
"260 0 LINE",
"318 0 LINE",
"318 246 LINE",
"411 246 OFFCURVE",
"517 190 OFFCURVE",
"638 77 CURVE SMOOTH",
"693 26 OFFCURVE",
"761 0 OFFCURVE",
"840 0 CURVE SMOOTH",
"973 0 OFFCURVE",
"1040 100 OFFCURVE",
"1040 300 CURVE SMOOTH",
"1040 407 LINE SMOOTH",
"1040 518 OFFCURVE",
"960 577 OFFCURVE",
"800 584 CURVE SMOOTH",
"479 591 OFFCURVE",
"318 668 OFFCURVE",
"318 813 CURVE SMOOTH",
"318 986 OFFCURVE",
"429 1072 OFFCURVE",
"650 1072 CURVE SMOOTH",
"871 1072 OFFCURVE",
"982 986 OFFCURVE",
"982 813 CURVE SMOOTH"
);
}
);
width = 1300;
}
);
note = uni1793;
unicode = 1793;
},
{
glyphname = uni1794;
lastChange = "2021-05-28 12:58:35 +0000";
layers = (
{
layerId = "372009DC-CA12-41C8-98C7-C44FC6D5F55D";
paths = (
{
closed = 1;
nodes = (
"822 704 LINE",
"822 323 LINE SMOOTH",
"822 260 OFFCURVE",
"765 228 OFFCURVE",
"650 228 CURVE SMOOTH",
"535 228 OFFCURVE",
"478 260 OFFCURVE",
"478 323 CURVE SMOOTH",
"478 704 LINE SMOOTH",
"478 749 OFFCURVE",
"453 790 OFFCURVE",
"403 826 CURVE SMOOTH",
"328 880 LINE",
"328 932 LINE",
"508 932 LINE",
"508 1160 LINE",
"238 1160 LINE SMOOTH",
"93 1160 OFFCURVE",
"20 1094 OFFCURVE",
"20 962 CURVE SMOOTH",
"20 827 LINE",
"110 704 LINE",
"110 323 LINE SMOOTH",
"110 108 OFFCURVE",
"290 0 OFFCURVE",
"650 0 CURVE SMOOTH",
"1010 0 OFFCURVE",
"1190 108 OFFCURVE",
"1190 323 CURVE SMOOTH",
"1190 704 LINE SMOOTH",
"1190 749 OFFCURVE",
"1157 790 OFFCURVE",
"1090 826 CURVE SMOOTH",
"990 880 LINE",
"990 932 LINE",
"1190 932 LINE",
"1190 1160 LINE",
"880 1160 LINE SMOOTH",
"741 1160 OFFCURVE",
"672 1084 OFFCURVE",
"672 932 CURVE SMOOTH",
"672 827 LINE"
);
}
);
width = 1300;
},
{
layerId = "A36153DC-C9CC-437F-8D19-86D84E7E38EA";
paths = (
{
closed = 1;
nodes = (
"852 240 OFFCURVE",
"785 198 OFFCURVE",
"650 198 CURVE SMOOTH",
"515 198 OFFCURVE",
"448 240 OFFCURVE",
"448 323 CURVE SMOOTH",
"448 704 LINE SMOOTH",
"448 749 OFFCURVE",
"423 790 OFFCURVE",
"373 826 CURVE SMOOTH",
"298 880 LINE",
"298 932 LINE",
"498 932 LINE",
"498 1130 LINE",
"238 1130 LINE SMOOTH",
"99 1130 OFFCURVE",
"30 1074 OFFCURVE",
"30 962 CURVE SMOOTH",
"30 827 LINE",
"140 704 LINE",
"140 323 LINE SMOOTH",
"140 108 OFFCURVE",
"310 0 OFFCURVE",
"650 0 CURVE SMOOTH",
"990 0 OFFCURVE",
"1160 108 OFFCURVE",
"1160 323 CURVE SMOOTH",
"1160 704 LINE SMOOTH",
"1160 749 OFFCURVE",
"1127 790 OFFCURVE",
"1060 826 CURVE SMOOTH",
"960 880 LINE",
"960 932 LINE",
"1160 932 LINE",
"1160 1130 LINE",
"900 1130 LINE SMOOTH",
"761 1130 OFFCURVE",
"692 1064 OFFCURVE",
"692 932 CURVE SMOOTH",
"692 827 LINE",
"852 704 LINE",
"852 323 LINE SMOOTH"
);
}
);
width = 1300;
},
{
layerId = "607A0539-44D7-4182-901A-4BFA5CCC01F8";
paths = (
{
closed = 1;
nodes = (
"912 200 OFFCURVE",
"825 138 OFFCURVE",
"650 138 CURVE SMOOTH",
"475 138 OFFCURVE",
"388 200 OFFCURVE",
"388 323 CURVE SMOOTH",
"388 734 LINE SMOOTH",
"388 779 OFFCURVE",
"363 820 OFFCURVE",
"313 856 CURVE SMOOTH",
"238 910 LINE",
"238 992 LINE",
"438 992 LINE",
"438 1130 LINE",
"238 1130 LINE SMOOTH",
"119 1130 OFFCURVE",
"60 1084 OFFCURVE",
"60 992 CURVE SMOOTH",
"60 857 LINE",
"200 734 LINE",
"200 323 LINE SMOOTH",
"200 108 OFFCURVE",
"350 0 OFFCURVE",
"650 0 CURVE SMOOTH",
"950 0 OFFCURVE",
"1100 108 OFFCURVE",
"1100 323 CURVE SMOOTH",
"1100 734 LINE SMOOTH",
"1100 779 OFFCURVE",
"1067 820 OFFCURVE",
"1000 856 CURVE SMOOTH",
"900 910 LINE",
"900 992 LINE",
"1100 992 LINE",
"1100 1130 LINE",
"900 1130 LINE SMOOTH",
"781 1130 OFFCURVE",
"722 1084 OFFCURVE",
"722 992 CURVE SMOOTH",
"722 857 LINE",
"912 734 LINE",
"912 323 LINE SMOOTH"
);
}
);
width = 1300;
},
{
layerId = "DF847F4E-D23C-40FA-8597-1D02BA148938";
paths = (
{
closed = 1;
nodes = (
"952 173 OFFCURVE",
"851 98 OFFCURVE",
"650 98 CURVE SMOOTH",
"449 98 OFFCURVE",
"348 173 OFFCURVE",
"348 323 CURVE SMOOTH",
"348 714 LINE SMOOTH",
"348 773 OFFCURVE",
"323 820 OFFCURVE",
"273 856 CURVE SMOOTH",
"198 910 LINE",
"198 992 LINE SMOOTH",
"198 1019 OFFCURVE",
"215 1032 OFFCURVE",
"248 1032 CURVE SMOOTH",
"438 1032 LINE",
"438 1130 LINE",
"248 1130 LINE SMOOTH",
"143 1130 OFFCURVE",
"90 1084 OFFCURVE",
"90 992 CURVE SMOOTH",
"90 857 LINE",
"195 772 LINE SMOOTH",
"218 753 OFFCURVE",
"230 734 OFFCURVE",
"230 714 CURVE SMOOTH",
"230 323 LINE SMOOTH",
"230 108 OFFCURVE",
"370 0 OFFCURVE",
"650 0 CURVE SMOOTH",
"930 0 OFFCURVE",
"1070 108 OFFCURVE",
"1070 323 CURVE SMOOTH",
"1070 714 LINE SMOOTH",
"1070 773 OFFCURVE",
"1037 820 OFFCURVE",
"970 856 CURVE SMOOTH",
"870 910 LINE",
"870 992 LINE SMOOTH",
"870 1019 OFFCURVE",
"887 1032 OFFCURVE",
"920 1032 CURVE SMOOTH",
"1070 1032 LINE",
"1070 1130 LINE",
"920 1130 LINE SMOOTH",
"815 1130 OFFCURVE",
"762 1084 OFFCURVE",
"762 992 CURVE SMOOTH",
"762 857 LINE",
"905 772 LINE SMOOTH",
"936 753 OFFCURVE",
"952 734 OFFCURVE",
"952 714 CURVE SMOOTH",
"952 323 LINE SMOOTH"
);
}
);
width = 1300;
},
{
layerId = "3BE6379C-89A1-45B5-97C8-F079248A4F49";
paths = (
{
closed = 1;
nodes = (
"982 146 OFFCURVE",
"871 58 OFFCURVE",
"650 58 CURVE SMOOTH",
"429 58 OFFCURVE",
"318 146 OFFCURVE",
"318 323 CURVE SMOOTH",
"318 714 LINE SMOOTH",
"318 761 OFFCURVE",
"291 804 OFFCURVE",
"238 842 CURVE SMOOTH",
"158 899 LINE",
"158 992 LINE SMOOTH",
"158 1045 OFFCURVE",
"188 1072 OFFCURVE",
"248 1072 CURVE SMOOTH",
"408 1072 LINE",
"408 1130 LINE",
"248 1130 LINE SMOOTH",
"149 1130 OFFCURVE",
"100 1084 OFFCURVE",
"100 992 CURVE SMOOTH",
"100 869 LINE",
"200 797 LINE SMOOTH",
"240 768 OFFCURVE",
"260 741 OFFCURVE",
"260 714 CURVE SMOOTH",
"260 323 LINE SMOOTH",
"260 108 OFFCURVE",
"390 0 OFFCURVE",
"650 0 CURVE SMOOTH",
"910 0 OFFCURVE",
"1040 108 OFFCURVE",
"1040 323 CURVE SMOOTH",
"1040 714 LINE SMOOTH",
"1040 751 OFFCURVE",
"1003 792 OFFCURVE",
"930 837 CURVE SMOOTH",
"820 903 LINE",
"820 992 LINE SMOOTH",
"820 1045 OFFCURVE",
"853 1072 OFFCURVE",
"920 1072 CURVE SMOOTH",
"1070 1072 LINE",
"1070 1130 LINE",
"920 1130 LINE SMOOTH",
"815 1130 OFFCURVE",
"762 1084 OFFCURVE",
"762 992 CURVE SMOOTH",
"762 869 LINE",
"900 786 LINE SMOOTH",
"955 753 OFFCURVE",
"982 729 OFFCURVE",
"982 714 CURVE SMOOTH",
"982 323 LINE SMOOTH"
);
}
);
width = 1300;
}
);
note = uni1794;
unicode = 1794;
},
{
glyphname = uni1795;
lastChange = "2021-05-28 12:58:35 +0000";
layers = (
{
layerId = "372009DC-CA12-41C8-98C7-C44FC6D5F55D";
paths = (
{
closed = 1;
nodes = (
"385 932 LINE SMOOTH",
"405 932 OFFCURVE",
"458 922 OFFCURVE",
"543 902 CURVE SMOOTH",
"615 882 OFFCURVE",
"684 872 OFFCURVE",
"750 872 CURVE SMOOTH",
"1043 872 OFFCURVE",
"1190 983 OFFCURVE",
"1190 1205 CURVE SMOOTH",
"1190 1280 LINE",
"822 1280 LINE",
"822 1205 LINE SMOOTH",
"822 1135 OFFCURVE",
"795 1100 OFFCURVE",
"740 1100 CURVE SMOOTH",
"633 1100 OFFCURVE",
"554 1110 OFFCURVE",
"501 1130 CURVE",
"435 1150 OFFCURVE",
"386 1160 OFFCURVE",
"355 1160 CURVE SMOOTH",
"258 1160 LINE SMOOTH",
"113 1160 OFFCURVE",
"40 1097 OFFCURVE",
"40 972 CURVE SMOOTH",
"40 847 LINE",
"110 714 LINE",
"110 0 LINE",
"509 0 LINE",
"651 160 LINE",
"792 0 LINE",
"1190 0 LINE",
"1190 820 LINE",
"700 820 LINE",
"700 582 LINE",
"822 582 LINE",
"822 295 LINE",
"651 455 LINE",
"478 294 LINE",
"478 714 LINE SMOOTH",
"478 747 OFFCURVE",
"435 805 OFFCURVE",
"348 890 CURVE",
"348 932 LINE"
);
}
);
width = 1300;
},
{
layerId = "A36153DC-C9CC-437F-8D19-86D84E7E38EA";
paths = (
{
closed = 1;
nodes = (
"651 425 LINE",
"448 264 LINE",
"448 714 LINE SMOOTH",
"448 746 OFFCURVE",
"405 805 OFFCURVE",
"318 890 CURVE",
"318 932 LINE",
"355 932 LINE SMOOTH",
"375 932 OFFCURVE",
"428 922 OFFCURVE",
"513 902 CURVE SMOOTH",
"598 882 OFFCURVE",
"683 872 OFFCURVE",
"770 872 CURVE SMOOTH",
"1030 872 OFFCURVE",
"1160 973 OFFCURVE",
"1160 1175 CURVE SMOOTH",
"1160 1280 LINE",
"852 1280 LINE",
"852 1175 LINE SMOOTH",
"852 1105 OFFCURVE",
"821 1070 OFFCURVE",
"760 1070 CURVE SMOOTH",
"653 1070 OFFCURVE",
"567 1080 OFFCURVE",
"501 1100 CURVE SMOOTH",
"435 1120 OFFCURVE",
"386 1130 OFFCURVE",
"355 1130 CURVE SMOOTH",
"258 1130 LINE SMOOTH",
"126 1130 OFFCURVE",
"60 1077 OFFCURVE",
"60 972 CURVE SMOOTH",
"60 847 LINE",
"140 714 LINE",
"140 0 LINE",
"479 0 LINE",
"651 160 LINE",
"822 0 LINE",
"1160 0 LINE",
"1160 780 LINE",
"700 780 LINE",
"700 572 LINE",
"852 572 LINE",
"852 265 LINE"
);
}
);
width = 1300;
},
{
layerId = "607A0539-44D7-4182-901A-4BFA5CCC01F8";
paths = (
{
closed = 1;
nodes = (
"419 0 LINE",
"651 210 LINE",
"882 0 LINE",
"1100 0 LINE",
"1100 800 LINE",
"700 800 LINE",
"700 632 LINE",
"912 632 LINE",
"912 167 LINE",
"651 405 LINE",
"388 166 LINE",
"388 734 LINE SMOOTH",
"388 766 OFFCURVE",
"345 825 OFFCURVE",
"258 910 CURVE",
"258 992 LINE",
"355 992 LINE SMOOTH",
"375 992 OFFCURVE",
"428 982 OFFCURVE",
"513 962 CURVE SMOOTH",
"598 942 OFFCURVE",
"683 932 OFFCURVE",
"770 932 CURVE SMOOTH",
"990 932 OFFCURVE",
"1100 1013 OFFCURVE",
"1100 1175 CURVE SMOOTH",
"1100 1280 LINE",
"912 1280 LINE",
"912 1175 LINE SMOOTH",
"912 1105 OFFCURVE",
"861 1070 OFFCURVE",
"760 1070 CURVE SMOOTH",
"653 1070 OFFCURVE",
"567 1080 OFFCURVE",
"501 1100 CURVE SMOOTH",
"435 1120 OFFCURVE",
"386 1130 OFFCURVE",
"355 1130 CURVE SMOOTH",
"258 1130 LINE SMOOTH",
"153 1130 OFFCURVE",
"100 1084 OFFCURVE",
"100 992 CURVE SMOOTH",
"100 867 LINE",
"200 734 LINE",
"200 0 LINE"
);
}
);
width = 1300;
},
{
layerId = "DF847F4E-D23C-40FA-8597-1D02BA148938";
paths = (
{
closed = 1;
nodes = (
"700 840 LINE",
"700 732 LINE",
"952 732 LINE",
"952 134 LINE",
"650 411 LINE",
"348 134 LINE",
"348 714 LINE SMOOTH",
"348 759 OFFCURVE",
"323 803 OFFCURVE",
"273 846 CURVE SMOOTH",
"198 910 LINE",
"198 992 LINE SMOOTH",
"198 1019 OFFCURVE",
"215 1032 OFFCURVE",
"248 1032 CURVE SMOOTH",
"355 1032 LINE SMOOTH",
"375 1032 OFFCURVE",
"428 1022 OFFCURVE",
"513 1002 CURVE SMOOTH",
"598 982 OFFCURVE",
"683 972 OFFCURVE",
"770 972 CURVE SMOOTH",
"970 972 OFFCURVE",
"1070 1040 OFFCURVE",
"1070 1175 CURVE SMOOTH",
"1070 1280 LINE",
"952 1280 LINE",
"952 1175 LINE SMOOTH",
"952 1105 OFFCURVE",
"888 1070 OFFCURVE",
"760 1070 CURVE SMOOTH",
"653 1070 OFFCURVE",
"567 1080 OFFCURVE",
"501 1100 CURVE SMOOTH",
"435 1120 OFFCURVE",
"386 1130 OFFCURVE",
"355 1130 CURVE SMOOTH",
"248 1130 LINE SMOOTH",
"149 1130 OFFCURVE",
"100 1084 OFFCURVE",
"100 992 CURVE SMOOTH",
"100 867 LINE",
"198 775 LINE SMOOTH",
"219 754 OFFCURVE",
"230 734 OFFCURVE",
"230 714 CURVE SMOOTH",
"230 0 LINE",
"348 0 LINE",
"650 277 LINE",
"952 0 LINE",
"1070 0 LINE",
"1070 840 LINE"
);
}
);
width = 1300;
},
{
layerId = "3BE6379C-89A1-45B5-97C8-F079248A4F49";
paths = (
{
closed = 1;
nodes = (
"982 782 LINE",
"982 76 LINE",
"650 353 LINE",
"318 76 LINE",
"318 714 LINE SMOOTH",
"318 761 OFFCURVE",
"291 804 OFFCURVE",
"238 842 CURVE SMOOTH",
"158 899 LINE",
"158 992 LINE SMOOTH",
"158 1045 OFFCURVE",
"188 1072 OFFCURVE",
"248 1072 CURVE SMOOTH",
"355 1072 LINE SMOOTH",
"376 1072 OFFCURVE",
"429 1059 OFFCURVE",
"513 1032 CURVE SMOOTH",
"597 1005 OFFCURVE",
"683 992 OFFCURVE",
"770 992 CURVE SMOOTH",
"950 992 OFFCURVE",
"1040 1053 OFFCURVE",
"1040 1175 CURVE SMOOTH",
"1040 1280 LINE",
"982 1280 LINE",
"982 1175 LINE SMOOTH",
"982 1092 OFFCURVE",
"908 1050 OFFCURVE",
"760 1050 CURVE SMOOTH",
"653 1050 OFFCURVE",
"566 1063 OFFCURVE",
"501 1090 CURVE SMOOTH",
"436 1117 OFFCURVE",
"387 1130 OFFCURVE",
"355 1130 CURVE SMOOTH",
"248 1130 LINE SMOOTH",
"149 1130 OFFCURVE",
"100 1084 OFFCURVE",
"100 992 CURVE SMOOTH",
"100 869 LINE",
"200 797 LINE SMOOTH",
"240 768 OFFCURVE",
"260 741 OFFCURVE",
"260 714 CURVE SMOOTH",
"260 0 LINE",
"318 0 LINE",
"650 280 LINE",
"982 0 LINE",
"1040 0 LINE",
"1040 840 LINE",
"700 840 LINE",
"700 782 LINE"
);
}
);
width = 1300;
}
);
note = uni1795;
unicode = 1795;
},
{
glyphname = uni1796;
lastChange = "2021-05-28 12:58:35 +0000";
layers = (
{
layerId = "372009DC-CA12-41C8-98C7-C44FC6D5F55D";
paths = (
{
closed = 1;
nodes = (
"110 99 OFFCURVE",
"230 0 OFFCURVE",
"470 0 CURVE SMOOTH",
"600 0 LINE",
"600 258 LINE",
"530 258 LINE SMOOTH",
"495 258 OFFCURVE",
"478 271 OFFCURVE",
"478 298 CURVE SMOOTH",
"478 833 LINE SMOOTH",
"478 878 OFFCURVE",
"483 900 OFFCURVE",
"494 900 CURVE SMOOTH",
"505 900 OFFCURVE",
"537 869 OFFCURVE",
"591 806 CURVE SMOOTH",
"609 785 OFFCURVE",
"629 775 OFFCURVE",
"650 775 CURVE SMOOTH",
"671 775 OFFCURVE",
"691 785 OFFCURVE",
"709 806 CURVE SMOOTH",
"764 869 OFFCURVE",
"796 900 OFFCURVE",
"807 900 CURVE SMOOTH",
"817 900 OFFCURVE",
"822 878 OFFCURVE",
"822 833 CURVE SMOOTH",
"822 0 LINE",
"1190 0 LINE",
"1190 833 LINE SMOOTH",
"1190 1051 OFFCURVE",
"1092 1160 OFFCURVE",
"897 1160 CURVE SMOOTH",
"820 1160 OFFCURVE",
"737 1119 OFFCURVE",
"650 1036 CURVE",
"563 1119 OFFCURVE",
"482 1160 OFFCURVE",
"405 1160 CURVE SMOOTH",
"208 1160 OFFCURVE",
"110 1051 OFFCURVE",
"110 833 CURVE SMOOTH",
"110 298 LINE SMOOTH"
);
}
);
width = 1300;
},
{
layerId = "A36153DC-C9CC-437F-8D19-86D84E7E38EA";
paths = (
{
closed = 1;
nodes = (
"140 99 OFFCURVE",
"250 0 OFFCURVE",
"470 0 CURVE SMOOTH",
"600 0 LINE",
"600 228 LINE",
"530 228 LINE SMOOTH",
"475 228 OFFCURVE",
"448 251 OFFCURVE",
"448 298 CURVE SMOOTH",
"448 833 LINE SMOOTH",
"448 878 OFFCURVE",
"459 900 OFFCURVE",
"481 900 CURVE SMOOTH",
"500 900 OFFCURVE",
"537 869 OFFCURVE",
"591 806 CURVE SMOOTH",
"609 785 OFFCURVE",
"629 775 OFFCURVE",
"650 775 CURVE SMOOTH",
"671 775 OFFCURVE",
"691 785 OFFCURVE",
"709 806 CURVE SMOOTH",
"764 869 OFFCURVE",
"801 900 OFFCURVE",
"820 900 CURVE SMOOTH",
"841 900 OFFCURVE",
"852 878 OFFCURVE",
"852 833 CURVE SMOOTH",
"852 0 LINE",
"1160 0 LINE",
"1160 833 LINE SMOOTH",
"1160 1031 OFFCURVE",
"1066 1130 OFFCURVE",
"877 1130 CURVE SMOOTH",
"800 1130 OFFCURVE",
"725 1089 OFFCURVE",
"650 1006 CURVE",
"576 1089 OFFCURVE",
"501 1130 OFFCURVE",
"425 1130 CURVE SMOOTH",
"235 1130 OFFCURVE",
"140 1031 OFFCURVE",
"140 833 CURVE SMOOTH",
"140 298 LINE SMOOTH"
);
}
);
width = 1300;
},
{
layerId = "607A0539-44D7-4182-901A-4BFA5CCC01F8";
paths = (
{
closed = 1;
nodes = (
"200 79 OFFCURVE",
"290 0 OFFCURVE",
"470 0 CURVE SMOOTH",
"600 0 LINE",
"600 168 LINE",
"470 168 LINE SMOOTH",
"415 168 OFFCURVE",
"388 191 OFFCURVE",
"388 238 CURVE SMOOTH",
"388 853 LINE SMOOTH",
"388 938 OFFCURVE",
"412 980 OFFCURVE",
"461 980 CURVE SMOOTH",
"494 980 OFFCURVE",
"537 949 OFFCURVE",
"591 886 CURVE SMOOTH",
"609 865 OFFCURVE",
"629 855 OFFCURVE",
"650 855 CURVE SMOOTH",
"671 855 OFFCURVE",
"691 865 OFFCURVE",
"709 886 CURVE SMOOTH",
"764 949 OFFCURVE",
"807 980 OFFCURVE",
"840 980 CURVE SMOOTH",
"888 980 OFFCURVE",
"912 938 OFFCURVE",
"912 853 CURVE SMOOTH",
"912 0 LINE",
"1100 0 LINE",
"1100 853 LINE SMOOTH",
"1100 1038 OFFCURVE",
"1019 1130 OFFCURVE",
"857 1130 CURVE SMOOTH",
"794 1130 OFFCURVE",
"725 1089 OFFCURVE",
"650 1006 CURVE",
"576 1089 OFFCURVE",
"508 1130 OFFCURVE",
"445 1130 CURVE SMOOTH",
"282 1130 OFFCURVE",
"200 1038 OFFCURVE",
"200 853 CURVE SMOOTH",
"200 238 LINE SMOOTH"
);
}
);
width = 1300;
},
{
layerId = "DF847F4E-D23C-40FA-8597-1D02BA148938";
paths = (
{
closed = 1;
nodes = (
"230 79 OFFCURVE",
"310 0 OFFCURVE",
"470 0 CURVE SMOOTH",
"600 0 LINE",
"600 108 LINE",
"470 108 LINE SMOOTH",
"389 108 OFFCURVE",
"348 151 OFFCURVE",
"348 238 CURVE SMOOTH",
"348 853 LINE SMOOTH",
"348 964 OFFCURVE",
"380 1020 OFFCURVE",
"445 1020 CURVE SMOOTH",
"482 1020 OFFCURVE",
"532 979 OFFCURVE",
"596 896 CURVE SMOOTH",
"617 869 OFFCURVE",
"635 855 OFFCURVE",
"650 855 CURVE SMOOTH",
"665 855 OFFCURVE",
"683 869 OFFCURVE",
"704 896 CURVE SMOOTH",
"769 979 OFFCURVE",
"820 1020 OFFCURVE",
"857 1020 CURVE SMOOTH",
"920 1020 OFFCURVE",
"952 964 OFFCURVE",
"952 853 CURVE SMOOTH",
"952 0 LINE",
"1070 0 LINE",
"1070 853 LINE SMOOTH",
"1070 1038 OFFCURVE",
"999 1130 OFFCURVE",
"857 1130 CURVE SMOOTH",
"794 1130 OFFCURVE",
"725 1082 OFFCURVE",
"650 986 CURVE",
"576 1082 OFFCURVE",
"508 1130 OFFCURVE",
"445 1130 CURVE SMOOTH",
"302 1130 OFFCURVE",
"230 1038 OFFCURVE",
"230 853 CURVE SMOOTH",
"230 238 LINE SMOOTH"
);
}
);
width = 1300;
},
{
layerId = "3BE6379C-89A1-45B5-97C8-F079248A4F49";
paths = (
{
closed = 1;
nodes = (
"260 79 OFFCURVE",
"330 0 OFFCURVE",
"470 0 CURVE SMOOTH",
"600 0 LINE",
"600 58 LINE",
"470 58 LINE SMOOTH",
"369 58 OFFCURVE",
"318 118 OFFCURVE",
"318 238 CURVE SMOOTH",
"318 853 LINE SMOOTH",
"318 999 OFFCURVE",
"360 1072 OFFCURVE",
"445 1072 CURVE SMOOTH",
"482 1072 OFFCURVE",
"532 1033 OFFCURVE",
"596 954 CURVE SMOOTH",
"617 928 OFFCURVE",
"635 915 OFFCURVE",
"650 915 CURVE SMOOTH",
"665 915 OFFCURVE",
"683 928 OFFCURVE",
"704 954 CURVE SMOOTH",
"769 1033 OFFCURVE",
"820 1072 OFFCURVE",
"857 1072 CURVE SMOOTH",
"940 1072 OFFCURVE",
"982 999 OFFCURVE",
"982 853 CURVE SMOOTH",
"982 0 LINE",
"1040 0 LINE",
"1040 853 LINE SMOOTH",
"1040 1038 OFFCURVE",
"979 1130 OFFCURVE",
"857 1130 CURVE SMOOTH",
"794 1130 OFFCURVE",
"725 1082 OFFCURVE",
"650 986 CURVE",
"576 1082 OFFCURVE",
"508 1130 OFFCURVE",
"445 1130 CURVE SMOOTH",
"322 1130 OFFCURVE",
"260 1038 OFFCURVE",
"260 853 CURVE SMOOTH",
"260 238 LINE SMOOTH"
);
}
);
width = 1300;
}
);
note = uni1796;
unicode = 1796;
},
{
glyphname = uni1797;
lastChange = "2021-05-28 12:58:35 +0000";
layers = (
{
layerId = "372009DC-CA12-41C8-98C7-C44FC6D5F55D";
paths = (
{
closed = 1;
nodes = (
"110 932 LINE",
"1190 932 LINE",
"1190 1160 LINE",
"110 1160 LINE"
);
},
{
closed = 1;
nodes = (
"478 580 OFFCURVE",
"535 612 OFFCURVE",
"650 612 CURVE SMOOTH",
"765 612 OFFCURVE",
"822 580 OFFCURVE",
"822 517 CURVE SMOOTH",
"822 0 LINE",
"1190 0 LINE",
"1190 517 LINE SMOOTH",
"1190 732 OFFCURVE",
"1010 840 OFFCURVE",
"650 840 CURVE SMOOTH",
"290 840 OFFCURVE",
"110 732 OFFCURVE",
"110 517 CURVE SMOOTH",
"110 457 LINE",
"158 368 OFFCURVE",
"182 315 OFFCURVE",
"182 298 CURVE SMOOTH",
"182 271 OFFCURVE",
"157 258 OFFCURVE",
"106 258 CURVE SMOOTH",
"30 258 LINE",
"30 0 LINE",
"226 0 LINE SMOOTH",
"429 0 OFFCURVE",
"530 89 OFFCURVE",
"530 268 CURVE SMOOTH",
"530 312 OFFCURVE",
"513 391 OFFCURVE",
"478 505 CURVE",
"478 517 LINE SMOOTH"
);
}
);
width = 1300;
},
{
layerId = "A36153DC-C9CC-437F-8D19-86D84E7E38EA";
paths = (
{
closed = 1;
nodes = (
"1160 932 LINE",
"1160 1130 LINE",
"140 1130 LINE",
"140 932 LINE"
);
},
{
closed = 1;
nodes = (
"448 600 OFFCURVE",
"515 642 OFFCURVE",
"650 642 CURVE SMOOTH",
"785 642 OFFCURVE",
"852 600 OFFCURVE",
"852 517 CURVE SMOOTH",
"852 0 LINE",
"1160 0 LINE",
"1160 517 LINE SMOOTH",
"1160 732 OFFCURVE",
"990 840 OFFCURVE",
"650 840 CURVE SMOOTH",
"310 840 OFFCURVE",
"140 732 OFFCURVE",
"140 517 CURVE SMOOTH",
"140 457 LINE",
"188 362 OFFCURVE",
"212 299 OFFCURVE",
"212 268 CURVE SMOOTH",
"212 241 OFFCURVE",
"187 228 OFFCURVE",
"136 228 CURVE SMOOTH",
"60 228 LINE",
"60 0 LINE",
"196 0 LINE SMOOTH",
"399 0 OFFCURVE",
"500 89 OFFCURVE",
"500 268 CURVE SMOOTH",
"500 311 OFFCURVE",
"483 390 OFFCURVE",
"448 505 CURVE",
"448 517 LINE SMOOTH"
);
}
);
width = 1300;
},
{
layerId = "607A0539-44D7-4182-901A-4BFA5CCC01F8";
paths = (
{
closed = 1;
nodes = (
"1100 992 LINE",
"1100 1130 LINE",
"200 1130 LINE",
"200 992 LINE"
);
},
{
closed = 1;
nodes = (
"388 640 OFFCURVE",
"475 702 OFFCURVE",
"650 702 CURVE SMOOTH",
"825 702 OFFCURVE",
"912 640 OFFCURVE",
"912 517 CURVE SMOOTH",
"912 0 LINE",
"1100 0 LINE",
"1100 517 LINE SMOOTH",
"1100 732 OFFCURVE",
"950 840 OFFCURVE",
"650 840 CURVE SMOOTH",
"350 840 OFFCURVE",
"200 732 OFFCURVE",
"200 517 CURVE SMOOTH",
"200 457 LINE",
"248 355 OFFCURVE",
"272 282 OFFCURVE",
"272 238 CURVE SMOOTH",
"272 191 OFFCURVE",
"247 168 OFFCURVE",
"196 168 CURVE SMOOTH",
"100 168 LINE",
"100 0 LINE",
"196 0 LINE SMOOTH",
"359 0 OFFCURVE",
"440 79 OFFCURVE",
"440 238 CURVE SMOOTH",
"440 294 OFFCURVE",
"423 383 OFFCURVE",
"388 505 CURVE",
"388 517 LINE SMOOTH"
);
}
);
width = 1300;
},
{
layerId = "DF847F4E-D23C-40FA-8597-1D02BA148938";
paths = (
{
closed = 1;
nodes = (
"1070 1032 LINE",
"1070 1130 LINE",
"230 1130 LINE",
"230 1032 LINE"
);
},
{
closed = 1;
nodes = (
"348 667 OFFCURVE",
"449 742 OFFCURVE",
"650 742 CURVE SMOOTH",
"851 742 OFFCURVE",
"952 667 OFFCURVE",
"952 517 CURVE SMOOTH",
"952 0 LINE",
"1070 0 LINE",
"1070 517 LINE SMOOTH",
"1070 732 OFFCURVE",
"930 840 OFFCURVE",
"650 840 CURVE SMOOTH",
"370 840 OFFCURVE",
"230 732 OFFCURVE",
"230 517 CURVE SMOOTH",
"230 457 LINE",
"278 355 OFFCURVE",
"302 282 OFFCURVE",
"302 238 CURVE SMOOTH",
"302 151 OFFCURVE",
"267 108 OFFCURVE",
"196 108 CURVE SMOOTH",
"100 108 LINE",
"100 0 LINE",
"196 0 LINE SMOOTH",
"332 0 OFFCURVE",
"400 79 OFFCURVE",
"400 238 CURVE SMOOTH",
"400 294 OFFCURVE",
"383 383 OFFCURVE",
"348 505 CURVE",
"348 517 LINE SMOOTH"
);
}
);
width = 1300;
},
{
layerId = "3BE6379C-89A1-45B5-97C8-F079248A4F49";
paths = (
{
closed = 1;
nodes = (
"260 1072 LINE",
"1040 1072 LINE",
"1040 1130 LINE",
"260 1130 LINE"
);
},
{
closed = 1;
nodes = (
"318 694 OFFCURVE",
"429 782 OFFCURVE",
"650 782 CURVE SMOOTH",
"871 782 OFFCURVE",
"982 694 OFFCURVE",
"982 517 CURVE SMOOTH",
"982 0 LINE",
"1040 0 LINE",
"1040 517 LINE SMOOTH",
"1040 732 OFFCURVE",
"910 840 OFFCURVE",
"650 840 CURVE SMOOTH",
"390 840 OFFCURVE",
"260 732 OFFCURVE",
"260 517 CURVE SMOOTH",
"260 457 LINE",
"315 356 OFFCURVE",
"342 273 OFFCURVE",
"342 208 CURVE SMOOTH",
"342 108 OFFCURVE",
"310 58 OFFCURVE",
"246 58 CURVE SMOOTH",
"150 58 LINE",
"150 0 LINE",
"246 0 LINE SMOOTH",
"349 0 OFFCURVE",
"400 69 OFFCURVE",
"400 208 CURVE SMOOTH",
"400 285 OFFCURVE",
"373 370 OFFCURVE",
"318 465 CURVE",
"318 517 LINE SMOOTH"
);
}
);
width = 1300;
}
);
note = uni1797;
unicode = 1797;
},
{
glyphname = uni1798;
lastChange = "2021-05-28 12:58:35 +0000";
layers = (
{
layerId = "372009DC-CA12-41C8-98C7-C44FC6D5F55D";
paths = (
{
closed = 1;
nodes = (
"1190 932 LINE",
"1190 1160 LINE",
"880 1160 LINE SMOOTH",
"741 1160 OFFCURVE",
"672 1084 OFFCURVE",
"672 932 CURVE SMOOTH",
"672 827 LINE",
"822 704 LINE",
"822 679 LINE",
"478 679 LINE",
"478 704 LINE SMOOTH",
"478 749 OFFCURVE",
"453 790 OFFCURVE",
"403 826 CURVE SMOOTH",
"328 880 LINE",
"328 932 LINE",
"508 932 LINE",
"508 1160 LINE",
"238 1160 LINE SMOOTH",
"93 1160 OFFCURVE",
"20 1094 OFFCURVE",
"20 962 CURVE SMOOTH",
"20 827 LINE",
"110 704 LINE",
"110 323 LINE SMOOTH",
"110 108 OFFCURVE",
"290 0 OFFCURVE",
"650 0 CURVE SMOOTH",
"1010 0 OFFCURVE",
"1190 108 OFFCURVE",
"1190 323 CURVE SMOOTH",
"1190 704 LINE SMOOTH",
"1190 749 OFFCURVE",
"1157 790 OFFCURVE",
"1090 826 CURVE SMOOTH",
"990 880 LINE",
"990 932 LINE"
);
},
{
closed = 1;
nodes = (
"535 228 OFFCURVE",
"478 260 OFFCURVE",
"478 323 CURVE SMOOTH",
"478 451 LINE",
"822 451 LINE",
"822 323 LINE SMOOTH",
"822 260 OFFCURVE",
"765 228 OFFCURVE",
"650 228 CURVE SMOOTH"
);
}
);
width = 1300;
},
{
layerId = "A36153DC-C9CC-437F-8D19-86D84E7E38EA";
paths = (
{
closed = 1;
nodes = (
"448 749 OFFCURVE",
"423 790 OFFCURVE",
"373 826 CURVE SMOOTH",
"298 880 LINE",
"298 932 LINE",
"498 932 LINE",
"498 1130 LINE",
"238 1130 LINE SMOOTH",
"99 1130 OFFCURVE",
"30 1074 OFFCURVE",
"30 962 CURVE SMOOTH",
"30 827 LINE",
"140 704 LINE",
"140 323 LINE SMOOTH",
"140 108 OFFCURVE",
"310 0 OFFCURVE",
"650 0 CURVE SMOOTH",
"990 0 OFFCURVE",
"1160 108 OFFCURVE",
"1160 323 CURVE SMOOTH",
"1160 704 LINE SMOOTH",
"1160 749 OFFCURVE",
"1127 790 OFFCURVE",
"1060 826 CURVE SMOOTH",
"960 880 LINE",
"960 932 LINE",
"1160 932 LINE",
"1160 1130 LINE",
"900 1130 LINE SMOOTH",
"761 1130 OFFCURVE",
"692 1064 OFFCURVE",
"692 932 CURVE SMOOTH",
"692 827 LINE",
"852 704 LINE",
"852 664 LINE",
"448 664 LINE",
"448 704 LINE SMOOTH"
);
},
{
closed = 1;
nodes = (
"852 323 LINE SMOOTH",
"852 240 OFFCURVE",
"785 198 OFFCURVE",
"650 198 CURVE SMOOTH",
"515 198 OFFCURVE",
"448 240 OFFCURVE",
"448 323 CURVE SMOOTH",
"448 466 LINE",
"852 466 LINE"
);
}
);
width = 1300;
},
{
layerId = "607A0539-44D7-4182-901A-4BFA5CCC01F8";
paths = (
{
closed = 1;
nodes = (
"388 779 OFFCURVE",
"363 820 OFFCURVE",
"313 856 CURVE SMOOTH",
"238 910 LINE",
"238 992 LINE",
"438 992 LINE",
"438 1130 LINE",
"238 1130 LINE SMOOTH",
"119 1130 OFFCURVE",
"60 1084 OFFCURVE",
"60 992 CURVE SMOOTH",
"60 857 LINE",
"200 734 LINE",
"200 323 LINE SMOOTH",
"200 108 OFFCURVE",
"350 0 OFFCURVE",
"650 0 CURVE SMOOTH",
"950 0 OFFCURVE",
"1100 108 OFFCURVE",
"1100 323 CURVE SMOOTH",
"1100 734 LINE SMOOTH",
"1100 779 OFFCURVE",
"1067 820 OFFCURVE",
"1000 856 CURVE SMOOTH",
"900 910 LINE",
"900 992 LINE",
"1100 992 LINE",
"1100 1130 LINE",
"900 1130 LINE SMOOTH",
"781 1130 OFFCURVE",
"722 1084 OFFCURVE",
"722 992 CURVE SMOOTH",
"722 857 LINE",
"912 734 LINE",
"912 634 LINE",
"388 634 LINE",
"388 734 LINE SMOOTH"
);
},
{
closed = 1;
nodes = (
"912 200 OFFCURVE",
"825 138 OFFCURVE",
"650 138 CURVE SMOOTH",
"475 138 OFFCURVE",
"388 200 OFFCURVE",
"388 323 CURVE SMOOTH",
"388 496 LINE",
"912 496 LINE",
"912 323 LINE SMOOTH"
);
}
);
width = 1300;
},
{
layerId = "DF847F4E-D23C-40FA-8597-1D02BA148938";
paths = (
{
closed = 1;
nodes = (
"348 773 OFFCURVE",
"323 820 OFFCURVE",
"273 856 CURVE SMOOTH",
"198 910 LINE",
"198 992 LINE SMOOTH",
"198 1019 OFFCURVE",
"215 1032 OFFCURVE",
"248 1032 CURVE SMOOTH",
"438 1032 LINE",
"438 1130 LINE",
"248 1130 LINE SMOOTH",
"143 1130 OFFCURVE",
"90 1084 OFFCURVE",
"90 992 CURVE SMOOTH",
"90 857 LINE",
"195 772 LINE SMOOTH",
"218 753 OFFCURVE",
"230 734 OFFCURVE",
"230 714 CURVE SMOOTH",
"230 323 LINE SMOOTH",
"230 108 OFFCURVE",
"370 0 OFFCURVE",
"650 0 CURVE SMOOTH",
"930 0 OFFCURVE",
"1070 108 OFFCURVE",
"1070 323 CURVE SMOOTH",
"1070 714 LINE SMOOTH",
"1070 773 OFFCURVE",
"1037 820 OFFCURVE",
"970 856 CURVE SMOOTH",
"870 910 LINE",
"870 992 LINE SMOOTH",
"870 1019 OFFCURVE",
"887 1032 OFFCURVE",
"920 1032 CURVE SMOOTH",
"1070 1032 LINE",
"1070 1130 LINE",
"920 1130 LINE SMOOTH",
"815 1130 OFFCURVE",
"762 1084 OFFCURVE",
"762 992 CURVE SMOOTH",
"762 857 LINE",
"905 772 LINE SMOOTH",
"936 753 OFFCURVE",
"952 734 OFFCURVE",
"952 714 CURVE SMOOTH",
"952 614 LINE",
"348 614 LINE",
"348 714 LINE SMOOTH"
);
},
{
closed = 1;
nodes = (
"952 323 LINE SMOOTH",
"952 173 OFFCURVE",
"851 98 OFFCURVE",
"650 98 CURVE SMOOTH",
"449 98 OFFCURVE",
"348 173 OFFCURVE",
"348 323 CURVE SMOOTH",
"348 516 LINE",
"952 516 LINE"
);
}
);
width = 1300;
},
{
layerId = "3BE6379C-89A1-45B5-97C8-F079248A4F49";
paths = (
{
closed = 1;
nodes = (
"318 594 LINE",
"318 714 LINE SMOOTH",
"318 761 OFFCURVE",
"291 804 OFFCURVE",
"238 842 CURVE SMOOTH",
"158 899 LINE",
"158 992 LINE SMOOTH",
"158 1045 OFFCURVE",
"188 1072 OFFCURVE",
"248 1072 CURVE SMOOTH",
"408 1072 LINE",
"408 1130 LINE",
"248 1130 LINE SMOOTH",
"149 1130 OFFCURVE",
"100 1084 OFFCURVE",
"100 992 CURVE SMOOTH",
"100 869 LINE",
"200 797 LINE SMOOTH",
"240 768 OFFCURVE",
"260 741 OFFCURVE",
"260 714 CURVE SMOOTH",
"260 323 LINE SMOOTH",
"260 108 OFFCURVE",
"390 0 OFFCURVE",
"650 0 CURVE SMOOTH",
"910 0 OFFCURVE",
"1040 108 OFFCURVE",
"1040 323 CURVE SMOOTH",
"1040 714 LINE SMOOTH",
"1040 751 OFFCURVE",
"1003 792 OFFCURVE",
"930 837 CURVE SMOOTH",
"820 903 LINE",
"820 992 LINE SMOOTH",
"820 1045 OFFCURVE",
"853 1072 OFFCURVE",
"920 1072 CURVE SMOOTH",
"1070 1072 LINE",
"1070 1130 LINE",
"920 1130 LINE SMOOTH",
"815 1130 OFFCURVE",
"762 1084 OFFCURVE",
"762 992 CURVE SMOOTH",
"762 869 LINE",
"900 786 LINE SMOOTH",
"955 753 OFFCURVE",
"982 729 OFFCURVE",
"982 714 CURVE SMOOTH",
"982 594 LINE"
);
},
{
closed = 1;
nodes = (
"982 536 LINE",
"982 323 LINE SMOOTH",
"982 146 OFFCURVE",
"871 58 OFFCURVE",
"650 58 CURVE SMOOTH",
"429 58 OFFCURVE",
"318 146 OFFCURVE",
"318 323 CURVE SMOOTH",
"318 536 LINE"
);
}
);
width = 1300;
}
);
note = uni1798;
unicode = 1798;
},
{
glyphname = uni1799;
lastChange = "2021-05-28 12:58:35 +0000";
layers = (
{
layerId = "372009DC-CA12-41C8-98C7-C44FC6D5F55D";
paths = (
{
closed = 1;
nodes = (
"792 704 LINE",
"792 323 LINE SMOOTH",
"792 260 OFFCURVE",
"740 228 OFFCURVE",
"635 228 CURVE SMOOTH",
"530 228 OFFCURVE",
"478 260 OFFCURVE",
"478 323 CURVE SMOOTH",
"478 932 LINE",
"600 932 LINE",
"600 1160 LINE",
"110 1160 LINE",
"110 323 LINE SMOOTH",
"110 108 OFFCURVE",
"285 0 OFFCURVE",
"635 0 CURVE SMOOTH",
"792 0 OFFCURVE",
"905 30 OFFCURVE",
"976 91 CURVE",
"1047 30 OFFCURVE",
"1154 0 OFFCURVE",
"1297 0 CURVE SMOOTH",
"1634 0 OFFCURVE",
"1802 108 OFFCURVE",
"1802 323 CURVE SMOOTH",
"1802 704 LINE SMOOTH",
"1802 749 OFFCURVE",
"1769 790 OFFCURVE",
"1702 826 CURVE SMOOTH",
"1602 880 LINE",
"1602 932 LINE",
"1802 932 LINE",
"1802 1160 LINE",
"1512 1160 LINE SMOOTH",
"1360 1160 OFFCURVE",
"1284 1084 OFFCURVE",
"1284 932 CURVE SMOOTH",
"1284 827 LINE",
"1434 704 LINE",
"1434 323 LINE SMOOTH",
"1434 260 OFFCURVE",
"1388 228 OFFCURVE",
"1297 228 CURVE SMOOTH",
"1206 228 OFFCURVE",
"1160 260 OFFCURVE",
"1160 323 CURVE SMOOTH",
"1160 704 LINE SMOOTH",
"1160 749 OFFCURVE",
"1135 790 OFFCURVE",
"1085 826 CURVE SMOOTH",
"1010 880 LINE",
"1010 932 LINE",
"1190 932 LINE",
"1190 1160 LINE",
"920 1160 LINE SMOOTH",
"768 1160 OFFCURVE",
"692 1094 OFFCURVE",
"692 962 CURVE SMOOTH",
"692 827 LINE"
);
}
);
width = 1912;
},
{
layerId = "A36153DC-C9CC-437F-8D19-86D84E7E38EA";
paths = (
{
closed = 1;
nodes = (
"822 240 OFFCURVE",
"760 198 OFFCURVE",
"635 198 CURVE SMOOTH",
"510 198 OFFCURVE",
"448 240 OFFCURVE",
"448 323 CURVE SMOOTH",
"448 932 LINE",
"600 932 LINE",
"600 1130 LINE",
"140 1130 LINE",
"140 323 LINE SMOOTH",
"140 108 OFFCURVE",
"305 0 OFFCURVE",
"635 0 CURVE SMOOTH",
"792 0 OFFCURVE",
"905 30 OFFCURVE",
"976 91 CURVE",
"1047 30 OFFCURVE",
"1154 0 OFFCURVE",
"1297 0 CURVE SMOOTH",
"1614 0 OFFCURVE",
"1772 108 OFFCURVE",
"1772 323 CURVE SMOOTH",
"1772 704 LINE SMOOTH",
"1772 749 OFFCURVE",
"1739 790 OFFCURVE",
"1672 826 CURVE SMOOTH",
"1572 880 LINE",
"1572 932 LINE",
"1772 932 LINE",
"1772 1130 LINE",
"1512 1130 LINE SMOOTH",
"1373 1130 OFFCURVE",
"1304 1064 OFFCURVE",
"1304 932 CURVE SMOOTH",
"1304 827 LINE",
"1464 704 LINE",
"1464 323 LINE SMOOTH",
"1464 240 OFFCURVE",
"1408 198 OFFCURVE",
"1297 198 CURVE SMOOTH",
"1186 198 OFFCURVE",
"1130 240 OFFCURVE",
"1130 323 CURVE SMOOTH",
"1130 704 LINE SMOOTH",
"1130 749 OFFCURVE",
"1105 790 OFFCURVE",
"1055 826 CURVE SMOOTH",
"980 880 LINE",
"980 932 LINE",
"1180 932 LINE",
"1180 1130 LINE",
"920 1130 LINE SMOOTH",
"781 1130 OFFCURVE",
"712 1074 OFFCURVE",
"712 962 CURVE SMOOTH",
"712 827 LINE",
"822 704 LINE",
"822 323 LINE SMOOTH"
);
}
);
width = 1912;
},
{
layerId = "607A0539-44D7-4182-901A-4BFA5CCC01F8";
paths = (
{
closed = 1;
nodes = (
"200 108 OFFCURVE",
"345 0 OFFCURVE",
"635 0 CURVE SMOOTH",
"792 0 OFFCURVE",
"905 30 OFFCURVE",
"976 91 CURVE",
"1047 30 OFFCURVE",
"1154 0 OFFCURVE",
"1297 0 CURVE SMOOTH",
"1574 0 OFFCURVE",
"1712 108 OFFCURVE",
"1712 323 CURVE SMOOTH",
"1712 734 LINE SMOOTH",
"1712 773 OFFCURVE",
"1677 812 OFFCURVE",
"1607 851 CURVE SMOOTH",
"1502 910 LINE",
"1502 992 LINE",
"1712 992 LINE",
"1712 1130 LINE",
"1512 1130 LINE SMOOTH",
"1393 1130 OFFCURVE",
"1334 1084 OFFCURVE",
"1334 992 CURVE SMOOTH",
"1334 857 LINE",
"1524 734 LINE",
"1524 323 LINE SMOOTH",
"1524 200 OFFCURVE",
"1448 138 OFFCURVE",
"1297 138 CURVE SMOOTH",
"1146 138 OFFCURVE",
"1070 200 OFFCURVE",
"1070 323 CURVE SMOOTH",
"1070 734 LINE SMOOTH",
"1070 773 OFFCURVE",
"1043 812 OFFCURVE",
"990 851 CURVE SMOOTH",
"910 910 LINE",
"910 992 LINE",
"1120 992 LINE",
"1120 1130 LINE",
"920 1130 LINE SMOOTH",
"801 1130 OFFCURVE",
"742 1084 OFFCURVE",
"742 992 CURVE SMOOTH",
"742 857 LINE",
"882 734 LINE",
"882 323 LINE SMOOTH",
"882 200 OFFCURVE",
"800 138 OFFCURVE",
"635 138 CURVE SMOOTH",
"470 138 OFFCURVE",
"388 200 OFFCURVE",
"388 323 CURVE SMOOTH",
"388 962 LINE",
"580 962 LINE",
"580 1130 LINE",
"200 1130 LINE",
"200 323 LINE SMOOTH"
);
}
);
width = 1912;
},
{
layerId = "DF847F4E-D23C-40FA-8597-1D02BA148938";
paths = (
{
closed = 1;
nodes = (
"230 108 OFFCURVE",
"362 0 OFFCURVE",
"625 0 CURVE SMOOTH",
"786 0 OFFCURVE",
"898 40 OFFCURVE",
"961 121 CURVE",
"1022 40 OFFCURVE",
"1133 0 OFFCURVE",
"1292 0 CURVE SMOOTH",
"1552 0 OFFCURVE",
"1682 108 OFFCURVE",
"1682 323 CURVE SMOOTH",
"1682 714 LINE SMOOTH",
"1682 773 OFFCURVE",
"1649 820 OFFCURVE",
"1582 856 CURVE SMOOTH",
"1482 910 LINE",
"1482 992 LINE SMOOTH",
"1482 1019 OFFCURVE",
"1499 1032 OFFCURVE",
"1532 1032 CURVE SMOOTH",
"1682 1032 LINE",
"1682 1130 LINE",
"1532 1130 LINE SMOOTH",
"1427 1130 OFFCURVE",
"1374 1084 OFFCURVE",
"1374 992 CURVE SMOOTH",
"1374 857 LINE",
"1517 772 LINE SMOOTH",
"1548 753 OFFCURVE",
"1564 734 OFFCURVE",
"1564 714 CURVE SMOOTH",
"1564 323 LINE SMOOTH",
"1564 173 OFFCURVE",
"1473 98 OFFCURVE",
"1292 98 CURVE SMOOTH",
"1111 98 OFFCURVE",
"1020 173 OFFCURVE",
"1020 323 CURVE SMOOTH",
"1020 714 LINE SMOOTH",
"1020 773 OFFCURVE",
"995 820 OFFCURVE",
"945 856 CURVE SMOOTH",
"870 910 LINE",
"870 992 LINE SMOOTH",
"870 1019 OFFCURVE",
"887 1032 OFFCURVE",
"920 1032 CURVE SMOOTH",
"1110 1032 LINE",
"1110 1130 LINE",
"920 1130 LINE SMOOTH",
"815 1130 OFFCURVE",
"762 1084 OFFCURVE",
"762 992 CURVE SMOOTH",
"762 857 LINE",
"867 772 LINE SMOOTH",
"890 753 OFFCURVE",
"902 734 OFFCURVE",
"902 714 CURVE SMOOTH",
"902 323 LINE SMOOTH",
"902 173 OFFCURVE",
"810 98 OFFCURVE",
"625 98 CURVE SMOOTH",
"440 98 OFFCURVE",
"348 173 OFFCURVE",
"348 323 CURVE SMOOTH",
"348 1022 LINE",
"580 1022 LINE",
"580 1130 LINE",
"230 1130 LINE",
"230 323 LINE SMOOTH"
);
}
);
width = 1912;
},
{
layerId = "3BE6379C-89A1-45B5-97C8-F079248A4F49";
paths = (
{
closed = 1;
nodes = (
"510 1072 LINE",
"510 1130 LINE",
"260 1130 LINE",
"260 323 LINE SMOOTH",
"260 108 OFFCURVE",
"377 0 OFFCURVE",
"610 0 CURVE SMOOTH",
"777 0 OFFCURVE",
"884 55 OFFCURVE",
"931 165 CURVE",
"980 55 OFFCURVE",
"1091 0 OFFCURVE",
"1262 0 CURVE SMOOTH",
"1502 0 OFFCURVE",
"1622 108 OFFCURVE",
"1622 323 CURVE SMOOTH",
"1622 714 LINE SMOOTH",
"1622 751 OFFCURVE",
"1585 792 OFFCURVE",
"1512 837 CURVE SMOOTH",
"1402 903 LINE",
"1402 992 LINE SMOOTH",
"1402 1045 OFFCURVE",
"1435 1072 OFFCURVE",
"1502 1072 CURVE SMOOTH",
"1652 1072 LINE",
"1652 1130 LINE",
"1502 1130 LINE SMOOTH",
"1397 1130 OFFCURVE",
"1344 1084 OFFCURVE",
"1344 992 CURVE SMOOTH",
"1344 869 LINE",
"1482 786 LINE SMOOTH",
"1537 753 OFFCURVE",
"1564 729 OFFCURVE",
"1564 714 CURVE SMOOTH",
"1564 323 LINE SMOOTH",
"1564 146 OFFCURVE",
"1463 58 OFFCURVE",
"1262 58 CURVE SMOOTH",
"1061 58 OFFCURVE",
"960 146 OFFCURVE",
"960 323 CURVE SMOOTH",
"960 714 LINE SMOOTH",
"960 761 OFFCURVE",
"933 804 OFFCURVE",
"880 842 CURVE SMOOTH",
"800 899 LINE",
"800 992 LINE SMOOTH",
"800 1045 OFFCURVE",
"830 1072 OFFCURVE",
"890 1072 CURVE SMOOTH",
"1050 1072 LINE",
"1050 1130 LINE",
"890 1130 LINE SMOOTH",
"791 1130 OFFCURVE",
"742 1084 OFFCURVE",
"742 992 CURVE SMOOTH",
"742 869 LINE",
"842 797 LINE SMOOTH",
"882 768 OFFCURVE",
"902 740 OFFCURVE",
"902 714 CURVE SMOOTH",
"902 323 LINE SMOOTH",
"902 146 OFFCURVE",
"805 58 OFFCURVE",
"610 58 CURVE SMOOTH",
"415 58 OFFCURVE",
"318 146 OFFCURVE",
"318 323 CURVE SMOOTH",
"318 1072 LINE"
);
}
);
width = 1912;
}
);
note = uni1799;
unicode = 1799;
},
{
glyphname = uni179A;
lastChange = "2021-05-28 12:58:35 +0000";
layers = (
{
layerId = "372009DC-CA12-41C8-98C7-C44FC6D5F55D";
paths = (
{
closed = 1;
nodes = (
"160 704 LINE",
"160 298 LINE SMOOTH",
"160 271 OFFCURVE",
"143 258 OFFCURVE",
"108 258 CURVE SMOOTH",
"20 258 LINE",
"20 0 LINE",
"198 0 LINE SMOOTH",
"418 0 OFFCURVE",
"528 99 OFFCURVE",
"528 298 CURVE SMOOTH",
"528 704 LINE SMOOTH",
"528 749 OFFCURVE",
"495 790 OFFCURVE",
"428 826 CURVE SMOOTH",
"328 880 LINE",
"328 932 LINE",
"528 932 LINE",
"528 1160 LINE",
"238 1160 LINE SMOOTH",
"93 1160 OFFCURVE",
"20 1094 OFFCURVE",
"20 962 CURVE SMOOTH",
"20 827 LINE"
);
}
);
width = 638;
},
{
layerId = "A36153DC-C9CC-437F-8D19-86D84E7E38EA";
paths = (
{
closed = 1;
nodes = (
"190 241 OFFCURVE",
"163 228 OFFCURVE",
"108 228 CURVE SMOOTH",
"30 228 LINE",
"30 0 LINE",
"168 0 LINE SMOOTH",
"388 0 OFFCURVE",
"498 89 OFFCURVE",
"498 268 CURVE SMOOTH",
"498 704 LINE SMOOTH",
"498 749 OFFCURVE",
"465 790 OFFCURVE",
"398 826 CURVE SMOOTH",
"298 880 LINE",
"298 932 LINE",
"498 932 LINE",
"498 1130 LINE",
"238 1130 LINE SMOOTH",
"99 1130 OFFCURVE",
"30 1074 OFFCURVE",
"30 962 CURVE SMOOTH",
"30 827 LINE",
"190 704 LINE",
"190 268 LINE SMOOTH"
);
}
);
width = 638;
},
{
layerId = "607A0539-44D7-4182-901A-4BFA5CCC01F8";
paths = (
{
closed = 1;
nodes = (
"250 191 OFFCURVE",
"223 168 OFFCURVE",
"168 168 CURVE SMOOTH",
"60 168 LINE",
"60 0 LINE",
"168 0 LINE SMOOTH",
"348 0 OFFCURVE",
"438 79 OFFCURVE",
"438 238 CURVE SMOOTH",
"438 734 LINE SMOOTH",
"438 779 OFFCURVE",
"405 820 OFFCURVE",
"338 856 CURVE SMOOTH",
"238 910 LINE",
"238 992 LINE",
"438 992 LINE",
"438 1130 LINE",
"238 1130 LINE SMOOTH",
"119 1130 OFFCURVE",
"60 1084 OFFCURVE",
"60 992 CURVE SMOOTH",
"60 857 LINE",
"250 734 LINE",
"250 238 LINE SMOOTH"
);
}
);
width = 638;
},
{
layerId = "DF847F4E-D23C-40FA-8597-1D02BA148938";
paths = (
{
closed = 1;
nodes = (
"290 135 OFFCURVE",
"266 108 OFFCURVE",
"218 108 CURVE SMOOTH",
"100 108 LINE",
"100 0 LINE",
"218 0 LINE SMOOTH",
"345 0 OFFCURVE",
"408 63 OFFCURVE",
"408 188 CURVE SMOOTH",
"408 714 LINE SMOOTH",
"408 773 OFFCURVE",
"375 820 OFFCURVE",
"308 856 CURVE SMOOTH",
"208 910 LINE",
"208 992 LINE SMOOTH",
"208 1019 OFFCURVE",
"225 1032 OFFCURVE",
"258 1032 CURVE SMOOTH",
"408 1032 LINE",
"408 1130 LINE",
"258 1130 LINE SMOOTH",
"153 1130 OFFCURVE",
"100 1084 OFFCURVE",
"100 992 CURVE SMOOTH",
"100 857 LINE",
"243 772 LINE SMOOTH",
"274 753 OFFCURVE",
"290 734 OFFCURVE",
"290 714 CURVE SMOOTH",
"290 188 LINE SMOOTH"
);
}
);
width = 638;
},
{
layerId = "3BE6379C-89A1-45B5-97C8-F079248A4F49";
paths = (
{
closed = 1;
nodes = (
"320 101 OFFCURVE",
"286 58 OFFCURVE",
"218 58 CURVE SMOOTH",
"100 58 LINE",
"100 0 LINE",
"218 0 LINE SMOOTH",
"325 0 OFFCURVE",
"378 63 OFFCURVE",
"378 188 CURVE SMOOTH",
"378 714 LINE SMOOTH",
"378 750 OFFCURVE",
"341 789 OFFCURVE",
"268 830 CURVE SMOOTH",
"158 891 LINE",
"158 992 LINE SMOOTH",
"158 1045 OFFCURVE",
"191 1072 OFFCURVE",
"258 1072 CURVE SMOOTH",
"408 1072 LINE",
"408 1130 LINE",
"258 1130 LINE SMOOTH",
"153 1130 OFFCURVE",
"100 1084 OFFCURVE",
"100 992 CURVE SMOOTH",
"100 857 LINE",
"238 782 LINE SMOOTH",
"293 752 OFFCURVE",
"320 729 OFFCURVE",
"320 714 CURVE SMOOTH",
"320 188 LINE SMOOTH"
);
}
);
width = 638;
}
);
note = uni179A;
unicode = 179A;
},
{
glyphname = uni179B;
lastChange = "2021-05-28 12:58:35 +0000";
layers = (
{
layerId = "372009DC-CA12-41C8-98C7-C44FC6D5F55D";
paths = (
{
closed = 1;
nodes = (
"1802 749 OFFCURVE",
"1769 790 OFFCURVE",
"1702 826 CURVE SMOOTH",
"1602 880 LINE",
"1602 932 LINE",
"1802 932 LINE",
"1802 1160 LINE",
"1512 1160 LINE SMOOTH",
"1360 1160 OFFCURVE",
"1284 1084 OFFCURVE",
"1284 932 CURVE SMOOTH",
"1284 827 LINE",
"1434 704 LINE",
"1434 323 LINE SMOOTH",
"1434 260 OFFCURVE",
"1385 228 OFFCURVE",
"1287 228 CURVE SMOOTH",
"1189 228 OFFCURVE",
"1140 260 OFFCURVE",
"1140 323 CURVE SMOOTH",
"1140 807 LINE SMOOTH",
"1140 1042 OFFCURVE",
"968 1160 OFFCURVE",
"625 1160 CURVE SMOOTH",
"282 1160 OFFCURVE",
"110 1042 OFFCURVE",
"110 807 CURVE SMOOTH",
"110 298 LINE SMOOTH",
"110 99 OFFCURVE",
"230 0 OFFCURVE",
"470 0 CURVE SMOOTH",
"600 0 LINE",
"600 258 LINE",
"530 258 LINE SMOOTH",
"495 258 OFFCURVE",
"478 271 OFFCURVE",
"478 298 CURVE SMOOTH",
"478 807 LINE SMOOTH",
"478 890 OFFCURVE",
"527 932 OFFCURVE",
"625 932 CURVE SMOOTH",
"723 932 OFFCURVE",
"772 890 OFFCURVE",
"772 807 CURVE SMOOTH",
"772 323 LINE SMOOTH",
"772 108 OFFCURVE",
"944 0 OFFCURVE",
"1287 0 CURVE SMOOTH",
"1630 0 OFFCURVE",
"1802 108 OFFCURVE",
"1802 323 CURVE SMOOTH",
"1802 704 LINE SMOOTH"
);
}
);
width = 1912;
},
{
layerId = "A36153DC-C9CC-437F-8D19-86D84E7E38EA";
paths = (
{
closed = 1;
nodes = (
"1772 749 OFFCURVE",
"1739 790 OFFCURVE",
"1672 826 CURVE SMOOTH",
"1572 880 LINE",
"1572 932 LINE",
"1772 932 LINE",
"1772 1130 LINE",
"1512 1130 LINE SMOOTH",
"1373 1130 OFFCURVE",
"1304 1064 OFFCURVE",
"1304 932 CURVE SMOOTH",
"1304 827 LINE",
"1464 704 LINE",
"1464 323 LINE SMOOTH",
"1464 240 OFFCURVE",
"1405 198 OFFCURVE",
"1287 198 CURVE SMOOTH",
"1169 198 OFFCURVE",
"1110 240 OFFCURVE",
"1110 323 CURVE SMOOTH",
"1110 807 LINE SMOOTH",
"1110 1022 OFFCURVE",
"948 1130 OFFCURVE",
"625 1130 CURVE SMOOTH",
"302 1130 OFFCURVE",
"140 1022 OFFCURVE",
"140 807 CURVE SMOOTH",
"140 298 LINE SMOOTH",
"140 99 OFFCURVE",
"250 0 OFFCURVE",
"470 0 CURVE SMOOTH",
"600 0 LINE",
"600 228 LINE",
"530 228 LINE SMOOTH",
"475 228 OFFCURVE",
"448 251 OFFCURVE",
"448 298 CURVE SMOOTH",
"448 807 LINE SMOOTH",
"448 890 OFFCURVE",
"507 932 OFFCURVE",
"625 932 CURVE SMOOTH",
"743 932 OFFCURVE",
"802 890 OFFCURVE",
"802 807 CURVE SMOOTH",
"802 323 LINE SMOOTH",
"802 108 OFFCURVE",
"964 0 OFFCURVE",
"1287 0 CURVE SMOOTH",
"1610 0 OFFCURVE",
"1772 108 OFFCURVE",
"1772 323 CURVE SMOOTH",
"1772 704 LINE SMOOTH"
);
}
);
width = 1912;
},
{
layerId = "607A0539-44D7-4182-901A-4BFA5CCC01F8";
paths = (
{
closed = 1;
nodes = (
"200 79 OFFCURVE",
"290 0 OFFCURVE",
"470 0 CURVE SMOOTH",
"600 0 LINE",
"600 168 LINE",
"470 168 LINE SMOOTH",
"415 168 OFFCURVE",
"388 191 OFFCURVE",
"388 238 CURVE SMOOTH",
"388 807 LINE SMOOTH",
"388 930 OFFCURVE",
"467 992 OFFCURVE",
"625 992 CURVE SMOOTH",
"783 992 OFFCURVE",
"862 930 OFFCURVE",
"862 807 CURVE SMOOTH",
"862 323 LINE SMOOTH",
"862 108 OFFCURVE",
"1004 0 OFFCURVE",
"1287 0 CURVE SMOOTH",
"1570 0 OFFCURVE",
"1712 108 OFFCURVE",
"1712 323 CURVE SMOOTH",
"1712 734 LINE SMOOTH",
"1712 773 OFFCURVE",
"1677 812 OFFCURVE",
"1607 851 CURVE SMOOTH",
"1502 910 LINE",
"1502 992 LINE",
"1712 992 LINE",
"1712 1130 LINE",
"1512 1130 LINE SMOOTH",
"1393 1130 OFFCURVE",
"1334 1084 OFFCURVE",
"1334 992 CURVE SMOOTH",
"1334 857 LINE",
"1524 734 LINE",
"1524 323 LINE SMOOTH",
"1524 200 OFFCURVE",
"1445 138 OFFCURVE",
"1287 138 CURVE SMOOTH",
"1129 138 OFFCURVE",
"1050 200 OFFCURVE",
"1050 323 CURVE SMOOTH",
"1050 807 LINE SMOOTH",
"1050 1022 OFFCURVE",
"908 1130 OFFCURVE",
"625 1130 CURVE SMOOTH",
"342 1130 OFFCURVE",
"200 1022 OFFCURVE",
"200 807 CURVE SMOOTH",
"200 238 LINE SMOOTH"
);
}
);
width = 1912;
},
{
layerId = "DF847F4E-D23C-40FA-8597-1D02BA148938";
paths = (
{
closed = 1;
nodes = (
"1682 773 OFFCURVE",
"1649 820 OFFCURVE",
"1582 856 CURVE SMOOTH",
"1482 910 LINE",
"1482 992 LINE SMOOTH",
"1482 1019 OFFCURVE",
"1499 1032 OFFCURVE",
"1532 1032 CURVE SMOOTH",
"1682 1032 LINE",
"1682 1130 LINE",
"1532 1130 LINE SMOOTH",
"1427 1130 OFFCURVE",
"1374 1084 OFFCURVE",
"1374 992 CURVE SMOOTH",
"1374 857 LINE",
"1517 772 LINE SMOOTH",
"1548 753 OFFCURVE",
"1564 734 OFFCURVE",
"1564 714 CURVE SMOOTH",
"1564 323 LINE SMOOTH",
"1564 173 OFFCURVE",
"1473 98 OFFCURVE",
"1292 98 CURVE SMOOTH",
"1111 98 OFFCURVE",
"1020 173 OFFCURVE",
"1020 323 CURVE SMOOTH",
"1020 807 LINE SMOOTH",
"1020 1022 OFFCURVE",
"888 1130 OFFCURVE",
"625 1130 CURVE SMOOTH",
"362 1130 OFFCURVE",
"230 1022 OFFCURVE",
"230 807 CURVE SMOOTH",
"230 238 LINE SMOOTH",
"230 79 OFFCURVE",
"310 0 OFFCURVE",
"470 0 CURVE SMOOTH",
"600 0 LINE",
"600 98 LINE",
"470 98 LINE SMOOTH",
"389 98 OFFCURVE",
"348 145 OFFCURVE",
"348 238 CURVE SMOOTH",
"348 807 LINE SMOOTH",
"348 957 OFFCURVE",
"440 1032 OFFCURVE",
"625 1032 CURVE SMOOTH",
"810 1032 OFFCURVE",
"902 957 OFFCURVE",
"902 807 CURVE SMOOTH",
"902 323 LINE SMOOTH",
"902 108 OFFCURVE",
"1032 0 OFFCURVE",
"1292 0 CURVE SMOOTH",
"1552 0 OFFCURVE",
"1682 108 OFFCURVE",
"1682 323 CURVE SMOOTH",
"1682 714 LINE SMOOTH"
);
}
);
width = 1912;
},
{
layerId = "3BE6379C-89A1-45B5-97C8-F079248A4F49";
paths = (
{
closed = 1;
nodes = (
"1652 751 OFFCURVE",
"1615 792 OFFCURVE",
"1542 837 CURVE SMOOTH",
"1432 903 LINE",
"1432 992 LINE SMOOTH",
"1432 1045 OFFCURVE",
"1465 1072 OFFCURVE",
"1532 1072 CURVE SMOOTH",
"1682 1072 LINE",
"1682 1130 LINE",
"1532 1130 LINE SMOOTH",
"1427 1130 OFFCURVE",
"1374 1084 OFFCURVE",
"1374 992 CURVE SMOOTH",
"1374 869 LINE",
"1512 786 LINE SMOOTH",
"1567 753 OFFCURVE",
"1594 729 OFFCURVE",
"1594 714 CURVE SMOOTH",
"1594 323 LINE SMOOTH",
"1594 146 OFFCURVE",
"1493 58 OFFCURVE",
"1292 58 CURVE SMOOTH",
"1091 58 OFFCURVE",
"990 146 OFFCURVE",
"990 323 CURVE SMOOTH",
"990 807 LINE SMOOTH",
"990 1022 OFFCURVE",
"868 1130 OFFCURVE",
"625 1130 CURVE SMOOTH",
"382 1130 OFFCURVE",
"260 1022 OFFCURVE",
"260 807 CURVE SMOOTH",
"260 238 LINE SMOOTH",
"260 79 OFFCURVE",
"330 0 OFFCURVE",
"470 0 CURVE SMOOTH",
"600 0 LINE",
"600 58 LINE",
"470 58 LINE SMOOTH",
"369 58 OFFCURVE",
"318 118 OFFCURVE",
"318 238 CURVE SMOOTH",
"318 807 LINE SMOOTH",
"318 984 OFFCURVE",
"420 1072 OFFCURVE",
"625 1072 CURVE SMOOTH",
"830 1072 OFFCURVE",
"932 984 OFFCURVE",
"932 807 CURVE SMOOTH",
"932 323 LINE SMOOTH",
"932 108 OFFCURVE",
"1052 0 OFFCURVE",
"1292 0 CURVE SMOOTH",
"1532 0 OFFCURVE",
"1652 108 OFFCURVE",
"1652 323 CURVE SMOOTH",
"1652 714 LINE SMOOTH"
);
}
);
width = 1912;
}
);
note = uni179B;
unicode = 179B;
},
{
glyphname = uni179C;
lastChange = "2021-05-28 12:58:35 +0000";
layers = (
{
layerId = "372009DC-CA12-41C8-98C7-C44FC6D5F55D";
paths = (
{
closed = 1;
nodes = (
"160 1340 LINE",
"160 1157 LINE",
"67 1146 OFFCURVE",
"20 1081 OFFCURVE",
"20 962 CURVE SMOOTH",
"20 827 LINE",
"160 704 LINE",
"160 298 LINE SMOOTH",
"160 271 OFFCURVE",
"143 258 OFFCURVE",
"108 258 CURVE SMOOTH",
"20 258 LINE",
"20 0 LINE",
"198 0 LINE SMOOTH",
"418 0 OFFCURVE",
"528 99 OFFCURVE",
"528 298 CURVE SMOOTH",
"528 704 LINE SMOOTH",
"528 749 OFFCURVE",
"495 790 OFFCURVE",
"428 826 CURVE SMOOTH",
"328 880 LINE",
"328 932 LINE",
"528 932 LINE",
"528 1340 LINE"
);
}
);
width = 638;
},
{
layerId = "A36153DC-C9CC-437F-8D19-86D84E7E38EA";
paths = (
{
closed = 1;
nodes = (
"83 1115 OFFCURVE",
"30 1060 OFFCURVE",
"30 962 CURVE SMOOTH",
"30 827 LINE",
"190 704 LINE",
"190 268 LINE SMOOTH",
"190 241 OFFCURVE",
"163 228 OFFCURVE",
"108 228 CURVE SMOOTH",
"30 228 LINE",
"30 0 LINE",
"168 0 LINE SMOOTH",
"388 0 OFFCURVE",
"498 89 OFFCURVE",
"498 268 CURVE SMOOTH",
"498 704 LINE SMOOTH",
"498 749 OFFCURVE",
"465 790 OFFCURVE",
"398 826 CURVE SMOOTH",
"298 880 LINE",
"298 932 LINE",
"498 932 LINE",
"498 1340 LINE",
"190 1340 LINE",
"190 1127 LINE"
);
}
);
width = 638;
},
{
layerId = "607A0539-44D7-4182-901A-4BFA5CCC01F8";
paths = (
{
closed = 1;
nodes = (
"250 191 OFFCURVE",
"223 168 OFFCURVE",
"168 168 CURVE SMOOTH",
"60 168 LINE",
"60 0 LINE",
"168 0 LINE SMOOTH",
"348 0 OFFCURVE",
"438 79 OFFCURVE",
"438 238 CURVE SMOOTH",
"438 734 LINE SMOOTH",
"438 779 OFFCURVE",
"405 820 OFFCURVE",
"338 856 CURVE SMOOTH",
"238 910 LINE",
"238 992 LINE",
"438 992 LINE",
"438 1340 LINE",
"250 1340 LINE",
"250 1130 LINE",
"238 1130 LINE SMOOTH",
"119 1130 OFFCURVE",
"60 1084 OFFCURVE",
"60 992 CURVE SMOOTH",
"60 857 LINE",
"250 734 LINE",
"250 238 LINE SMOOTH"
);
}
);
width = 638;
},
{
layerId = "DF847F4E-D23C-40FA-8597-1D02BA148938";
paths = (
{
closed = 1;
nodes = (
"153 1130 OFFCURVE",
"100 1084 OFFCURVE",
"100 992 CURVE SMOOTH",
"100 857 LINE",
"243 772 LINE SMOOTH",
"274 753 OFFCURVE",
"290 734 OFFCURVE",
"290 714 CURVE SMOOTH",
"290 188 LINE SMOOTH",
"290 135 OFFCURVE",
"266 108 OFFCURVE",
"218 108 CURVE SMOOTH",
"100 108 LINE",
"100 0 LINE",
"218 0 LINE SMOOTH",
"345 0 OFFCURVE",
"408 63 OFFCURVE",
"408 188 CURVE SMOOTH",
"408 714 LINE SMOOTH",
"408 773 OFFCURVE",
"375 820 OFFCURVE",
"308 856 CURVE SMOOTH",
"208 910 LINE",
"208 992 LINE SMOOTH",
"208 1019 OFFCURVE",
"225 1032 OFFCURVE",
"258 1032 CURVE SMOOTH",
"408 1032 LINE",
"408 1340 LINE",
"290 1340 LINE",
"290 1130 LINE",
"258 1130 LINE SMOOTH"
);
}
);
width = 638;
},
{
layerId = "3BE6379C-89A1-45B5-97C8-F079248A4F49";
paths = (
{
closed = 1;
nodes = (
"238 782 LINE SMOOTH",
"293 752 OFFCURVE",
"320 729 OFFCURVE",
"320 714 CURVE SMOOTH",
"320 188 LINE SMOOTH",
"320 101 OFFCURVE",
"286 58 OFFCURVE",
"218 58 CURVE SMOOTH",
"100 58 LINE",
"100 0 LINE",
"218 0 LINE SMOOTH",
"325 0 OFFCURVE",
"378 63 OFFCURVE",
"378 188 CURVE SMOOTH",
"378 714 LINE SMOOTH",
"378 750 OFFCURVE",
"341 789 OFFCURVE",
"268 830 CURVE SMOOTH",
"118 914 LINE",
"118 992 LINE SMOOTH",
"118 1045 OFFCURVE",
"145 1072 OFFCURVE",
"198 1072 CURVE SMOOTH",
"217 1072 OFFCURVE",
"248 1065 OFFCURVE",
"291 1052 CURVE SMOOTH",
"333 1039 OFFCURVE",
"364 1032 OFFCURVE",
"383 1032 CURVE SMOOTH",
"456 1032 OFFCURVE",
"493 1073 OFFCURVE",
"493 1155 CURVE SMOOTH",
"493 1280 LINE",
"435 1280 LINE",
"435 1155 LINE SMOOTH",
"435 1112 OFFCURVE",
"418 1090 OFFCURVE",
"383 1090 CURVE SMOOTH",
"358 1090 OFFCURVE",
"328 1097 OFFCURVE",
"294 1110 CURVE SMOOTH",
"260 1123 OFFCURVE",
"228 1130 OFFCURVE",
"198 1130 CURVE SMOOTH",
"106 1130 OFFCURVE",
"60 1084 OFFCURVE",
"60 992 CURVE SMOOTH",
"60 880 LINE"
);
}
);
width = 638;
}
);
note = uni179C;
unicode = 179C;
},
{
glyphname = uni179D;
lastChange = "2021-05-28 12:58:35 +0000";
layers = (
{
layerId = "372009DC-CA12-41C8-98C7-C44FC6D5F55D";
paths = (
{
closed = 1;
nodes = (
"110 1160 LINE",
"110 932 LINE",
"1190 932 LINE",
"1190 1160 LINE"
);
},
{
closed = 1;
nodes = (
"1260 420 LINE",
"1190 420 LINE",
"1190 487 LINE SMOOTH",
"1190 702 OFFCURVE",
"1010 810 OFFCURVE",
"650 810 CURVE SMOOTH",
"290 810 OFFCURVE",
"110 702 OFFCURVE",
"110 487 CURVE SMOOTH",
"110 0 LINE",
"478 0 LINE",
"478 80 LINE",
"487 93 OFFCURVE",
"492 100 OFFCURVE",
"493 102 CURVE SMOOTH",
"537 166 OFFCURVE",
"553 184 OFFCURVE",
"590 200 CURVE SMOOTH",
"609 208 OFFCURVE",
"635 212 OFFCURVE",
"666 212 CURVE SMOOTH",
"700 212 LINE",
"700 400 LINE",
"662 400 LINE SMOOTH",
"576 400 OFFCURVE",
"515 374 OFFCURVE",
"478 321 CURVE",
"478 487 LINE SMOOTH",
"478 557 OFFCURVE",
"535 592 OFFCURVE",
"650 592 CURVE SMOOTH",
"765 592 OFFCURVE",
"822 557 OFFCURVE",
"822 487 CURVE SMOOTH",
"822 420 LINE",
"744 420 LINE",
"744 192 LINE",
"822 192 LINE",
"822 0 LINE",
"1190 0 LINE",
"1190 192 LINE",
"1260 192 LINE"
);
}
);
width = 1300;
},
{
layerId = "A36153DC-C9CC-437F-8D19-86D84E7E38EA";
paths = (
{
closed = 1;
nodes = (
"1160 932 LINE",
"1160 1130 LINE",
"140 1130 LINE",
"140 932 LINE"
);
},
{
closed = 1;
nodes = (
"1160 0 LINE",
"1160 212 LINE",
"1260 212 LINE",
"1260 400 LINE",
"1160 400 LINE",
"1160 487 LINE SMOOTH",
"1160 702 OFFCURVE",
"990 810 OFFCURVE",
"650 810 CURVE SMOOTH",
"310 810 OFFCURVE",
"140 702 OFFCURVE",
"140 487 CURVE SMOOTH",
"140 0 LINE",
"448 0 LINE",
"448 86 LINE",
"475 159 OFFCURVE",
"525 212 OFFCURVE",
"636 212 CURVE SMOOTH",
"714 212 LINE",
"714 400 LINE",
"636 400 LINE SMOOTH",
"557 400 OFFCURVE",
"494 373 OFFCURVE",
"448 320 CURVE",
"448 487 LINE SMOOTH",
"448 597 OFFCURVE",
"515 652 OFFCURVE",
"650 652 CURVE SMOOTH",
"785 652 OFFCURVE",
"852 597 OFFCURVE",
"852 487 CURVE SMOOTH",
"852 400 LINE",
"774 400 LINE",
"774 212 LINE",
"852 212 LINE",
"852 0 LINE"
);
}
);
width = 1300;
},
{
layerId = "607A0539-44D7-4182-901A-4BFA5CCC01F8";
paths = (
{
closed = 1;
nodes = (
"1100 992 LINE",
"1100 1130 LINE",
"200 1130 LINE",
"200 992 LINE"
);
},
{
closed = 1;
nodes = (
"1200 400 LINE",
"1100 400 LINE",
"1100 517 LINE SMOOTH",
"1100 732 OFFCURVE",
"950 840 OFFCURVE",
"650 840 CURVE SMOOTH",
"350 840 OFFCURVE",
"200 732 OFFCURVE",
"200 517 CURVE SMOOTH",
"200 0 LINE",
"388 0 LINE",
"388 86 LINE",
"401 143 OFFCURVE",
"422 186 OFFCURVE",
"450 216 CURVE SMOOTH",
"479 247 OFFCURVE",
"527 262 OFFCURVE",
"596 262 CURVE SMOOTH",
"912 262 LINE",
"912 0 LINE",
"1100 0 LINE",
"1100 262 LINE",
"1200 262 LINE"
);
},
{
closed = 1;
nodes = (
"496 400 OFFCURVE",
"434 373 OFFCURVE",
"388 320 CURVE",
"388 517 LINE SMOOTH",
"388 640 OFFCURVE",
"475 702 OFFCURVE",
"650 702 CURVE SMOOTH",
"825 702 OFFCURVE",
"912 640 OFFCURVE",
"912 517 CURVE SMOOTH",
"912 400 LINE",
"573 400 LINE SMOOTH"
);
}
);
width = 1300;
},
{
layerId = "DF847F4E-D23C-40FA-8597-1D02BA148938";
paths = (
{
closed = 1;
nodes = (
"1070 1032 LINE",
"1070 1130 LINE",
"230 1130 LINE",
"230 1032 LINE"
);
},
{
closed = 1;
nodes = (
"1070 0 LINE",
"1070 262 LINE",
"1180 262 LINE",
"1180 360 LINE",
"1070 360 LINE",
"1070 517 LINE SMOOTH",
"1070 732 OFFCURVE",
"930 840 OFFCURVE",
"650 840 CURVE SMOOTH",
"370 840 OFFCURVE",
"230 732 OFFCURVE",
"230 517 CURVE SMOOTH",
"230 0 LINE",
"348 0 LINE",
"348 36 LINE",
"375 149 OFFCURVE",
"449 262 OFFCURVE",
"586 262 CURVE SMOOTH",
"660 262 LINE",
"660 360 LINE",
"586 360 LINE SMOOTH",
"493 360 OFFCURVE",
"414 317 OFFCURVE",
"348 230 CURVE",
"348 517 LINE SMOOTH",
"348 667 OFFCURVE",
"449 742 OFFCURVE",
"650 742 CURVE SMOOTH",
"851 742 OFFCURVE",
"952 667 OFFCURVE",
"952 517 CURVE SMOOTH",
"952 360 LINE",
"823 360 LINE",
"823 262 LINE",
"952 262 LINE",
"952 0 LINE"
);
}
);
width = 1300;
},
{
layerId = "3BE6379C-89A1-45B5-97C8-F079248A4F49";
paths = (
{
closed = 1;
nodes = (
"260 1072 LINE",
"1040 1072 LINE",
"1040 1130 LINE",
"260 1130 LINE"
);
},
{
closed = 1;
nodes = (
"982 282 LINE",
"982 0 LINE",
"1040 0 LINE",
"1040 282 LINE",
"1180 282 LINE",
"1180 340 LINE",
"1040 340 LINE",
"1040 517 LINE SMOOTH",
"1040 732 OFFCURVE",
"910 840 OFFCURVE",
"650 840 CURVE SMOOTH",
"390 840 OFFCURVE",
"260 732 OFFCURVE",
"260 517 CURVE SMOOTH",
"260 0 LINE",
"318 0 LINE",
"318 66 LINE",
"338 133 OFFCURVE",
"386 205 OFFCURVE",
"458 249 CURVE SMOOTH",
"494 271 OFFCURVE",
"533 282 OFFCURVE",
"576 282 CURVE SMOOTH",
"650 282 LINE",
"650 340 LINE",
"576 340 LINE SMOOTH",
"470 340 OFFCURVE",
"384 283 OFFCURVE",
"318 170 CURVE",
"318 517 LINE SMOOTH",
"318 694 OFFCURVE",
"429 782 OFFCURVE",
"650 782 CURVE SMOOTH",
"871 782 OFFCURVE",
"982 694 OFFCURVE",
"982 517 CURVE SMOOTH",
"982 340 LINE",
"823 340 LINE",
"823 282 LINE"
);
}
);
width = 1300;
}
);
note = uni179D;
unicode = 179D;
},
{
glyphname = uni179E;
lastChange = "2021-05-28 12:58:35 +0000";
layers = (
{
layerId = "372009DC-CA12-41C8-98C7-C44FC6D5F55D";
paths = (
{
closed = 1;
nodes = (
"1240 640 LINE",
"1190 640 LINE",
"1190 704 LINE SMOOTH",
"1190 749 OFFCURVE",
"1157 790 OFFCURVE",
"1090 826 CURVE SMOOTH",
"990 880 LINE",
"990 932 LINE",
"1190 932 LINE",
"1190 1160 LINE",
"880 1160 LINE SMOOTH",
"741 1160 OFFCURVE",
"672 1084 OFFCURVE",
"672 932 CURVE SMOOTH",
"672 827 LINE",
"822 704 LINE",
"822 640 LINE",
"724 640 LINE",
"724 412 LINE",
"822 412 LINE",
"822 323 LINE SMOOTH",
"822 260 OFFCURVE",
"765 228 OFFCURVE",
"650 228 CURVE SMOOTH",
"535 228 OFFCURVE",
"478 260 OFFCURVE",
"478 323 CURVE SMOOTH",
"478 704 LINE SMOOTH",
"478 749 OFFCURVE",
"453 790 OFFCURVE",
"403 826 CURVE SMOOTH",
"328 880 LINE",
"328 932 LINE",
"508 932 LINE",
"508 1160 LINE",
"238 1160 LINE SMOOTH",
"93 1160 OFFCURVE",
"20 1094 OFFCURVE",
"20 962 CURVE SMOOTH",
"20 827 LINE",
"110 704 LINE",
"110 323 LINE SMOOTH",
"110 108 OFFCURVE",
"290 0 OFFCURVE",
"650 0 CURVE SMOOTH",
"1010 0 OFFCURVE",
"1190 108 OFFCURVE",
"1190 323 CURVE SMOOTH",
"1190 412 LINE",
"1240 412 LINE"
);
}
);
width = 1300;
},
{
layerId = "A36153DC-C9CC-437F-8D19-86D84E7E38EA";
paths = (
{
closed = 1;
nodes = (
"754 432 LINE",
"852 432 LINE",
"852 323 LINE SMOOTH",
"852 240 OFFCURVE",
"785 198 OFFCURVE",
"650 198 CURVE SMOOTH",
"515 198 OFFCURVE",
"448 240 OFFCURVE",
"448 323 CURVE SMOOTH",
"448 704 LINE SMOOTH",
"448 749 OFFCURVE",
"423 790 OFFCURVE",
"373 826 CURVE SMOOTH",
"298 880 LINE",
"298 932 LINE",
"498 932 LINE",
"498 1130 LINE",
"238 1130 LINE SMOOTH",
"99 1130 OFFCURVE",
"30 1074 OFFCURVE",
"30 962 CURVE SMOOTH",
"30 827 LINE",
"140 704 LINE",
"140 323 LINE SMOOTH",
"140 108 OFFCURVE",
"310 0 OFFCURVE",
"650 0 CURVE SMOOTH",
"990 0 OFFCURVE",
"1160 108 OFFCURVE",
"1160 323 CURVE SMOOTH",
"1160 432 LINE",
"1240 432 LINE",
"1240 620 LINE",
"1160 620 LINE",
"1160 704 LINE SMOOTH",
"1160 749 OFFCURVE",
"1127 790 OFFCURVE",
"1060 826 CURVE SMOOTH",
"960 880 LINE",
"960 932 LINE",
"1160 932 LINE",
"1160 1130 LINE",
"900 1130 LINE SMOOTH",
"761 1130 OFFCURVE",
"692 1064 OFFCURVE",
"692 932 CURVE SMOOTH",
"692 827 LINE",
"852 704 LINE",
"852 620 LINE",
"754 620 LINE"
);
}
);
width = 1300;
},
{
layerId = "607A0539-44D7-4182-901A-4BFA5CCC01F8";
paths = (
{
closed = 1;
nodes = (
"200 108 OFFCURVE",
"350 0 OFFCURVE",
"650 0 CURVE SMOOTH",
"950 0 OFFCURVE",
"1100 108 OFFCURVE",
"1100 323 CURVE SMOOTH",
"1100 431 LINE",
"1200 431 LINE",
"1200 569 LINE",
"1100 569 LINE",
"1100 734 LINE SMOOTH",
"1100 779 OFFCURVE",
"1067 820 OFFCURVE",
"1000 856 CURVE SMOOTH",
"900 910 LINE",
"900 992 LINE",
"1100 992 LINE",
"1100 1130 LINE",
"900 1130 LINE SMOOTH",
"781 1130 OFFCURVE",
"722 1084 OFFCURVE",
"722 992 CURVE SMOOTH",
"722 857 LINE",
"912 734 LINE",
"912 569 LINE",
"700 569 LINE",
"700 431 LINE",
"912 431 LINE",
"912 323 LINE SMOOTH",
"912 200 OFFCURVE",
"825 138 OFFCURVE",
"650 138 CURVE SMOOTH",
"475 138 OFFCURVE",
"388 200 OFFCURVE",
"388 323 CURVE SMOOTH",
"388 734 LINE SMOOTH",
"388 779 OFFCURVE",
"363 820 OFFCURVE",
"313 856 CURVE SMOOTH",
"238 910 LINE",
"238 992 LINE",
"438 992 LINE",
"438 1130 LINE",
"238 1130 LINE SMOOTH",
"119 1130 OFFCURVE",
"60 1084 OFFCURVE",
"60 992 CURVE SMOOTH",
"60 857 LINE",
"200 734 LINE",
"200 323 LINE SMOOTH"
);
}
);
width = 1300;
},
{
layerId = "DF847F4E-D23C-40FA-8597-1D02BA148938";
paths = (
{
closed = 1;
nodes = (
"952 173 OFFCURVE",
"851 98 OFFCURVE",
"650 98 CURVE SMOOTH",
"449 98 OFFCURVE",
"348 173 OFFCURVE",
"348 323 CURVE SMOOTH",
"348 714 LINE SMOOTH",
"348 773 OFFCURVE",
"323 820 OFFCURVE",
"273 856 CURVE SMOOTH",
"198 910 LINE",
"198 992 LINE SMOOTH",
"198 1019 OFFCURVE",
"215 1032 OFFCURVE",
"248 1032 CURVE SMOOTH",
"438 1032 LINE",
"438 1130 LINE",
"248 1130 LINE SMOOTH",
"143 1130 OFFCURVE",
"90 1084 OFFCURVE",
"90 992 CURVE SMOOTH",
"90 857 LINE",
"195 772 LINE SMOOTH",
"218 753 OFFCURVE",
"230 734 OFFCURVE",
"230 714 CURVE SMOOTH",
"230 323 LINE SMOOTH",
"230 108 OFFCURVE",
"370 0 OFFCURVE",
"650 0 CURVE SMOOTH",
"930 0 OFFCURVE",
"1070 108 OFFCURVE",
"1070 323 CURVE SMOOTH",
"1070 451 LINE",
"1200 451 LINE",
"1200 549 LINE",
"1070 549 LINE",
"1070 714 LINE SMOOTH",
"1070 773 OFFCURVE",
"1037 820 OFFCURVE",
"970 856 CURVE SMOOTH",
"870 910 LINE",
"870 992 LINE SMOOTH",
"870 1019 OFFCURVE",
"887 1032 OFFCURVE",
"920 1032 CURVE SMOOTH",
"1070 1032 LINE",
"1070 1130 LINE",
"920 1130 LINE SMOOTH",
"815 1130 OFFCURVE",
"762 1084 OFFCURVE",
"762 992 CURVE SMOOTH",
"762 857 LINE",
"905 772 LINE SMOOTH",
"936 753 OFFCURVE",
"952 734 OFFCURVE",
"952 714 CURVE SMOOTH",
"952 549 LINE",
"700 549 LINE",
"700 451 LINE",
"952 451 LINE",
"952 323 LINE SMOOTH"
);
}
);
width = 1300;
},
{
layerId = "3BE6379C-89A1-45B5-97C8-F079248A4F49";
paths = (
{
closed = 1;
nodes = (
"982 471 LINE",
"982 323 LINE SMOOTH",
"982 146 OFFCURVE",
"871 58 OFFCURVE",
"650 58 CURVE SMOOTH",
"429 58 OFFCURVE",
"318 146 OFFCURVE",
"318 323 CURVE SMOOTH",
"318 714 LINE SMOOTH",
"318 761 OFFCURVE",
"291 804 OFFCURVE",
"238 842 CURVE SMOOTH",
"158 899 LINE",
"158 992 LINE SMOOTH",
"158 1045 OFFCURVE",
"188 1072 OFFCURVE",
"248 1072 CURVE SMOOTH",
"408 1072 LINE",
"408 1130 LINE",
"248 1130 LINE SMOOTH",
"149 1130 OFFCURVE",
"100 1084 OFFCURVE",
"100 992 CURVE SMOOTH",
"100 869 LINE",
"200 797 LINE SMOOTH",
"240 768 OFFCURVE",
"260 741 OFFCURVE",
"260 714 CURVE SMOOTH",
"260 323 LINE SMOOTH",
"260 108 OFFCURVE",
"390 0 OFFCURVE",
"650 0 CURVE SMOOTH",
"910 0 OFFCURVE",
"1040 108 OFFCURVE",
"1040 323 CURVE SMOOTH",
"1040 471 LINE",
"1200 471 LINE",
"1200 529 LINE",
"1040 529 LINE",
"1040 714 LINE SMOOTH",
"1040 751 OFFCURVE",
"1003 792 OFFCURVE",
"930 837 CURVE SMOOTH",
"820 903 LINE",
"820 992 LINE SMOOTH",
"820 1045 OFFCURVE",
"853 1072 OFFCURVE",
"920 1072 CURVE SMOOTH",
"1070 1072 LINE",
"1070 1130 LINE",
"920 1130 LINE SMOOTH",
"815 1130 OFFCURVE",
"762 1084 OFFCURVE",
"762 992 CURVE SMOOTH",
"762 869 LINE",
"900 786 LINE SMOOTH",
"955 753 OFFCURVE",
"982 729 OFFCURVE",
"982 714 CURVE SMOOTH",
"982 529 LINE",
"700 529 LINE",
"700 471 LINE"
);
}
);
width = 1300;
}
);
note = uni179E;
unicode = 179E;
},
{
glyphname = uni179F;
lastChange = "2021-05-28 12:58:35 +0000";
layers = (
{
layerId = "372009DC-CA12-41C8-98C7-C44FC6D5F55D";
paths = (
{
closed = 1;
nodes = (
"1802 932 LINE",
"1802 1160 LINE",
"1512 1160 LINE SMOOTH",
"1360 1160 OFFCURVE",
"1284 1084 OFFCURVE",
"1284 932 CURVE SMOOTH",
"1284 827 LINE",
"1434 704 LINE",
"1434 323 LINE SMOOTH",
"1434 260 OFFCURVE",
"1385 228 OFFCURVE",
"1287 228 CURVE SMOOTH",
"1189 228 OFFCURVE",
"1140 260 OFFCURVE",
"1140 323 CURVE SMOOTH",
"1140 490 LINE SMOOTH",
"1140 697 OFFCURVE",
"982 804 OFFCURVE",
"666 810 CURVE",
"651 837 OFFCURVE",
"610 870 OFFCURVE",
"542 908 CURVE",
"542 932 LINE",
"832 932 LINE",
"832 1160 LINE",
"452 1160 LINE SMOOTH",
"307 1160 OFFCURVE",
"234 1094 OFFCURVE",
"234 962 CURVE SMOOTH",
"234 867 LINE",
"348 781 LINE",
"189 736 OFFCURVE",
"110 638 OFFCURVE",
"110 487 CURVE SMOOTH",
"110 298 LINE SMOOTH",
"110 99 OFFCURVE",
"230 0 OFFCURVE",
"470 0 CURVE SMOOTH",
"600 0 LINE",
"600 258 LINE",
"530 258 LINE SMOOTH",
"495 258 OFFCURVE",
"478 271 OFFCURVE",
"478 298 CURVE SMOOTH",
"478 487 LINE SMOOTH",
"478 577 OFFCURVE",
"527 622 OFFCURVE",
"625 622 CURVE SMOOTH",
"723 622 OFFCURVE",
"772 577 OFFCURVE",
"772 487 CURVE SMOOTH",
"772 323 LINE SMOOTH",
"772 108 OFFCURVE",
"944 0 OFFCURVE",
"1287 0 CURVE SMOOTH",
"1630 0 OFFCURVE",
"1802 108 OFFCURVE",
"1802 323 CURVE SMOOTH",
"1802 704 LINE SMOOTH",
"1802 749 OFFCURVE",
"1769 790 OFFCURVE",
"1702 826 CURVE SMOOTH",
"1602 880 LINE",
"1602 932 LINE"
);
}
);
width = 1912;
},
{
layerId = "A36153DC-C9CC-437F-8D19-86D84E7E38EA";
paths = (
{
closed = 1;
nodes = (
"219 736 OFFCURVE",
"140 638 OFFCURVE",
"140 487 CURVE SMOOTH",
"140 298 LINE SMOOTH",
"140 99 OFFCURVE",
"250 0 OFFCURVE",
"470 0 CURVE SMOOTH",
"600 0 LINE",
"600 228 LINE",
"530 228 LINE SMOOTH",
"475 228 OFFCURVE",
"448 251 OFFCURVE",
"448 298 CURVE SMOOTH",
"448 487 LINE SMOOTH",
"448 577 OFFCURVE",
"507 622 OFFCURVE",
"625 622 CURVE SMOOTH",
"743 622 OFFCURVE",
"802 577 OFFCURVE",
"802 487 CURVE SMOOTH",
"802 323 LINE SMOOTH",
"802 108 OFFCURVE",
"964 0 OFFCURVE",
"1287 0 CURVE SMOOTH",
"1610 0 OFFCURVE",
"1772 108 OFFCURVE",
"1772 323 CURVE SMOOTH",
"1772 704 LINE SMOOTH",
"1772 749 OFFCURVE",
"1739 790 OFFCURVE",
"1672 826 CURVE SMOOTH",
"1572 880 LINE",
"1572 932 LINE",
"1772 932 LINE",
"1772 1130 LINE",
"1512 1130 LINE SMOOTH",
"1373 1130 OFFCURVE",
"1304 1064 OFFCURVE",
"1304 932 CURVE SMOOTH",
"1304 827 LINE",
"1464 704 LINE",
"1464 323 LINE SMOOTH",
"1464 240 OFFCURVE",
"1405 198 OFFCURVE",
"1287 198 CURVE SMOOTH",
"1169 198 OFFCURVE",
"1110 240 OFFCURVE",
"1110 323 CURVE SMOOTH",
"1110 487 LINE SMOOTH",
"1110 702 OFFCURVE",
"950 809 OFFCURVE",
"629 810 CURVE",
"600 839 OFFCURVE",
"561 873 OFFCURVE",
"512 910 CURVE",
"512 932 LINE",
"832 932 LINE",
"832 1130 LINE",
"452 1130 LINE SMOOTH",
"327 1130 OFFCURVE",
"264 1074 OFFCURVE",
"264 962 CURVE SMOOTH",
"264 867 LINE",
"378 781 LINE"
);
}
);
width = 1912;
},
{
layerId = "607A0539-44D7-4182-901A-4BFA5CCC01F8";
paths = (
{
closed = 1;
nodes = (
"200 79 OFFCURVE",
"290 0 OFFCURVE",
"470 0 CURVE SMOOTH",
"600 0 LINE",
"600 168 LINE",
"470 168 LINE SMOOTH",
"415 168 OFFCURVE",
"388 191 OFFCURVE",
"388 238 CURVE SMOOTH",
"388 517 LINE SMOOTH",
"388 640 OFFCURVE",
"475 702 OFFCURVE",
"650 702 CURVE SMOOTH",
"791 702 OFFCURVE",
"862 640 OFFCURVE",
"862 517 CURVE SMOOTH",
"862 323 LINE SMOOTH",
"862 108 OFFCURVE",
"1004 0 OFFCURVE",
"1287 0 CURVE SMOOTH",
"1570 0 OFFCURVE",
"1712 108 OFFCURVE",
"1712 323 CURVE SMOOTH",
"1712 734 LINE SMOOTH",
"1712 773 OFFCURVE",
"1677 812 OFFCURVE",
"1607 851 CURVE SMOOTH",
"1502 910 LINE",
"1502 992 LINE",
"1712 992 LINE",
"1712 1130 LINE",
"1512 1130 LINE SMOOTH",
"1393 1130 OFFCURVE",
"1334 1084 OFFCURVE",
"1334 992 CURVE SMOOTH",
"1334 857 LINE",
"1524 734 LINE",
"1524 323 LINE SMOOTH",
"1524 200 OFFCURVE",
"1445 138 OFFCURVE",
"1287 138 CURVE SMOOTH",
"1129 138 OFFCURVE",
"1050 200 OFFCURVE",
"1050 323 CURVE SMOOTH",
"1050 517 LINE SMOOTH",
"1050 732 OFFCURVE",
"917 840 OFFCURVE",
"650 840 CURVE SMOOTH",
"636 840 OFFCURVE",
"623 840 OFFCURVE",
"610 839 CURVE",
"579 871 OFFCURVE",
"527 908 OFFCURVE",
"452 950 CURVE",
"452 992 LINE",
"832 992 LINE",
"832 1130 LINE",
"452 1130 LINE SMOOTH",
"327 1130 OFFCURVE",
"264 1084 OFFCURVE",
"264 992 CURVE SMOOTH",
"264 897 LINE",
"392 801 LINE",
"264 752 OFFCURVE",
"200 658 OFFCURVE",
"200 517 CURVE SMOOTH",
"200 238 LINE SMOOTH"
);
}
);
width = 1912;
},
{
layerId = "DF847F4E-D23C-40FA-8597-1D02BA148938";
paths = (
{
closed = 1;
nodes = (
"412 992 LINE SMOOTH",
"412 1019 OFFCURVE",
"429 1032 OFFCURVE",
"462 1032 CURVE SMOOTH",
"832 1032 LINE",
"832 1130 LINE",
"462 1130 LINE SMOOTH",
"357 1130 OFFCURVE",
"304 1084 OFFCURVE",
"304 992 CURVE SMOOTH",
"304 907 LINE",
"477 816 LINE",
"312 780 OFFCURVE",
"230 677 OFFCURVE",
"230 507 CURVE SMOOTH",
"230 238 LINE SMOOTH",
"230 79 OFFCURVE",
"310 0 OFFCURVE",
"470 0 CURVE SMOOTH",
"600 0 LINE",
"600 98 LINE",
"470 98 LINE SMOOTH",
"389 98 OFFCURVE",
"348 145 OFFCURVE",
"348 238 CURVE SMOOTH",
"348 507 LINE SMOOTH",
"348 657 OFFCURVE",
"440 732 OFFCURVE",
"625 732 CURVE SMOOTH",
"810 732 OFFCURVE",
"902 657 OFFCURVE",
"902 507 CURVE SMOOTH",
"902 323 LINE SMOOTH",
"902 108 OFFCURVE",
"1032 0 OFFCURVE",
"1292 0 CURVE SMOOTH",
"1552 0 OFFCURVE",
"1682 108 OFFCURVE",
"1682 323 CURVE SMOOTH",
"1682 714 LINE SMOOTH",
"1682 773 OFFCURVE",
"1649 820 OFFCURVE",
"1582 856 CURVE SMOOTH",
"1482 910 LINE",
"1482 992 LINE SMOOTH",
"1482 1019 OFFCURVE",
"1499 1032 OFFCURVE",
"1532 1032 CURVE SMOOTH",
"1682 1032 LINE",
"1682 1130 LINE",
"1532 1130 LINE SMOOTH",
"1427 1130 OFFCURVE",
"1374 1084 OFFCURVE",
"1374 992 CURVE SMOOTH",
"1374 857 LINE",
"1517 772 LINE SMOOTH",
"1548 753 OFFCURVE",
"1564 734 OFFCURVE",
"1564 714 CURVE SMOOTH",
"1564 323 LINE SMOOTH",
"1564 173 OFFCURVE",
"1473 98 OFFCURVE",
"1292 98 CURVE SMOOTH",
"1111 98 OFFCURVE",
"1020 173 OFFCURVE",
"1020 323 CURVE SMOOTH",
"1020 507 LINE SMOOTH",
"1020 714 OFFCURVE",
"898 822 OFFCURVE",
"655 830 CURVE",
"412 960 LINE"
);
}
);
width = 1912;
},
{
layerId = "3BE6379C-89A1-45B5-97C8-F079248A4F49";
paths = (
{
closed = 1;
nodes = (
"398 940 LINE",
"398 992 LINE SMOOTH",
"398 1045 OFFCURVE",
"431 1072 OFFCURVE",
"498 1072 CURVE SMOOTH",
"868 1072 LINE",
"868 1130 LINE",
"498 1130 LINE SMOOTH",
"393 1130 OFFCURVE",
"340 1084 OFFCURVE",
"340 992 CURVE SMOOTH",
"340 917 LINE",
"510 820 LINE",
"343 789 OFFCURVE",
"260 685 OFFCURVE",
"260 507 CURVE SMOOTH",
"260 238 LINE SMOOTH",
"260 79 OFFCURVE",
"330 0 OFFCURVE",
"470 0 CURVE SMOOTH",
"600 0 LINE",
"600 58 LINE",
"470 58 LINE SMOOTH",
"369 58 OFFCURVE",
"318 118 OFFCURVE",
"318 238 CURVE SMOOTH",
"318 507 LINE SMOOTH",
"318 684 OFFCURVE",
"420 772 OFFCURVE",
"625 772 CURVE SMOOTH",
"830 772 OFFCURVE",
"932 684 OFFCURVE",
"932 507 CURVE SMOOTH",
"932 323 LINE SMOOTH",
"932 108 OFFCURVE",
"1052 0 OFFCURVE",
"1292 0 CURVE SMOOTH",
"1532 0 OFFCURVE",
"1652 108 OFFCURVE",
"1652 323 CURVE SMOOTH",
"1652 714 LINE SMOOTH",
"1652 751 OFFCURVE",
"1615 792 OFFCURVE",
"1542 837 CURVE SMOOTH",
"1432 903 LINE",
"1432 992 LINE SMOOTH",
"1432 1045 OFFCURVE",
"1465 1072 OFFCURVE",
"1532 1072 CURVE SMOOTH",
"1682 1072 LINE",
"1682 1130 LINE",
"1532 1130 LINE SMOOTH",
"1427 1130 OFFCURVE",
"1374 1084 OFFCURVE",
"1374 992 CURVE SMOOTH",
"1374 869 LINE",
"1512 786 LINE SMOOTH",
"1567 753 OFFCURVE",
"1594 729 OFFCURVE",
"1594 714 CURVE SMOOTH",
"1594 323 LINE SMOOTH",
"1594 146 OFFCURVE",
"1493 58 OFFCURVE",
"1292 58 CURVE SMOOTH",
"1091 58 OFFCURVE",
"990 146 OFFCURVE",
"990 323 CURVE SMOOTH",
"990 507 LINE SMOOTH",
"990 722 OFFCURVE",
"868 830 OFFCURVE",
"625 830 CURVE SMOOTH",
"598 830 LINE"
);
}
);
width = 1912;
}
);
note = uni179F;
unicode = 179F;
},
{
glyphname = uni17A0;
lastChange = "2021-05-28 12:58:36 +0000";
layers = (
{
layerId = "372009DC-CA12-41C8-98C7-C44FC6D5F55D";
paths = (
{
closed = 1;
nodes = (
"478 749 OFFCURVE",
"453 790 OFFCURVE",
"403 826 CURVE SMOOTH",
"328 880 LINE",
"328 932 LINE",
"528 932 LINE",
"528 1160 LINE",
"238 1160 LINE SMOOTH",
"93 1160 OFFCURVE",
"20 1094 OFFCURVE",
"20 962 CURVE SMOOTH",
"20 827 LINE",
"110 704 LINE",
"110 323 LINE SMOOTH",
"110 108 OFFCURVE",
"282 0 OFFCURVE",
"625 0 CURVE SMOOTH",
"968 0 OFFCURVE",
"1140 108 OFFCURVE",
"1140 323 CURVE SMOOTH",
"1140 807 LINE SMOOTH",
"1140 890 OFFCURVE",
"1189 932 OFFCURVE",
"1287 932 CURVE SMOOTH",
"1385 932 OFFCURVE",
"1434 890 OFFCURVE",
"1434 807 CURVE SMOOTH",
"1434 0 LINE",
"1802 0 LINE",
"1802 807 LINE SMOOTH",
"1802 1042 OFFCURVE",
"1630 1160 OFFCURVE",
"1287 1160 CURVE SMOOTH",
"944 1160 OFFCURVE",
"772 1042 OFFCURVE",
"772 807 CURVE SMOOTH",
"772 323 LINE SMOOTH",
"772 240 OFFCURVE",
"723 198 OFFCURVE",
"625 198 CURVE SMOOTH",
"527 198 OFFCURVE",
"478 240 OFFCURVE",
"478 323 CURVE SMOOTH",
"478 704 LINE SMOOTH"
);
}
);
width = 1912;
},
{
layerId = "A36153DC-C9CC-437F-8D19-86D84E7E38EA";
paths = (
{
closed = 1;
nodes = (
"448 749 OFFCURVE",
"423 790 OFFCURVE",
"373 826 CURVE SMOOTH",
"298 880 LINE",
"298 932 LINE",
"498 932 LINE",
"498 1130 LINE",
"238 1130 LINE SMOOTH",
"99 1130 OFFCURVE",
"30 1074 OFFCURVE",
"30 962 CURVE SMOOTH",
"30 827 LINE",
"140 704 LINE",
"140 323 LINE SMOOTH",
"140 108 OFFCURVE",
"302 0 OFFCURVE",
"625 0 CURVE SMOOTH",
"948 0 OFFCURVE",
"1110 108 OFFCURVE",
"1110 323 CURVE SMOOTH",
"1110 807 LINE SMOOTH",
"1110 890 OFFCURVE",
"1169 932 OFFCURVE",
"1287 932 CURVE SMOOTH",
"1405 932 OFFCURVE",
"1464 890 OFFCURVE",
"1464 807 CURVE SMOOTH",
"1464 0 LINE",
"1772 0 LINE",
"1772 807 LINE SMOOTH",
"1772 1022 OFFCURVE",
"1610 1130 OFFCURVE",
"1287 1130 CURVE SMOOTH",
"964 1130 OFFCURVE",
"802 1022 OFFCURVE",
"802 807 CURVE SMOOTH",
"802 323 LINE SMOOTH",
"802 240 OFFCURVE",
"743 198 OFFCURVE",
"625 198 CURVE SMOOTH",
"507 198 OFFCURVE",
"448 240 OFFCURVE",
"448 323 CURVE SMOOTH",
"448 704 LINE SMOOTH"
);
}
);
width = 1912;
},
{
layerId = "607A0539-44D7-4182-901A-4BFA5CCC01F8";
paths = (
{
closed = 1;
nodes = (
"388 779 OFFCURVE",
"363 820 OFFCURVE",
"313 856 CURVE SMOOTH",
"238 910 LINE",
"238 992 LINE",
"438 992 LINE",
"438 1130 LINE",
"238 1130 LINE SMOOTH",
"119 1130 OFFCURVE",
"60 1084 OFFCURVE",
"60 992 CURVE SMOOTH",
"60 857 LINE",
"200 734 LINE",
"200 323 LINE SMOOTH",
"200 108 OFFCURVE",
"342 0 OFFCURVE",
"625 0 CURVE SMOOTH",
"908 0 OFFCURVE",
"1050 108 OFFCURVE",
"1050 323 CURVE SMOOTH",
"1050 807 LINE SMOOTH",
"1050 930 OFFCURVE",
"1129 992 OFFCURVE",
"1287 992 CURVE SMOOTH",
"1445 992 OFFCURVE",
"1524 930 OFFCURVE",
"1524 807 CURVE SMOOTH",
"1524 0 LINE",
"1712 0 LINE",
"1712 807 LINE SMOOTH",
"1712 1022 OFFCURVE",
"1570 1130 OFFCURVE",
"1287 1130 CURVE SMOOTH",
"1004 1130 OFFCURVE",
"862 1022 OFFCURVE",
"862 807 CURVE SMOOTH",
"862 323 LINE SMOOTH",
"862 200 OFFCURVE",
"783 138 OFFCURVE",
"625 138 CURVE SMOOTH",
"467 138 OFFCURVE",
"388 200 OFFCURVE",
"388 323 CURVE SMOOTH",
"388 734 LINE SMOOTH"
);
}
);
width = 1912;
},
{
layerId = "DF847F4E-D23C-40FA-8597-1D02BA148938";
paths = (
{
closed = 1;
nodes = (
"348 773 OFFCURVE",
"323 820 OFFCURVE",
"273 856 CURVE SMOOTH",
"198 910 LINE",
"198 992 LINE SMOOTH",
"198 1019 OFFCURVE",
"215 1032 OFFCURVE",
"248 1032 CURVE SMOOTH",
"438 1032 LINE",
"438 1130 LINE",
"248 1130 LINE SMOOTH",
"143 1130 OFFCURVE",
"90 1084 OFFCURVE",
"90 992 CURVE SMOOTH",
"90 857 LINE",
"195 772 LINE SMOOTH",
"218 753 OFFCURVE",
"230 734 OFFCURVE",
"230 714 CURVE SMOOTH",
"230 323 LINE SMOOTH",
"230 108 OFFCURVE",
"362 0 OFFCURVE",
"625 0 CURVE SMOOTH",
"888 0 OFFCURVE",
"1020 108 OFFCURVE",
"1020 323 CURVE SMOOTH",
"1020 807 LINE SMOOTH",
"1020 957 OFFCURVE",
"1111 1032 OFFCURVE",
"1292 1032 CURVE SMOOTH",
"1473 1032 OFFCURVE",
"1564 957 OFFCURVE",
"1564 807 CURVE SMOOTH",
"1564 0 LINE",
"1682 0 LINE",
"1682 807 LINE SMOOTH",
"1682 1022 OFFCURVE",
"1552 1130 OFFCURVE",
"1292 1130 CURVE SMOOTH",
"1032 1130 OFFCURVE",
"902 1022 OFFCURVE",
"902 807 CURVE SMOOTH",
"902 323 LINE SMOOTH",
"902 173 OFFCURVE",
"810 98 OFFCURVE",
"625 98 CURVE SMOOTH",
"440 98 OFFCURVE",
"348 173 OFFCURVE",
"348 323 CURVE SMOOTH",
"348 714 LINE SMOOTH"
);
}
);
width = 1912;
},
{
layerId = "3BE6379C-89A1-45B5-97C8-F079248A4F49";
paths = (
{
closed = 1;
nodes = (
"318 761 OFFCURVE",
"291 804 OFFCURVE",
"238 842 CURVE SMOOTH",
"158 899 LINE",
"158 992 LINE SMOOTH",
"158 1045 OFFCURVE",
"188 1072 OFFCURVE",
"248 1072 CURVE SMOOTH",
"408 1072 LINE",
"408 1130 LINE",
"248 1130 LINE SMOOTH",
"149 1130 OFFCURVE",
"100 1084 OFFCURVE",
"100 992 CURVE SMOOTH",
"100 869 LINE",
"200 797 LINE SMOOTH",
"240 768 OFFCURVE",
"260 741 OFFCURVE",
"260 714 CURVE SMOOTH",
"260 323 LINE SMOOTH",
"260 108 OFFCURVE",
"382 0 OFFCURVE",
"625 0 CURVE SMOOTH",
"868 0 OFFCURVE",
"990 108 OFFCURVE",
"990 323 CURVE SMOOTH",
"990 807 LINE SMOOTH",
"990 984 OFFCURVE",
"1091 1072 OFFCURVE",
"1292 1072 CURVE SMOOTH",
"1493 1072 OFFCURVE",
"1594 984 OFFCURVE",
"1594 807 CURVE SMOOTH",
"1594 0 LINE",
"1652 0 LINE",
"1652 807 LINE SMOOTH",
"1652 1022 OFFCURVE",
"1532 1130 OFFCURVE",
"1292 1130 CURVE SMOOTH",
"1052 1130 OFFCURVE",
"932 1022 OFFCURVE",
"932 807 CURVE SMOOTH",
"932 323 LINE SMOOTH",
"932 146 OFFCURVE",
"830 58 OFFCURVE",
"625 58 CURVE SMOOTH",
"420 58 OFFCURVE",
"318 146 OFFCURVE",
"318 323 CURVE SMOOTH",
"318 714 LINE SMOOTH"
);
}
);
width = 1912;
}
);
note = uni17A0;
unicode = 17A0;
},
